<?xml version="1.0" standalone="no"?><!DOCTYPE svg PUBLIC "-//W3C//DTD SVG 1.1//EN" "http://www.w3.org/Graphics/SVG/1.1/DTD/svg11.dtd"><svg t="1736773959344" class="icon" viewBox="0 0 1024 1024" version="1.1" xmlns="http://www.w3.org/2000/svg" p-id="5060" width="32" height="32" xmlns:xlink="http://www.w3.org/1999/xlink"><path d="M602.352941 665.6v174.682353c0 30.117647 30.117647 60.235294 60.235294 60.235294h180.705883c36.141176 0 60.235294-24.094118 60.235294-60.235294v-174.682353c0-30.117647-30.117647-60.235294-60.235294-60.235294h-180.705883c-36.141176 0-60.235294 30.117647-60.235294 60.235294z m-60.235294 0c0-66.258824 54.211765-120.470588 120.470588-120.470588h180.705883c66.258824 0 120.470588 54.211765 120.470588 120.470588v174.682353c0 66.258824-54.211765 120.470588-120.470588 120.470588h-180.705883c-66.258824 0-120.470588-54.211765-120.470588-120.470588v-174.682353zM120.470588 665.6v174.682353c0 30.117647 30.117647 60.235294 60.235294 60.235294h180.705883c36.141176 0 60.235294-24.094118 60.235294-60.235294v-174.682353c0-30.117647-30.117647-60.235294-60.235294-60.235294h-180.705883c-36.141176 0-60.235294 30.117647-60.235294 60.235294z m-60.235294 0c0-66.258824 54.211765-120.470588 120.470588-120.470588h180.705883c66.258824 0 120.470588 54.211765 120.470588 120.470588v174.682353c0 66.258824-54.211765 120.470588-120.470588 120.470588h-180.705883c-66.258824 0-120.470588-54.211765-120.470588-120.470588v-174.682353zM602.352941 177.694118v174.682353c0 30.117647 30.117647 60.235294 60.235294 60.235294h180.705883c36.141176 0 60.235294-24.094118 60.235294-60.235294v-174.682353c0-30.117647-30.117647-60.235294-60.235294-60.235294h-180.705883c-36.141176 0-60.235294 30.117647-60.235294 60.235294z m-60.235294 0c0-66.258824 54.211765-120.470588 120.470588-120.470589h180.705883c66.258824 0 120.470588 54.211765 120.470588 120.470589v174.682353c0 66.258824-54.211765 120.470588-120.470588 120.470588h-180.705883c-66.258824 0-120.470588-54.211765-120.470588-120.470588v-174.682353z" fill="#222222" p-id="5061"></path></svg>