<svg width="160" height="100" viewBox="0 0 160 100" fill="none" xmlns="http://www.w3.org/2000/svg">
<rect x="1" y="1" width="158" height="97.9999" rx="7" fill="white"/>
<path d="M52.3772 75.5869C52.3772 76.7421 52.239 77.8016 51.9626 78.7654C51.6933 79.7221 51.2752 80.5513 50.7083 81.2528C50.1413 81.9544 49.422 82.5037 48.5503 82.9005L52.2922 87.0782H48.072L45.223 83.5915C45.1734 83.5915 45.1309 83.5915 45.0955 83.5915C45.06 83.5915 45.0211 83.5915 44.9785 83.5915C43.71 83.5915 42.6115 83.4037 41.6832 83.0281C40.7548 82.6454 39.9859 82.0997 39.3764 81.391C38.774 80.6824 38.324 79.8355 38.0263 78.8504C37.7287 77.8653 37.5799 76.7704 37.5799 75.5656C37.5799 73.9569 37.8421 72.5573 38.3665 71.3667C38.898 70.169 39.713 69.2406 40.8115 68.5816C41.9099 67.9225 43.306 67.5929 44.9998 67.5929C46.6865 67.5929 48.072 67.9225 49.1562 68.5816C50.2476 69.2406 51.0555 70.169 51.5799 71.3667C52.1115 72.5644 52.3772 73.9711 52.3772 75.5869ZM41.0347 75.5869C41.0347 76.6712 41.1694 77.6067 41.4387 78.3933C41.715 79.1729 42.1438 79.7752 42.7249 80.2005C43.306 80.6186 44.0573 80.8276 44.9785 80.8276C45.914 80.8276 46.6723 80.6186 47.2534 80.2005C47.8345 79.7752 48.2562 79.1729 48.5184 78.3933C48.7877 77.6067 48.9224 76.6712 48.9224 75.5869C48.9224 73.9569 48.6176 72.6742 48.0082 71.7387C47.3987 70.8033 46.3959 70.3355 44.9998 70.3355C44.0714 70.3355 43.3131 70.5482 42.7249 70.9734C42.1438 71.3915 41.715 71.9939 41.4387 72.7805C41.1694 73.5601 41.0347 74.4955 41.0347 75.5869ZM60.1267 67.8374C61.537 67.8374 62.6992 68.0075 63.6134 68.3477C64.5347 68.6879 65.2186 69.2017 65.6651 69.8891C66.1115 70.5765 66.3348 71.4446 66.3348 72.4935C66.3348 73.2022 66.2001 73.8223 65.9308 74.3538C65.6615 74.8853 65.3072 75.3353 64.8678 75.7038C64.4284 76.0724 63.9536 76.3735 63.4433 76.6074L68.0144 83.3789H64.3575L60.6476 77.4153H58.8936V83.3789H55.5982V67.8374H60.1267ZM59.8928 70.5375H58.8936V74.7365H59.9566C61.048 74.7365 61.8275 74.5558 62.2953 74.1943C62.7701 73.8258 63.0075 73.2872 63.0075 72.5785C63.0075 71.8415 62.7524 71.3171 62.2421 71.0053C61.739 70.6934 60.9559 70.5375 59.8928 70.5375ZM76.5717 70.3568C75.941 70.3568 75.3812 70.4808 74.8922 70.7289C74.4103 70.9698 74.0028 71.3206 73.6697 71.7813C73.3437 72.2419 73.0956 72.7982 72.9256 73.4502C72.7555 74.1022 72.6704 74.8357 72.6704 75.6507C72.6704 76.7492 72.8051 77.6882 73.0744 78.4677C73.3508 79.2402 73.776 79.8319 74.35 80.243C74.9241 80.6469 75.6646 80.8489 76.5717 80.8489C77.2025 80.8489 77.8332 80.778 78.4639 80.6363C79.1018 80.4946 79.7927 80.2926 80.5368 80.0304V82.7942C79.8494 83.0777 79.1726 83.2797 78.5065 83.4002C77.8403 83.5277 77.0926 83.5915 76.2635 83.5915C74.6618 83.5915 73.3437 83.262 72.309 82.6029C71.2814 81.9367 70.5196 81.0084 70.0235 79.8178C69.5274 78.6201 69.2794 77.224 69.2794 75.6294C69.2794 74.453 69.4388 73.3758 69.7577 72.3978C70.0766 71.4198 70.5444 70.573 71.1609 69.8572C71.7775 69.1414 72.5393 68.5886 73.4464 68.1989C74.3536 67.8091 75.3953 67.6142 76.5717 67.6142C77.3442 67.6142 78.1167 67.7134 78.8891 67.9118C79.6687 68.1032 80.4128 68.3689 81.1215 68.7091L80.0585 71.3879C79.4774 71.1116 78.8927 70.8706 78.3045 70.6651C77.7163 70.4596 77.1387 70.3568 76.5717 70.3568ZM94.3987 77.4153C94.3987 78.4075 94.2641 79.2862 93.9948 80.0516C93.7326 80.817 93.3463 81.4655 92.8361 81.997C92.3329 82.5214 91.7234 82.9183 91.0077 83.1876C90.299 83.4569 89.4982 83.5915 88.6052 83.5915C87.769 83.5915 87.0001 83.4569 86.2985 83.1876C85.6039 82.9183 84.998 82.5214 84.4807 81.997C83.9704 81.4655 83.5736 80.817 83.2901 80.0516C83.0137 79.2862 82.8755 78.4075 82.8755 77.4153C82.8755 76.0972 83.1094 74.981 83.5771 74.0668C84.0448 73.1526 84.711 72.4581 85.5756 71.9832C86.4402 71.5084 87.4713 71.271 88.669 71.271C89.7816 71.271 90.7667 71.5084 91.6242 71.9832C92.4888 72.4581 93.1656 73.1526 93.6546 74.0668C94.1507 74.981 94.3987 76.0972 94.3987 77.4153ZM86.1815 77.4153C86.1815 78.1949 86.2666 78.8504 86.4366 79.3819C86.6067 79.9134 86.8725 80.3138 87.2339 80.5831C87.5954 80.8524 88.0666 80.9871 88.6477 80.9871C89.2218 80.9871 89.686 80.8524 90.0403 80.5831C90.4017 80.3138 90.664 79.9134 90.827 79.3819C90.997 78.8504 91.0821 78.1949 91.0821 77.4153C91.0821 76.6287 90.997 75.9767 90.827 75.4593C90.664 74.9349 90.4017 74.5416 90.0403 74.2794C89.6789 74.0172 89.2076 73.8861 88.6265 73.8861C87.769 73.8861 87.1453 74.1802 86.7556 74.7684C86.3729 75.3566 86.1815 76.2389 86.1815 77.4153ZM100.841 83.5915C99.5154 83.5915 98.4347 83.0742 97.5984 82.0395C96.7693 80.9977 96.3547 79.4705 96.3547 77.4578C96.3547 75.4239 96.7764 73.8861 97.6197 72.8443C98.463 71.7954 99.565 71.271 100.926 71.271C101.493 71.271 101.992 71.349 102.425 71.5049C102.857 71.6608 103.229 71.8699 103.541 72.1321C103.86 72.3943 104.129 72.6884 104.349 73.0144H104.455C104.412 72.7876 104.359 72.4545 104.296 72.0151C104.239 71.5687 104.21 71.1116 104.21 70.6438V66.8382H107.463V83.3789H104.976L104.349 81.8375H104.21C104.005 82.1635 103.746 82.4612 103.434 82.7305C103.13 82.9927 102.765 83.2017 102.34 83.3576C101.914 83.5136 101.415 83.5915 100.841 83.5915ZM101.978 81.0084C102.864 81.0084 103.488 80.7461 103.849 80.2217C104.218 79.6902 104.412 78.8929 104.434 77.8299V77.4791C104.434 76.3239 104.257 75.4416 103.902 74.8322C103.548 74.2156 102.889 73.9073 101.925 73.9073C101.209 73.9073 100.649 74.2156 100.245 74.8322C99.8414 75.4487 99.6395 76.3381 99.6395 77.5004C99.6395 78.6626 99.8414 79.5378 100.245 80.126C100.656 80.7142 101.234 81.0084 101.978 81.0084ZM115.755 71.271C116.853 71.271 117.8 71.4836 118.593 71.9088C119.387 72.327 120 72.9364 120.432 73.7372C120.865 74.5381 121.081 75.516 121.081 76.6712V78.2445H113.416C113.452 79.1587 113.725 79.878 114.235 80.4024C114.752 80.9198 115.468 81.1784 116.382 81.1784C117.14 81.1784 117.835 81.1005 118.466 80.9446C119.096 80.7887 119.745 80.5548 120.411 80.243V82.7517C119.823 83.0423 119.206 83.2549 118.561 83.3895C117.924 83.5242 117.148 83.5915 116.233 83.5915C115.043 83.5915 113.987 83.3718 113.066 82.9324C112.151 82.493 111.432 81.8233 110.908 80.9233C110.39 80.0233 110.132 78.8894 110.132 77.5216C110.132 76.1326 110.365 74.9774 110.833 74.0561C111.308 73.1278 111.967 72.4333 112.81 71.9726C113.654 71.5049 114.635 71.271 115.755 71.271ZM115.776 73.5778C115.146 73.5778 114.621 73.7798 114.203 74.1837C113.792 74.5877 113.555 75.2219 113.491 76.0865H118.04C118.033 75.6046 117.945 75.1759 117.775 74.8003C117.612 74.4247 117.364 74.127 117.031 73.9073C116.705 73.6876 116.286 73.5778 115.776 73.5778Z" fill="black"/>
<path d="M40.9291 21.5332H18.0371C15.0564 21.5332 12.6421 23.9682 12.6421 26.9751V50.0592C12.6421 53.0633 15.0564 55.5001 18.0371 55.5001H40.9291C43.9098 55.5001 46.3222 53.0633 46.3222 50.0592V26.9751C46.3222 23.9682 43.9098 21.5332 40.9291 21.5332Z" fill="#1677FF"/>
<path d="M21.7429 47.655C16.5031 47.655 14.9536 43.492 17.5438 41.2157C18.4078 40.4455 19.987 40.0704 20.8284 39.9856C23.9407 39.6753 26.8222 40.873 30.2222 42.5469C27.8323 45.6908 24.7885 47.655 21.7429 47.655ZM40.3727 42.8625C39.0244 42.4071 37.2162 41.7109 35.2023 40.9758C36.4108 38.8546 37.3776 36.4395 38.0125 33.815H31.3739V31.4034H39.5069V30.0561H31.3739V26.0374H28.055C27.4724 26.0374 27.4724 26.6164 27.4724 26.6164V30.057H19.2474V31.4034H27.4724V33.815H20.6814V35.1606H33.8522C33.3876 36.7822 32.7518 38.3497 31.9556 39.8368C27.6808 38.4145 23.1209 37.262 20.2557 37.9708C18.424 38.4263 17.2435 39.2388 16.5509 40.0902C13.3682 43.9953 15.6508 49.925 22.3706 49.925C26.3433 49.925 30.1717 47.6911 33.1379 44.0088C37.5625 46.1552 46.3232 49.8375 46.3232 49.8375V44.5887C46.3232 44.5887 45.2229 44.5003 40.3727 42.8625Z" fill="white"/>
<path d="M85.7744 26.5067C85.7744 28.2636 87.0578 29.4468 88.8498 29.4468C90.6418 29.4468 91.9252 28.2636 91.9252 26.5067C91.9252 24.7833 90.6409 23.5667 88.8498 23.5667C87.0587 23.5667 85.7744 24.7833 85.7744 26.5067Z" fill="#1677FF"/>
<path d="M77.1934 48.9786H82.5324V24.3081H77.1934V48.9786ZM60.0589 40.428L63.2352 29.4451H63.3705L66.3782 40.428H60.0589ZM67.832 25.1532H60.6667L52.6573 48.9786H57.5914L58.9433 44.3151H67.4262L68.7095 48.9786H75.0298L67.832 25.1532ZM86.1823 48.9786H91.5213V30.8647H86.1823V48.9786ZM147.321 30.898L147.354 30.8647H142.319L139.142 41.8818H138.973L135.323 30.8647H129.341L136.54 49.0462L133.532 54.5891V54.7244H138.23L147.321 30.898ZM101.425 45.8699C100.806 45.8772 100.19 45.7858 99.6002 45.5993V35.7988C100.716 35.0214 101.629 34.6498 102.777 34.6498C104.771 34.6498 106.36 36.238 106.36 39.6173C106.36 43.9435 104.027 45.8699 101.425 45.8699ZM104.805 30.4931C102.845 30.4931 101.324 31.2362 99.6011 32.6558V30.8647H94.2603V54.7235H99.6002V48.81C100.614 49.0805 101.56 49.2158 102.71 49.2158C107.474 49.2158 111.767 45.7003 111.767 39.4486C111.767 33.839 108.657 30.4931 104.805 30.4931ZM122.954 44.5856C121.534 45.3621 120.723 45.667 119.778 45.667C118.493 45.667 117.682 44.8219 117.682 43.47C117.682 42.9632 117.784 42.4563 118.189 42.0505C118.831 41.4084 120.082 40.9358 122.954 40.2594V44.5856ZM128.293 44.4503V36.8801C128.293 32.7568 125.861 30.4931 121.569 30.4931C118.831 30.4931 116.939 30.9657 113.492 32.0136L114.437 36.1703C117.58 34.7508 118.966 34.142 120.42 34.142C122.177 34.142 122.954 35.3929 122.954 37.3193V37.4546C116.837 38.6036 114.945 39.2457 113.761 40.4289C112.883 41.3073 112.511 42.5573 112.511 44.0102C112.511 47.4914 115.215 49.3511 117.75 49.3511C119.642 49.3511 121.163 48.6404 123.225 47.0856L123.596 48.9795H128.935L128.293 44.4503Z" fill="black"/>
<rect x="1" y="1" width="158" height="97.9999" rx="7" stroke="#D8D8D8" stroke-width="2"/>
</svg>
