<svg width="160" height="100" viewBox="0 0 160 100" fill="none" xmlns="http://www.w3.org/2000/svg">
<rect x="1" y="1" width="158" height="97.9999" rx="7" fill="white"/>
<path d="M11.896 38.7625C11.896 38.5473 11.9535 38.3763 12.0655 38.2475C12.1795 38.1208 12.3479 38.0562 12.5739 38.0562H22.384C23.0888 38.0562 23.754 38.1528 24.379 38.3478C25.0024 38.5427 25.576 38.8114 26.0981 39.1539C26.6188 39.4969 27.091 39.9061 27.5114 40.384C27.9298 40.8583 28.2855 41.3728 28.5771 41.9265C28.8682 42.4782 29.0916 43.0599 29.2453 43.6686C29.399 44.2763 29.4754 44.8941 29.4754 45.518C29.4754 46.4402 29.3079 47.34 28.9771 48.2209C28.6438 49.1009 28.1695 49.8846 27.5567 50.5697C26.9424 51.2547 26.205 51.8109 25.3464 52.2343C24.4848 52.6603 23.5336 52.8786 22.4898 52.8878H17.8387V60.196C17.8387 60.6357 17.6036 60.854 17.1329 60.854H12.5739C12.3678 60.854 12.2044 60.8006 12.0818 60.6953C11.9586 60.5869 11.896 60.4199 11.896 60.196V38.7625ZM23.4578 45.4865C23.4578 45.1791 23.4044 44.8722 23.2965 44.5653C23.1881 44.259 23.0339 43.9841 22.8288 43.7444C22.6242 43.5042 22.3753 43.3073 22.0842 43.1531C21.7916 43.0004 21.4618 42.9225 21.0938 42.9225H17.8393V48.0505H21.0938C21.4618 48.0505 21.7936 47.9762 22.0913 47.8281C22.388 47.6794 22.6374 47.4886 22.8359 47.2535C23.0354 47.0168 23.1881 46.7466 23.297 46.4397C23.4044 46.1318 23.4578 45.8153 23.4578 45.4865Z" fill="#941F7F"/>
<path d="M38.5646 38.6566C38.5738 38.596 38.6069 38.5299 38.6639 38.4571C38.7199 38.3853 38.7906 38.3192 38.8715 38.2576C38.9524 38.195 39.041 38.1482 39.1336 38.112C39.2242 38.0764 39.3117 38.0586 39.3927 38.0586H43.3246C43.4977 38.0586 43.6458 38.112 43.7699 38.2194C43.8921 38.3273 43.9832 38.4215 44.0448 38.5044L44.428 39.3787L52.4889 60.1664C52.5713 60.3715 52.5546 60.5364 52.4421 60.6651C52.3311 60.7924 52.1362 60.857 51.8593 60.857H47.4546C47.2174 60.857 47.0362 60.8137 46.9095 60.7272C46.7808 60.6382 46.68 60.4936 46.6098 60.2885C46.4047 59.7674 46.2052 59.2478 46.0113 58.7307C45.8153 58.2136 45.6204 57.696 45.4265 57.1724H37.274C37.0801 57.696 36.8831 58.2141 36.6836 58.7307C36.4841 59.2473 36.2872 59.7669 36.0923 60.2885C35.9584 60.6677 35.6999 60.857 35.3101 60.857H30.7806C30.5857 60.857 30.4259 60.8051 30.2971 60.7038C30.1689 60.601 30.1449 60.4473 30.2289 60.2417L38.5646 38.6566ZM41.3592 45.2278C41.1642 45.75 40.9668 46.3129 40.7673 46.916C40.5678 47.5206 40.3708 48.1292 40.1759 48.7425C39.983 49.3578 39.7856 49.9634 39.5861 50.5624C39.3866 51.1619 39.1896 51.7218 38.9947 52.2439H43.7079L41.3592 45.2278Z" fill="#941F7F"/>
<path d="M59.2975 46.4712L63.005 38.5334C63.0656 38.4113 63.1175 38.3217 63.1577 38.2657C63.2 38.2087 63.2402 38.168 63.2809 38.1416C63.3216 38.1166 63.3659 38.1013 63.4107 38.0963C63.4575 38.0917 63.5109 38.08 63.5725 38.0586H69.4827C69.556 38.0586 69.6145 38.0825 69.6608 38.1278C69.7061 38.1736 69.729 38.2281 69.729 38.2886C69.729 38.4011 69.6572 38.5304 69.5158 38.6719L62.2381 51.5528V60.1363C62.2381 60.6158 62.003 60.8565 61.5332 60.8565H56.9381C56.734 60.8565 56.5778 60.7919 56.4638 60.6646C56.3518 60.5354 56.2954 60.3603 56.2954 60.1363V51.5233L49.034 38.6719C48.9011 38.5395 48.8345 38.4118 48.8345 38.2886C48.8345 38.2281 48.8558 38.1736 48.8961 38.1278C48.9373 38.0825 48.9928 38.0586 49.065 38.0586H54.9762C55.0469 38.08 55.1034 38.0917 55.1436 38.0963C55.1859 38.1013 55.2261 38.1166 55.2678 38.1416C55.3085 38.168 55.3487 38.2087 55.3895 38.2657C55.4317 38.3217 55.4877 38.4118 55.5589 38.5334L59.2975 46.4712Z" fill="#941F7F"/>
<path d="M71.8794 38.7315C71.8794 38.5473 71.9354 38.3885 72.0478 38.2562C72.1598 38.1218 72.3298 38.0567 72.5542 38.0567H77.5758C77.7173 38.0567 77.8669 38.0923 78.0206 38.1625C78.1743 38.2358 78.3066 38.3585 78.4196 38.532C79.7194 40.6298 81.0085 42.6965 82.288 44.7338C83.5679 46.771 84.8632 48.8388 86.1721 50.9366V38.6389C86.2128 38.4551 86.2933 38.3101 86.4179 38.2088C86.5406 38.107 86.6851 38.0562 86.8464 38.0562H91.2217C91.439 38.0562 91.6182 38.1132 91.7612 38.2317C91.9042 38.3498 91.9759 38.5162 91.9759 38.731V60.255C91.9759 60.4601 91.9149 60.6098 91.7917 60.708C91.668 60.8057 91.5001 60.8551 91.2853 60.8551H86.3874C86.2541 60.8551 86.1375 60.8082 86.0352 60.7151C85.9324 60.624 85.825 60.5019 85.7131 60.3477C84.3502 58.0957 83.0056 55.8696 81.6742 53.669C80.3449 51.4689 78.9937 49.2424 77.6221 46.9904V60.1782C77.6221 60.4031 77.5707 60.5726 77.4674 60.6856C77.3656 60.7981 77.1809 60.8551 76.9157 60.8551H72.5553C72.3201 60.8551 72.1491 60.7909 72.0412 60.6612C71.9338 60.5339 71.8804 60.3777 71.8804 60.1945V38.7315H71.8794Z" fill="#941F7F"/>
<path d="M128.01 60.5334C127.907 60.3594 127.81 60.1797 127.719 59.9965C127.628 59.8108 127.545 59.6265 127.474 59.4433C126.152 55.9628 124.838 52.5143 123.528 49.0953C122.218 45.6763 120.903 42.2278 119.58 38.7478C119.58 38.6959 119.573 38.6511 119.559 38.6094C119.543 38.5681 119.536 38.5279 119.536 38.4872C119.536 38.2007 119.725 38.0572 120.104 38.0572H125.048C125.438 38.0572 125.701 38.2521 125.846 38.6399L130.543 52.6257L134.888 38.6399C135.031 38.2521 135.312 38.0572 135.732 38.0572H140.724C140.957 38.0572 141.125 38.1004 141.221 38.1869C141.319 38.2735 141.368 38.389 141.368 38.5325C141.368 38.6134 141.362 38.6704 141.352 38.702V38.7473L138.619 46.5761L140.677 52.6094L145.652 38.6389C145.794 38.2511 146.075 38.0562 146.494 38.0562H151.332C151.566 38.0562 151.731 38.0994 151.83 38.1859C151.927 38.2724 151.976 38.388 151.976 38.5315C151.976 38.6124 151.972 38.6694 151.96 38.701V38.7463C151.265 40.5468 150.553 42.3434 149.827 44.1343C149.099 45.9252 148.37 47.7161 147.641 49.5065C146.906 51.2984 146.18 53.0934 145.459 54.8874C144.737 56.6844 144.033 58.4789 143.348 60.2683C143.308 60.3828 143.217 60.5065 143.072 60.6464C142.928 60.7843 142.755 60.8541 142.55 60.8541H142.504H138.788C138.563 60.8541 138.391 60.8098 138.274 60.7222C138.157 60.6357 138.072 60.5202 138.02 60.3767L135.595 53.9886C135.248 54.922 134.905 55.8345 134.567 56.7307C134.228 57.6264 133.891 58.5405 133.554 59.4703C133.503 59.6148 133.443 59.7639 133.376 59.9227C133.311 60.0825 133.231 60.2321 133.138 60.3685C133.046 60.5065 132.941 60.623 132.823 60.7141C132.707 60.8077 132.569 60.8541 132.417 60.8541H132.371H128.656C128.329 60.8561 128.112 60.7482 128.01 60.5334Z" fill="#941F7F"/>
<path fill-rule="evenodd" clip-rule="evenodd" d="M107.819 49.7977L114.293 41.0113L115.118 39.8882C115.281 39.6672 115.592 39.6185 115.807 39.7884C118.819 42.1668 120.753 45.8512 120.753 49.9872C120.753 57.1599 114.938 62.9744 107.766 62.9744C100.593 62.9744 94.7783 57.1599 94.7783 49.9872C94.7783 42.8146 100.593 37 107.766 37C109.85 37 111.821 37.4913 113.566 38.3644C113.835 38.4984 113.909 38.8416 113.732 39.0831L112.136 41.2544C111.993 41.4487 111.732 41.5113 111.511 41.4147C110.365 40.9129 109.098 40.6346 107.766 40.6346C102.601 40.6346 98.4135 44.8218 98.4135 49.9871C98.4135 55.1524 102.601 59.3397 107.766 59.3397C112.931 59.3397 117.119 55.1524 117.119 49.9871C117.119 48.4277 116.737 46.9573 116.062 45.6645L108.502 55.953C108.316 56.2065 107.944 56.2257 107.732 55.9926L107.29 55.505C107.285 55.4998 107.28 55.4946 107.275 55.4891L101.152 48.7662C100.982 48.5792 100.979 48.2941 101.146 48.1037L103.182 45.774C103.374 45.5546 103.712 45.5461 103.915 45.7557L107.819 49.7977Z" fill="url(#paint0_linear_39153_27469)"/>
<rect x="1" y="1" width="158" height="97.9999" rx="7" stroke="#D8D8D8" stroke-width="2"/>
<defs>
<linearGradient id="paint0_linear_39153_27469" x1="114.18" y1="43.6036" x2="103.349" y2="54.3653" gradientUnits="userSpaceOnUse">
<stop stop-color="#E83762"/>
<stop offset="1" stop-color="#9A1F81"/>
</linearGradient>
</defs>
</svg>
