<svg width="160" height="100" viewBox="0 0 160 100" fill="none" xmlns="http://www.w3.org/2000/svg">
<g clip-path="url(#clip0_39141_26925)">
<path d="M0 8C0 3.58172 3.58172 0 8 0H152C156.418 0 160 3.58172 160 8V92C160 96.4183 156.418 100 152 100H8C3.58172 100 0 96.4183 0 92V8Z" fill="white"/>
<path fill-rule="evenodd" clip-rule="evenodd" d="M152 2H8C4.68629 2 2 4.68629 2 8V92C2 95.3137 4.68629 98 8 98H152C155.314 98 158 95.3137 158 92V8C158 4.68629 155.314 2 152 2ZM8 0C3.58172 0 0 3.58172 0 8V92C0 96.4183 3.58172 100 8 100H152C156.418 100 160 96.4183 160 92V8C160 3.58172 156.418 0 152 0H8Z" fill="#DDDDD8"/>
<g clip-path="url(#clip1_39141_26925)">
<path d="M28.2503 55.2181C28.0489 55.3198 27.8222 55.3786 27.5812 55.3786C27.0233 55.3786 26.5385 55.0718 26.2839 54.6175L26.1864 54.4042L22.1249 45.4918C22.0811 45.3949 22.0539 45.2853 22.0539 45.1785C22.0539 44.7678 22.387 44.4351 22.7977 44.4351C22.9644 44.4351 23.1186 44.4903 23.2427 44.5825L28.0354 47.995C28.3855 48.2238 28.8039 48.3581 29.2536 48.3581C29.5221 48.3581 29.778 48.3082 30.0166 48.2213L52.5554 38.1901C48.5153 33.4288 41.8617 30.3169 34.3324 30.3169C22.0112 30.3169 12.0238 38.6401 12.0238 48.908C12.0238 54.5094 15.0286 59.5519 19.732 62.9602C20.1092 63.2296 20.3563 63.6722 20.3563 64.1717C20.3563 64.3369 20.3209 64.4876 20.2777 64.6452C19.9021 66.0464 19.3008 68.2904 19.2729 68.3956C19.226 68.5714 19.1528 68.7551 19.1528 68.9391C19.1528 69.3498 19.4856 69.6826 19.8969 69.6826C20.0581 69.6826 20.19 69.6225 20.3262 69.5442L25.2101 66.7243C25.5775 66.5126 25.9664 66.381 26.3951 66.381C26.623 66.381 26.8433 66.4164 27.0505 66.4797C29.3288 67.1351 31.7871 67.4992 34.3325 67.4992C46.653 67.4992 56.6418 59.1755 56.6418 48.908C56.6418 45.798 55.7201 42.8691 54.1004 40.2926L28.4137 55.1239L28.2503 55.2181Z" fill="#1AAD19"/>
<path d="M75.2737 62.2341L75.1024 62.8417C74.9595 63.3484 74.833 63.796 74.724 64.2381C74.5847 63.586 74.3922 62.8572 74.2188 62.2143L73.0712 57.8856L73.051 57.8088H72.2985L71.0146 62.2427C70.7848 62.9926 70.5811 63.6694 70.4382 64.2618C70.3282 63.7935 70.1956 63.2712 70.0571 62.7231L68.8119 57.8856L68.7911 57.8088H67.9228L70.009 65.7082L70.0292 65.7856H70.7695L72.1111 61.26C72.3451 60.4886 72.5216 59.8822 72.6489 59.3521C72.7631 59.9116 72.9219 60.5264 73.1204 61.2546L74.2802 65.7088L74.3003 65.7856H75.0516L77.4022 57.9421L77.4427 57.8088H76.5698L75.2737 62.2341Z" fill="#514F4F"/>
<path d="M80.1784 59.8933C78.6174 59.8933 77.5685 61.1435 77.5685 63.0047C77.5685 64.736 78.6541 65.8996 80.2698 65.8996C81.2853 65.8996 81.8621 65.6391 82.0632 65.5279L82.1866 65.4588L81.8209 64.8252L81.7343 64.8649C81.4488 64.9972 81.0598 65.1324 80.3383 65.1324C79.1552 65.1324 78.4538 64.3543 78.4056 62.9954H82.4064L82.4326 62.8774C82.4582 62.7586 82.4582 62.6721 82.4582 62.5149C82.4582 62.3016 82.4287 61.5558 82.0429 60.9079C81.6429 60.2345 81.0156 59.8933 80.1784 59.8933ZM78.451 62.2623C78.6624 61.0741 79.4424 60.6487 80.1097 60.6487C80.5342 60.6487 80.8741 60.7763 81.1225 61.029C81.4891 61.4011 81.5719 61.9403 81.5866 62.2623H78.451Z" fill="#514F4F"/>
<path d="M88.9013 64.8146H88.9006C88.4691 65.0132 87.864 65.1323 87.2818 65.1323C85.3434 65.1323 84.1858 63.9071 84.1858 61.8545C84.1858 59.7232 85.3772 58.4509 87.3732 58.4509C87.925 58.4509 88.4496 58.5548 88.8513 58.7437L88.9376 58.7842L89.3273 58.1078L89.2109 58.0439C89.0568 57.9592 88.4687 57.6833 87.3615 57.6833C84.942 57.6833 83.3164 59.3549 83.3164 61.8426C83.3164 64.8367 85.3544 65.8999 87.0998 65.8999C88.083 65.8999 88.8496 65.6911 89.2399 65.4965L89.3669 65.4325L88.9872 64.775L88.9013 64.8146Z" fill="#514F4F"/>
<path d="M92.8429 59.8932C92.4161 59.8932 92.0069 60.0105 91.6632 60.2317C91.4654 60.3451 91.2815 60.5016 91.1246 60.6888V57.6836H90.2781V65.7856H91.1246V62.2987C91.1246 62.0893 91.1341 61.9547 91.1846 61.8014C91.4217 61.1362 92.0432 60.6713 92.695 60.6713C93.8727 60.6713 94.0485 61.7547 94.0485 62.401V65.7855H94.8952V62.3443C94.8949 60.0111 93.1853 59.8932 92.8429 59.8932Z" fill="#514F4F"/>
<path d="M102.453 58.7903H101.606V60.0715H100.683V60.7629H101.606V64.0642C101.606 64.7217 101.729 65.1814 101.979 65.466C102.206 65.7566 102.57 65.9109 103.031 65.9109C103.352 65.9109 103.629 65.861 103.855 65.7619L103.991 65.7022L103.636 65.0864L103.562 65.1027C103.434 65.1298 103.279 65.1442 103.101 65.1442C102.647 65.1442 102.453 64.8517 102.453 64.1667V60.7631H104.013V60.0717H102.453V58.7903Z" fill="#514F4F"/>
<path d="M109.546 57.7522C108.985 57.7522 108.42 57.8031 107.868 57.9021L107.745 57.9244V65.786H108.591V62.5448C108.819 62.5871 109.072 62.5966 109.376 62.5966C110.391 62.5966 111.231 62.2751 111.742 61.6935C112.127 61.27 112.316 60.7338 112.316 60.0546C112.316 59.3913 112.095 58.8347 111.678 58.4441C111.215 57.9918 110.478 57.7522 109.546 57.7522ZM108.591 58.5734C108.757 58.5456 109.068 58.5079 109.523 58.5079C110.76 58.5079 111.469 59.0922 111.469 60.1117C111.469 61.2107 110.722 61.8408 109.421 61.8408C109.169 61.8408 108.85 61.8319 108.591 61.7653V58.5734H108.591Z" fill="#514F4F"/>
<path d="M121.64 60.0186L120.272 63.6565C120.162 63.9423 120.065 64.2268 119.984 64.4688C119.897 64.204 119.801 63.9323 119.708 63.6891L118.273 60.1129L118.236 60.0186H117.331L119.441 65.2924C119.498 65.436 119.499 65.4747 119.499 65.4762C119.499 65.5124 119.47 65.5893 119.442 65.6572C119.17 66.3029 118.814 66.7361 118.565 66.9854C118.222 67.3156 117.851 67.4853 117.66 67.5566L117.507 67.6129L117.907 68.3054L117.989 68.2744C118.133 68.2195 118.514 68.0544 118.938 67.6964C119.667 67.0612 120.127 66.0958 120.825 64.3025L122.49 60.1605L122.549 60.0186H121.64Z" fill="#514F4F"/>
<path d="M100.019 64.337V62.1963C100.019 60.6893 99.3133 59.8931 97.9781 59.8931C97.3886 59.8931 96.7566 60.0768 96.2908 60.3837L96.2033 60.4364L96.5707 61.0723L96.663 61.0105C97.0055 60.7774 97.4526 60.6483 97.9213 60.6483H97.9405C98.3171 60.6483 98.6099 60.7494 98.8107 60.949C99.0536 61.1894 99.1714 61.5669 99.172 62.1017C97.8642 62.1062 96.92 62.3863 96.3652 62.9366C96.013 63.2848 95.8351 63.7294 95.8351 64.2575C95.8351 65.0537 96.3847 65.9111 97.5911 65.9111C98.4324 65.9111 98.9707 65.5044 99.2528 65.2063L99.3113 65.7858H100.124L100.096 65.6122C100.028 65.1905 100.019 64.7503 100.019 64.337ZM97.0111 63.3934C97.3797 63.036 98.0717 62.855 99.0678 62.855L99.1707 62.8557L99.1723 63.8815C99.1723 63.9534 99.164 64.0601 99.1236 64.1631C98.9597 64.6433 98.4865 65.1554 97.6483 65.1554C97.2129 65.1554 96.7047 64.8958 96.7047 64.1667C96.7045 63.8514 96.8075 63.5915 97.0111 63.3934Z" fill="#514F4F"/>
<path d="M116.702 64.337V62.1963C116.702 60.6893 115.997 59.8931 114.662 59.8931C114.106 59.8931 113.499 60.0619 113.04 60.3441L112.955 60.3977L113.318 61.0266L113.409 60.9699C113.743 60.7628 114.167 60.6483 114.605 60.6483H114.625C115 60.6483 115.293 60.7494 115.494 60.9487C115.737 61.1894 115.855 61.5669 115.855 62.102C114.549 62.1062 113.604 62.3869 113.049 62.9363C112.697 63.2848 112.519 63.7291 112.519 64.2578C112.519 65.0537 113.068 65.9111 114.274 65.9111C115.116 65.9111 115.655 65.5047 115.937 65.2063L115.994 65.7858H116.808L116.78 65.6122C116.711 65.189 116.702 64.7497 116.702 64.337ZM115.855 63.8815C115.855 63.9541 115.847 64.0612 115.807 64.1634C115.643 64.6426 115.169 65.1554 114.331 65.1554C113.896 65.1554 113.388 64.8961 113.388 64.1667C113.388 63.8514 113.491 63.5914 113.695 63.3934C114.063 63.036 114.755 62.855 115.751 62.855L115.855 62.8557L115.855 63.8815Z" fill="#514F4F"/>
<path d="M106.513 40.7161H95.2618V41.7255H106.513V40.7161Z" fill="#514F4F"/>
<path d="M106.513 43.8674H95.2618V44.9552H106.513V43.8674Z" fill="#514F4F"/>
<path d="M95.547 53.1893H106.229V47.0989H95.547V53.1893ZM96.6345 48.1074H105.14V52.179H96.6345V48.1074Z" fill="#514F4F"/>
<path d="M92.1732 53.8214V39.8097C92.8113 38.4351 93.3758 36.9535 93.8368 35.453L92.8307 34.8711C91.8375 38.3716 90.3814 41.5529 88.5548 44.2149L89.1548 45.2462C89.788 44.3099 90.4564 43.2087 91.0856 42.0546V53.8214H92.1732Z" fill="#514F4F"/>
<path d="M133.511 53.8214V39.8097C134.15 38.4351 134.714 36.9535 135.175 35.453L134.169 34.8711C133.176 38.3716 131.72 41.5529 129.893 44.2149L130.493 45.2462C131.126 44.3099 131.795 43.2087 132.424 42.0546V53.8214H133.511Z" fill="#514F4F"/>
<path d="M107.695 37.4853H101.085L101.785 37.0825L101.811 37.0675L101.799 37.0419C101.719 36.8542 101.508 36.4128 101.284 35.9451C101.077 35.5094 100.863 35.0593 100.76 34.8284L100.746 34.7961L99.7434 35.3747L99.7584 35.4019C100.117 36.0777 100.425 36.6959 100.702 37.2953C100.74 37.3761 100.765 37.4403 100.774 37.4854H94.1583V38.5738H107.695V37.4853Z" fill="#514F4F"/>
<path d="M78.5299 36.6592H77.5211V40.2058H75.6151V35.1624H74.6059V40.2058H72.6208V36.6592H71.612V41.215H78.5299V36.6592Z" fill="#514F4F"/>
<path d="M78.0574 43.199H71.9271V44.2084H78.0574V43.199Z" fill="#514F4F"/>
<path d="M73.2512 48.1165V47.2028H76.3392V49.4545C76.3012 50.2402 76.2622 50.4794 75.9921 50.8549L75.9796 50.8719L76.5997 51.9453L76.6291 51.9219C77.1719 51.4868 78.0989 50.6922 79.3834 49.5612L79.4029 49.5449L78.916 48.7013L78.8965 48.6681L77.3487 49.9956V46.1936H72.1636V47.7252C72.3104 49.8215 71.7867 51.3218 70.6078 52.1818L70.5852 52.1982L71.1464 53.172L71.1653 53.2046L71.1943 53.1805C72.6632 51.9714 73.3557 50.2666 73.2512 48.1165Z" fill="#514F4F"/>
<path d="M66.6273 39.9303L67.236 40.9849C68.8021 39.4175 70.1393 37.5346 71.1315 35.4993L70.1906 34.9548C69.2181 36.9392 67.9973 38.6449 66.6273 39.9303Z" fill="#514F4F"/>
<path d="M66.3516 46.2695L66.9107 47.2381L66.933 47.2777L66.962 47.2432C67.5583 46.5476 68.1415 45.8137 68.6963 45.0611V53.8211H69.7054V43.3975C70.1619 42.5852 70.6037 41.6783 71.0174 40.7004L71.0277 40.6755L70.0521 40.1128L70.0384 40.1473C69.1055 42.4799 67.8693 44.5341 66.3666 46.2523L66.3516 46.2695Z" fill="#514F4F"/>
<path d="M82.1997 47.482C81.5354 45.7679 81.0422 43.4372 80.7326 40.5537C80.8334 40.2517 80.9615 39.9435 81.1141 39.6375H83.8182C83.6097 42.9267 83.0647 45.5655 82.1997 47.482ZM85.9317 39.6375V38.6281H81.4527H81.4534C81.8412 37.4565 82.287 36.0934 82.4369 34.9259L81.3836 34.9243C80.7286 37.995 79.7289 40.6598 78.441 42.7618L79.0784 43.8653L79.5461 42.9305C79.7219 42.6228 79.8642 42.3629 79.9715 42.1557C80.2871 44.876 80.8381 47.0649 81.6098 48.6645C80.8688 49.946 79.7289 51.2769 78.221 52.6211L78.2019 52.6378L78.783 53.6451L78.804 53.6793L78.8324 53.6521C80.4295 52.1561 81.5349 50.846 82.1196 49.7573C82.7854 50.9436 83.9127 52.3802 85.2226 53.7097L85.2513 53.739L85.8491 52.7058L85.8613 52.6835L85.8434 52.6662C84.439 51.3252 83.3254 49.9331 82.7064 48.7458C83.8502 46.6557 84.564 43.5914 84.8276 39.6374H85.9317V39.6375Z" fill="#514F4F"/>
<path d="M142.42 52.4254C142.198 52.4254 141.99 52.4242 141.791 52.423V53.5104C142.222 53.5104 142.535 53.5065 142.741 53.5065C143.807 53.5065 144.391 53.2783 144.847 52.8225C145.289 52.3791 145.501 51.7011 145.475 50.8098V40.7021H148.399V39.6174H145.475V34.9553H144.385V39.6174H135.409V40.7021H144.385V50.8126C144.385 51.9108 143.703 52.4254 142.42 52.4254Z" fill="#514F4F"/>
<path d="M139.986 48.8269L141.067 48.1965C140.489 47.0188 139.714 45.4568 138.756 43.5378L137.771 44.1132C138.434 45.4081 139.175 46.9872 139.986 48.8269Z" fill="#514F4F"/>
<path d="M122.169 46.4854C121.47 47.2821 120.593 48.185 119.33 49.0878C116.251 46.7575 114.928 44.2055 114.478 43.1349H124.257C124.014 43.7871 123.431 45.0448 122.169 46.4854ZM128.618 38.5675V37.4919H120.059V34.7634H118.957V37.4919H110.397V38.5675H118.957V42.1516H113.392L113.392 42.9009V43.0051C113.405 43.0399 113.422 43.0831 113.443 43.1349C113.777 43.9752 115.159 46.9745 118.443 49.683C116.676 50.7795 114.252 51.8404 110.771 52.6725L111.406 53.7731C114.733 52.966 117.308 51.7186 119.297 50.3475C121.231 51.7656 123.984 53.0404 127.187 53.7901L127.722 52.8008C124.659 52.0582 122.024 50.9339 120.183 49.6996C123.536 47.0994 124.941 44.2421 125.379 43.1349C125.483 42.8722 125.533 42.7065 125.541 42.6681L124.647 42.1516H120.059V38.5675H128.618Z" fill="#514F4F"/>
</g>
</g>
<defs>
<clipPath id="clip0_39141_26925">
<rect width="160" height="100" rx="8" fill="white"/>
</clipPath>
<clipPath id="clip1_39141_26925">
<rect width="156" height="78" fill="white" transform="translate(2 11)"/>
</clipPath>
</defs>
</svg>
