<svg width="24" height="24" viewBox="0 0 24 24" fill="none" xmlns="http://www.w3.org/2000/svg">
<rect width="24" height="24" rx="12" fill="#EFF3FF"/>
<mask id="mask0_390_12196" style="mask-type:alpha" maskUnits="userSpaceOnUse" x="0" y="0" width="24" height="24">
<rect width="24" height="24" rx="12" fill="#EFF3FF"/>
</mask>
<g mask="url(#mask0_390_12196)">
<path d="M16.6667 8.01018C16.6667 10.5861 14.5779 12.6769 12 12.6769C9.42216 12.6769 7.33337 10.5881 7.33337 8.01018C7.33337 5.43231 9.42217 3.34351 12 3.34351C14.576 3.34351 16.6667 5.43231 16.6667 8.01018Z" fill="#C2D4FF"/>
<path d="M16.1308 12.996C14.9765 13.9083 13.545 14.413 12.0411 14.413C10.5206 14.413 9.07463 13.8959 7.91618 12.967C4.8608 14.0903 3.49548 18.0104 3.49548 19.8019V21.1166L12.0411 23.9999L20.504 21.1166V19.8019C20.504 18.027 19.1283 14.1338 16.1308 12.996Z" fill="#B5CAFF"/>
<circle cx="12" cy="12" r="11" stroke="#EFF3FF" stroke-width="2"/>
</g>
</svg>
