<svg width="18" height="18" viewBox="0 0 18 18" fill="none" xmlns="http://www.w3.org/2000/svg">
<path fill-rule="evenodd" clip-rule="evenodd" d="M1.48438 5.21973C1.48438 3.35577 2.99541 1.84473 4.85938 1.84473H13.1394C15.0033 1.84473 16.5144 3.35577 16.5144 5.21973C16.5144 7.08369 15.0033 8.59473 13.1394 8.59473H11.699C11.3262 8.59473 11.024 8.29252 11.024 7.91973C11.024 7.54693 11.3262 7.24473 11.699 7.24473H13.1394C14.2578 7.24473 15.1644 6.3381 15.1644 5.21973C15.1644 4.10135 14.2578 3.19473 13.1394 3.19473H4.85938C3.741 3.19473 2.83437 4.10135 2.83437 5.21973C2.83437 6.3381 3.516 7.24473 4.63437 7.24473H4.72402C5.09682 7.24473 5.39902 7.54693 5.39902 7.91973C5.39902 8.29252 5.09682 8.59473 4.72402 8.59473H4.63437C2.77041 8.59473 1.48438 7.08369 1.48438 5.21973Z" fill="#242833"/>
<path fill-rule="evenodd" clip-rule="evenodd" d="M6.3491 7.01996C6.3491 5.95129 7.21542 5.08496 8.28409 5.08496C9.35277 5.08496 10.2191 5.95129 10.2191 7.01996V10.7407H13.8608C14.6313 10.7407 15.2559 11.3654 15.2558 12.1359L15.2553 15.6567C15.2552 16.4271 14.6307 17.0516 13.8603 17.0516H7.38447C6.76916 17.1214 6.11779 16.8945 5.68002 16.3595L3.54211 13.7468C2.86377 12.9178 2.98976 11.6951 3.82291 11.0218C4.57925 10.4107 5.65674 10.464 6.3491 11.1069V7.01996ZM6.3492 12.8789C6.34918 12.8764 6.34917 12.874 6.34917 12.8716L6.3492 12.8789ZM8.28409 6.43496C7.96101 6.43496 7.6991 6.69687 7.6991 7.01996V12.8582L7.69913 12.8647C7.70278 13.2116 7.47139 13.4488 7.24378 13.5378C7.01229 13.6283 6.66161 13.6101 6.4295 13.3229L5.48867 12.1586C5.28695 11.909 4.92105 11.8701 4.67141 12.0719C4.42069 12.2745 4.38278 12.6424 4.58691 12.8919L6.72481 15.5046C6.85815 15.6676 7.0556 15.7353 7.24782 15.7082L7.29477 15.7016H13.8603C13.8852 15.7016 13.9053 15.6814 13.9053 15.6566L13.9058 12.1357C13.9058 12.1109 13.8856 12.0907 13.8608 12.0907H9.58009C9.18742 12.0907 8.8691 11.7724 8.8691 11.3797V7.01996C8.8691 6.69687 8.60718 6.43496 8.28409 6.43496Z" fill="#242833"/>
</svg>
