<svg xmlns="http://www.w3.org/2000/svg" width="20" height="21" viewBox="0 0 20 21" fill="none"><path d="M3.2227 9.14651C4.11609 5.81235 7.54319 3.83371 10.8774 4.72709C12.3527 5.1224 13.5612 6.01242 14.3745 7.17194L15.6025 6.31055C14.5944 4.87344 13.0936 3.76802 11.2656 3.27821C7.13122 2.17041 2.88161 4.62392 1.77381 8.75828C0.666012 12.8926 3.11953 17.1423 7.25389 18.2501C11.3883 19.3579 15.6379 16.9043 16.7457 12.77C16.9209 12.1161 17.007 11.4586 17.0113 10.8106L17.8171 11.6165L18.7655 10.6681L16.2365 8.139L13.7068 10.6682L14.6552 11.6166L15.5115 10.7603C15.5114 11.2952 15.4421 11.8393 15.2968 12.3817C14.4034 15.7159 10.9763 17.6946 7.64212 16.8012C4.30795 15.9078 2.32931 12.4807 3.2227 9.14651Z" fill="#474F5E"></path><path d="M7.79785 7.27393H9.29785V10.6162H11.7979V12.1162H7.79785V7.27393Z" fill="#474F5E"></path></svg>