<svg xmlns="http://www.w3.org/2000/svg" width="20" height="21" viewBox="0 0 20 21" fill="none"><path d="M9.23207 7.61552C9.21462 7.17931 9.56354 6.81616 10.0001 6.81616C10.4367 6.81616 10.7856 7.17931 10.7681 7.61552L10.6241 11.2166C10.6107 11.5516 10.3353 11.8162 10.0001 11.8162C9.66492 11.8162 9.38951 11.5516 9.37612 11.2166L9.23207 7.61552Z" fill="#474F5E"></path><path d="M10.9001 13.5162C10.9001 14.0133 10.4972 14.4162 10.0001 14.4162C9.50304 14.4162 9.1001 14.0133 9.1001 13.5162C9.1001 13.0192 9.50304 12.6162 10.0001 12.6162C10.4972 12.6162 10.9001 13.0192 10.9001 13.5162Z" fill="#474F5E"></path><path d="M10.6696 2.54004C10.2743 2.21061 9.70229 2.21061 9.30697 2.54004L9.30578 2.54104C8.73174 3.02143 6.70821 4.50134 3.56856 4.58716C3.0145 4.60099 2.5293 5.04682 2.5293 5.64551V11.9775C2.5293 13.7284 3.80249 15.4622 5.22157 16.6936C5.95283 17.3282 6.7702 17.8725 7.57954 18.2613C8.37905 18.6453 9.22039 18.9014 9.98828 18.9014C10.7421 18.9014 11.5762 18.6437 12.3701 18.2608C13.1751 17.8725 13.9936 17.3289 14.7284 16.6951C15.4623 16.0621 16.1314 15.3228 16.6219 14.5337C17.1092 13.7497 17.4473 12.8721 17.4473 11.9775V5.64856C17.4512 5.04436 16.9605 4.6009 16.4099 4.58716C13.2686 4.50134 11.2465 3.02138 10.6696 2.54004ZM4.0293 6.0677C7.02456 5.87941 9.08564 4.60003 9.98853 3.91417C10.8913 4.59917 12.9507 5.87886 15.9473 6.06759V11.9775C15.9473 12.5 15.7453 13.1026 15.3479 13.7418C14.9537 14.376 14.3934 15.0031 13.7487 15.5593C13.1047 16.1147 12.3953 16.5832 11.7184 16.9097C11.0305 17.2415 10.4288 17.4014 9.98828 17.4014C9.52863 17.4014 8.91758 17.2399 8.229 16.9092C7.55023 16.5831 6.8438 16.1154 6.2047 15.5608C4.88305 14.4138 4.0293 13.0607 4.0293 11.9775V6.0677Z" fill="#474F5E"></path></svg>