<svg width="18" height="18" viewBox="0 0 18 18" fill="none" xmlns="http://www.w3.org/2000/svg">
<g clip-path="url(#clip0_8993_93774)">
<path d="M9.77545 7.90763H11.3261L11.0784 9.52431H9.77545V13.4316C9.4908 13.4756 9.19907 13.4992 8.90184 13.4992C8.60461 13.4992 8.31288 13.4764 8.02823 13.4316V9.52431H6.60813V7.90763H8.02823V6.67546C8.02823 5.27344 8.86331 4.4997 10.1403 4.4997C10.7521 4.4997 11.3921 4.60899 11.3921 4.60899V5.98506H10.6868C9.99168 5.98506 9.77545 6.41675 9.77545 6.85867V7.90763Z" fill="#7A8499"/>
<path fill-rule="evenodd" clip-rule="evenodd" d="M8.9995 17.099C13.4727 17.099 17.099 13.4727 17.099 8.99944C17.099 4.52619 13.4727 0.899902 8.9995 0.899902C4.52625 0.899902 0.899963 4.52619 0.899963 8.99944C0.899963 13.4727 4.52625 17.099 8.9995 17.099ZM8.9995 2.24982C12.7272 2.24982 15.7491 5.27173 15.7491 8.99944C15.7491 12.7271 12.7272 15.749 8.9995 15.749C5.27179 15.749 2.24989 12.7271 2.24989 8.99944C2.24989 5.27173 5.27179 2.24982 8.9995 2.24982Z" fill="#7A8499"/>
</g>
<defs>
<clipPath id="clip0_8993_93774">
<rect width="18" height="18" fill="white"/>
</clipPath>
</defs>
</svg>
