<svg width="1em" height="1em" viewBox="0 0 20 20" xmlns="http://www.w3.org/2000/svg" fill="currentColor" data-icon="SLIconGlobe"><path d="M18.75 10a8.75 8.75 0 1 1-17.5 0 8.75 8.75 0 0 1 17.5 0ZM9.159 3.168c-.327.316-.655.808-.947 1.476-.513 1.174-.869 2.783-.946 4.606h5.468c-.077-1.823-.433-3.432-.946-4.606-.292-.668-.62-1.16-.947-1.476-.323-.312-.606-.418-.841-.418s-.518.106-.841.418ZM5.765 9.25c.078-1.996.465-3.817 1.073-5.207a8.15 8.15 0 0 1 .364-.733 7.256 7.256 0 0 0-4.414 5.94h2.977Zm-2.977 1.5a7.256 7.256 0 0 0 4.414 5.94 8.143 8.143 0 0 1-.364-.733c-.608-1.39-.995-3.211-1.073-5.207H2.788Zm4.478 0c.077 1.823.433 3.432.946 4.606.292.667.62 1.16.947 1.476.323.312.606.418.841.418s.518-.106.841-.418c.327-.316.655-.809.947-1.476.513-1.174.869-2.783.946-4.606H7.266Zm6.97 0c-.079 1.996-.466 3.817-1.074 5.207a8.152 8.152 0 0 1-.364.733 7.256 7.256 0 0 0 4.414-5.94h-2.977Zm2.976-1.5a7.256 7.256 0 0 0-4.414-5.94c.13.231.252.476.364.733.608 1.39.995 3.211 1.073 5.207h2.977Z"></path></svg>