<svg width="18" height="18" viewBox="0 0 18 18" fill="none" xmlns="http://www.w3.org/2000/svg">
<g clip-path="url(#clip0_8993_93773)">
<path d="M9.18673 4.34106C8.5749 4.34081 7.96902 4.46113 7.40371 4.69514C6.83836 4.92917 6.32468 5.27232 5.89201 5.70498C5.45935 6.13764 5.1162 6.65133 4.88217 7.21668C4.64817 7.78196 4.52786 8.3878 4.5281 8.99959C4.52791 9.61139 4.64827 10.2173 4.88232 10.7826C5.11638 11.3479 5.45954 11.8615 5.8922 12.2941C6.32485 12.7267 6.83852 13.0698 7.40383 13.3038C7.96911 13.5378 8.57495 13.6581 9.18673 13.6579C10.4311 13.6579 11.4927 13.244 12.2744 12.5223C13.1684 11.6989 13.6715 10.4973 13.6715 9.09822C13.6715 8.89088 13.6597 8.68792 13.6371 8.48987L13.6045 8.20448H8.87444V9.81423H11.9867C11.6709 11.1242 10.594 12.0679 9.19639 12.0679C8.79474 12.0679 8.39702 11.9888 8.02594 11.8351C7.65486 11.6814 7.31769 11.4561 7.03368 11.1721C6.74967 10.8881 6.52438 10.5509 6.37067 10.1798C6.21696 9.80873 6.13785 9.41101 6.13785 9.00936C6.13785 8.6077 6.21696 8.20998 6.37067 7.83891C6.52438 7.46783 6.74967 7.13066 7.03368 6.84664C7.31769 6.56263 7.65486 6.33734 8.02594 6.18364C8.39702 6.02993 8.79474 5.95082 9.19639 5.95082C9.9824 5.95082 10.6583 6.24641 11.1584 6.72966L11.3859 6.9495L12.5517 5.78448L12.3076 5.55704C11.4994 4.80393 10.4399 4.3411 9.18673 4.34106Z" fill="#7A8499"/>
<path d="M17.099 8.99944C17.099 13.4727 13.4727 17.099 8.99949 17.099C4.52625 17.099 0.899963 13.4727 0.899963 8.99944C0.899963 4.52619 4.52625 0.899902 8.99949 0.899902C13.4727 0.899902 17.099 4.52619 17.099 8.99944ZM15.7491 8.99944C15.7491 5.27173 12.7272 2.24983 8.99949 2.24983C5.27179 2.24983 2.24989 5.27173 2.24989 8.99944C2.24989 12.7271 5.27179 15.7491 8.99949 15.7491C12.7272 15.7491 15.7491 12.7271 15.7491 8.99944Z" fill="#7A8499"/>
</g>
<defs>
<clipPath id="clip0_8993_93773">
<rect width="18" height="18" fill="white"/>
</clipPath>
</defs>
</svg>
