<svg width="1em" height="1em" viewBox="0 0 20 20" xmlns="http://www.w3.org/2000/svg" fill="currentColor" data-icon="SLIconImage" style="font-size: 24px; margin-right: 6px; color: rgb(215, 219, 231);"><path d="M5 7a1 1 0 1 0 2 0 1 1 0 0 0-2 0Z"></path><path d="M2.25 4.5c0-.69.56-1.25 1.25-1.25h13c.69 0 1.25.56 1.25 1.25v11c0 .69-.56 1.25-1.25 1.25h-13c-.69 0-1.25-.56-1.25-1.25v-11Zm1.5 9.795v.955h12.5v-3.002l-3.23-3.23-3.364 3.617a1.25 1.25 0 0 1-1.788.044L6.497 11.34 3.75 14.295Zm0-2.203 1.823-1.96a1.25 1.25 0 0 1 1.788-.044l1.371 1.338 3.366-3.62a1.25 1.25 0 0 1 1.799-.032l2.353 2.353V4.75H3.75v7.342Z"></path></svg>