<svg width="18" height="18" viewBox="0 0 18 18" fill="none" xmlns="http://www.w3.org/2000/svg">
<path d="M14.7303 11.3601L14.7245 11.3665L14.7189 11.3731C13.9425 12.2662 12.6472 13.2944 11.4042 14.1608C10.4936 14.7955 9.66528 15.306 9.1475 15.5935L9.15652 15.5391L9.15952 15.521L9.16031 15.5162L9.16051 15.515L9.16056 15.5147L9.16058 15.5146L9.16058 15.5146L9.16259 15.5025L9.1642 15.4904C9.17949 15.3748 9.19773 15.2083 9.19811 15.0316C9.19846 14.869 9.18494 14.6263 9.09246 14.3929L9.09247 14.3929L9.09093 14.3891C8.93945 14.0129 8.61627 13.8221 8.4323 13.7335C8.22377 13.6331 8.00514 13.5751 7.84846 13.5413L7.81884 13.535L7.7888 13.531C4.19336 13.0554 1.75 10.5896 1.75 7.86941C1.75 4.84306 4.8486 2.12744 8.99963 2.12744C13.1508 2.12744 16.25 4.84314 16.25 7.86941V7.87091C16.25 9.07942 15.7917 10.1946 14.7303 11.3601Z" stroke="#242833" stroke-width="1.5"/>
<path d="M6.78909 6.01611C6.75 6.01611 6.71251 6.03164 6.68487 6.05928C6.65723 6.08692 6.6417 6.12441 6.6417 6.1635V9.5992C6.6417 9.63829 6.65723 9.67578 6.68487 9.70342C6.71251 9.73106 6.75 9.74659 6.78909 9.74659H7.34697C7.38606 9.74659 7.42355 9.73106 7.45119 9.70342C7.47883 9.67578 7.49436 9.63829 7.49436 9.5992V6.16572C7.49436 6.12663 7.47883 6.08914 7.45119 6.06149C7.42355 6.03385 7.38606 6.01832 7.34697 6.01832V6.01611H6.78909ZM6.01574 9.75183C6.05483 9.75183 6.09232 9.7363 6.11996 9.70866C6.1476 9.68102 6.16313 9.64353 6.16313 9.60444V9.04656C6.16313 9.00747 6.1476 8.96998 6.11996 8.94234C6.09232 8.9147 6.05483 8.89917 6.01574 8.89917H4.51235V6.17243C4.51235 6.13334 4.49682 6.09585 4.46918 6.06821C4.44153 6.04057 4.40404 6.02504 4.36495 6.02504H3.80413C3.76504 6.02504 3.72755 6.04057 3.69991 6.06821C3.67227 6.09585 3.65674 6.13334 3.65674 6.17243V9.59855C3.65674 9.63764 3.67227 9.67513 3.69991 9.70277C3.72755 9.73041 3.76504 9.74594 3.80413 9.74594H6.015L6.01574 9.75183ZM14.2999 9.70849C14.3275 9.68085 14.3431 9.64336 14.3431 9.60427V9.04639C14.3431 9.0073 14.3275 8.96981 14.2999 8.94217C14.2722 8.91453 14.2348 8.899 14.1957 8.899H12.693V8.31901H14.1957C14.2348 8.31901 14.2722 8.30349 14.2999 8.27584C14.3275 8.2482 14.3431 8.21071 14.3431 8.17162V7.61301C14.3431 7.57392 14.3275 7.53643 14.2999 7.50879C14.2722 7.48115 14.2348 7.46562 14.1957 7.46562H12.693V6.88563H14.1957C14.2348 6.88563 14.2722 6.8701 14.2999 6.84246C14.3275 6.81482 14.3431 6.77733 14.3431 6.73824V6.17963C14.3431 6.14054 14.3275 6.10305 14.2999 6.0754C14.2722 6.04776 14.2348 6.03223 14.1957 6.03223H11.9848C11.9457 6.03223 11.9082 6.04776 11.8806 6.0754C11.8529 6.10305 11.8374 6.14054 11.8374 6.17963V9.59837C11.8374 9.63746 11.8529 9.67495 11.8806 9.70259C11.9082 9.73024 11.9457 9.74576 11.9848 9.74576H14.1957V9.75166C14.2348 9.75166 14.2722 9.73613 14.2999 9.70849ZM11.1467 6.01611H10.5888C10.5497 6.01611 10.5122 6.03164 10.4846 6.05928C10.457 6.08692 10.4414 6.12441 10.4414 6.1635V8.20414L8.86951 6.0817C8.86574 6.07623 8.86155 6.07105 8.85698 6.06623L8.84814 6.05738L8.84003 6.05075H8.83561L8.82824 6.04486H8.82308L8.81497 6.04043H8.19003C8.15094 6.04043 8.11345 6.05596 8.08581 6.0836C8.05817 6.11124 8.04264 6.14873 8.04264 6.18782V9.62352C8.04264 9.66261 8.05817 9.7001 8.08581 9.72774C8.11345 9.75538 8.15094 9.77091 8.19003 9.77091H8.74865C8.78774 9.77091 8.82523 9.75538 8.85287 9.72774C8.88051 9.7001 8.89604 9.66261 8.89604 9.62352V7.56151L10.4694 9.6869C10.48 9.70174 10.4933 9.71448 10.5085 9.72448L10.5181 9.73038H10.5225L10.5299 9.73406H10.552C10.565 9.73732 10.5784 9.73905 10.5918 9.73922H11.1467C11.1858 9.73922 11.2233 9.7237 11.2509 9.69605C11.2786 9.66841 11.2941 9.63092 11.2941 9.59183V6.16572C11.2941 6.12663 11.2786 6.08914 11.2509 6.06149C11.2233 6.03385 11.1858 6.01832 11.1467 6.01832V6.01611Z" fill="#242833"/>
</svg>
