<svg width="18" height="18" viewBox="0 0 18 18" fill="none" xmlns="http://www.w3.org/2000/svg">
<g clip-path="url(#clip0_7443_208646)">
<path fill-rule="evenodd" clip-rule="evenodd" d="M7.87012 2.75C4.76352 2.75 2.24512 5.2684 2.24512 8.375V12.6265C2.24512 13.3851 2.86005 14 3.61862 14H7.87012C7.90264 14 7.9351 13.9997 7.96749 13.9992C8.79457 14.7745 9.90678 15.2493 11.1299 15.2493H14.5145C15.1995 15.2493 15.7549 14.6939 15.7549 14.0089V10.6243C15.7549 8.80084 14.6997 7.22387 13.1666 6.4707V6.47624C12.3877 4.30393 10.3104 2.75 7.87012 2.75ZM13.4929 8.21451C13.4944 8.26783 13.4951 8.32133 13.4951 8.375C13.4951 10.8348 11.9162 12.9259 9.7165 13.69C10.1464 13.8885 10.6252 13.9993 11.1299 13.9993H14.5049V10.6243C14.5049 9.68039 14.1174 8.82702 13.4929 8.21451ZM3.49512 8.375C3.49512 5.95875 5.45387 4 7.87012 4C10.2864 4 12.2451 5.95875 12.2451 8.375C12.2451 10.7912 10.2864 12.75 7.87012 12.75H3.61862C3.55041 12.75 3.49512 12.6947 3.49512 12.6265V8.375ZM6.16675 9.33301C6.71903 9.33301 7.16675 8.88529 7.16675 8.33301C7.16675 7.78072 6.71903 7.33301 6.16675 7.33301C5.61446 7.33301 5.16675 7.78072 5.16675 8.33301C5.16675 8.88529 5.61446 9.33301 6.16675 9.33301ZM10.5 8.33301C10.5 8.88529 10.0523 9.33301 9.5 9.33301C8.94772 9.33301 8.5 8.88529 8.5 8.33301C8.5 7.78072 8.94772 7.33301 9.5 7.33301C10.0523 7.33301 10.5 7.78072 10.5 8.33301Z" fill="#242833"/>
</g>
<defs>
<clipPath id="clip0_7443_208646">
<rect width="18" height="18" fill="white"/>
</clipPath>
</defs>
</svg>
