<svg width="28" height="22" viewBox="0 0 29 22" fill="none" xmlns="http://www.w3.org/2000/svg"><path d="M16.4735 21.2133L16.621 21.3607C17.4686 22.2083 18.8428 22.2083 19.6903 21.3607L27.6739 13.3771C28.5215 12.5295 28.5215 11.1553 27.6739 10.3077L18.0019 0.635704C17.5189 0.152654 16.8366 -0.0747751 16.1603 0.0218348L14.2813 0.29027L23.7927 9.80168C24.9228 10.9318 24.9228 12.764 23.7927 13.8941L16.4735 21.2133Z" fill="#474F5E"></path><path d="M0.54747 9.85076C0.45086 10.527 0.678289 11.2093 1.16134 11.6924L10.8334 21.3644C11.6809 22.212 13.0551 22.212 13.9027 21.3644L21.8863 13.3808C22.7339 12.5332 22.7339 11.159 21.8863 10.3114L12.2143 0.639397C11.7313 0.156347 11.049 -0.0710819 10.3727 0.0255281L2.31276 1.17695C1.99446 1.22242 1.74436 1.47251 1.69889 1.79082L0.54747 9.85076ZM6.31953 7.96849C5.12088 7.96849 4.14918 6.99679 4.14918 5.79814C4.14918 4.59948 5.12088 3.62778 6.31953 3.62778C7.51818 3.62778 8.48988 4.59948 8.48988 5.79814C8.48988 6.99679 7.51818 7.96849 6.31953 7.96849Z" fill="#474F5E"></path></svg>