<svg width="24" height="23" viewBox="0 0 21 23" fill="none" xmlns="http://www.w3.org/2000/svg"><path d="M5.5 1C5.5 0.447715 5.94772 0 6.5 0H14.5C15.0523 0 15.5 0.447715 15.5 1V3C15.5 3.55228 15.0523 4 14.5 4H6.5C5.94772 4 5.5 3.55228 5.5 3V1Z" fill="#474F5E"></path><path fill-rule="evenodd" clip-rule="evenodd" d="M3.7 2C3.86569 2 4 2.13431 4 2.3V3.39999C4 4.50456 4.89543 5.39999 6 5.39999H15C16.1046 5.39999 17 4.50456 17 3.39999V2.3C17 2.13431 17.1343 2 17.3 2H19C20.1046 2 21 2.89543 21 4V21C21 22.1046 20.1046 23 19 23H2C0.89543 23 0 22.1046 0 21V4C0 2.89543 0.895431 2 2 2H3.7ZM3.5 11.7C3.5 11.3134 3.81342 11 4.20001 11H16.8C17.1866 11 17.5 11.3134 17.5 11.7V12.3C17.5 12.6866 17.1866 13 16.8 13H4.20001C3.81342 13 3.5 12.6866 3.5 12.3V11.7ZM3.5 16.7C3.5 16.3134 3.81342 16 4.20001 16H11.8C12.1866 16 12.5 16.3134 12.5 16.7V17.3C12.5 17.6866 12.1866 18 11.8 18H4.20001C3.81342 18 3.5 17.6866 3.5 17.3V16.7Z" fill="#474F5E"></path></svg>