<svg width="24" height="24" viewBox="0 0 24 24" fill="none" xmlns="http://www.w3.org/2000/svg">
<path d="M2.59229 14.542C2.59229 15.4584 2.79344 16.162 3.05633 16.5877C3.40103 17.1452 3.91514 17.3814 4.43928 17.3814C5.11531 17.3814 5.73376 17.2136 6.92557 15.5653C7.88037 14.2441 9.00541 12.3896 9.7624 11.227L11.0444 9.25729C11.9349 7.88937 12.9656 6.3687 14.1474 5.33796C15.1122 4.49668 16.153 4.0293 17.2004 4.0293C18.9589 4.0293 20.634 5.04835 21.916 6.95961C23.3189 9.05281 24 11.6893 24 14.4102C24 16.0276 23.6812 17.2161 23.1387 18.155C22.6145 19.0631 21.593 19.9703 19.8745 19.9703V17.3814C21.3459 17.3814 21.7132 16.0293 21.7132 14.4819C21.7132 12.2769 21.199 9.82983 20.0665 8.08132C19.2627 6.8411 18.2212 6.08326 17.0752 6.08326C15.8358 6.08326 14.8385 7.01803 13.7176 8.68474C13.1217 9.57027 12.5099 10.6494 11.8231 11.8671L11.0669 13.2067C9.54792 15.8999 9.16316 16.5134 8.40367 17.5258C7.07247 19.2985 5.93573 19.9703 4.43928 19.9703C2.66406 19.9703 1.54152 19.2017 0.846288 18.0432C0.278756 17.0993 0 15.8607 0 14.4494L2.59229 14.542Z" fill="#0081FB"/>
<path d="M2.0437 7.14238C3.23218 5.31041 4.9473 4.0293 6.91447 4.0293C8.05371 4.0293 9.18627 4.36648 10.3689 5.33213C11.6626 6.38791 13.0413 8.1264 14.7615 10.9916L15.3782 12.0199C16.8672 14.5003 17.7143 15.7764 18.2101 16.3782C18.8477 17.151 19.2942 17.3814 19.8743 17.3814C21.3457 17.3814 21.7129 16.0293 21.7129 14.4819L23.9997 14.4102C23.9997 16.0276 23.6809 17.2161 23.1384 18.155C22.6143 19.0631 21.5927 19.9703 19.8743 19.9703C18.806 19.9703 17.8595 19.7383 16.8129 18.751C16.0084 17.9931 15.0678 16.6469 14.3441 15.4367L12.1917 11.8412C11.1117 10.0368 10.121 8.69142 9.54766 8.08215C8.93088 7.42699 8.13801 6.63578 6.87274 6.63578C5.84868 6.63578 4.97902 7.35438 4.25124 8.45356L2.0437 7.14238Z" fill="url(#paint0_linear_589_61531)"/>
<path d="M6.87299 6.63578C5.84893 6.63578 4.97927 7.35438 4.25149 8.45356C3.22242 10.0068 2.59229 12.3203 2.59229 14.542C2.59229 15.4584 2.79343 16.162 3.05633 16.5877L0.846288 18.0432C0.278756 17.0993 0 15.8607 0 14.4494C0 11.883 0.704406 9.20804 2.04395 7.14238C3.23243 5.31041 4.94755 4.0293 6.91472 4.0293L6.87299 6.63578Z" fill="url(#paint1_linear_589_61531)"/>
<defs>
<linearGradient id="paint0_linear_589_61531" x1="5.09085" y1="13.7942" x2="21.6161" y2="14.6288" gradientUnits="userSpaceOnUse">
<stop stop-color="#0064E1"/>
<stop offset="0.4" stop-color="#0064E1"/>
<stop offset="0.83" stop-color="#0073EE"/>
<stop offset="1" stop-color="#0082FB"/>
</linearGradient>
<linearGradient id="paint1_linear_589_61531" x1="3.75573" y1="15.6304" x2="3.75573" y2="9.53772" gradientUnits="userSpaceOnUse">
<stop stop-color="#0082FB"/>
<stop offset="1" stop-color="#0064E0"/>
</linearGradient>
</defs>
</svg>
