<svg width="24" height="22" viewBox="0 0 23 22" fill="none" xmlns="http://www.w3.org/2000/svg"><path fill-rule="evenodd" clip-rule="evenodd" d="M2 0C0.895431 0 0 0.89543 0 2V20C0 21.1046 0.89543 22 2 22H21C22.1046 22 23 21.1046 23 20V2C23 0.895431 22.1046 0 21 0H2ZM5.75 14.68C7.24 14.68 8.29 13.88 8.29 12.57C8.29 11.1421 7.11341 10.7711 6.00482 10.4215L6 10.42C4.94 10.1 4.67 9.86999 4.67 9.43999C4.67 9.03999 5.01 8.73999 5.59 8.73999C6.3 8.73999 6.68 9.10999 6.93 9.63999L8.09 8.96999C7.62 7.98999 6.74 7.39999 5.59 7.39999C4.39 7.39999 3.29 8.15999 3.29 9.47999C3.29 10.81 4.33 11.26 5.4 11.57C6.44 11.87 6.91 12.07 6.91 12.59C6.91 12.98 6.62 13.33 5.79 13.33C4.92 13.33 4.43 12.91 4.18 12.26L3 12.95C3.38 13.99 4.32 14.68 5.75 14.68ZM14.6113 14.54L11.9213 10.94L14.5113 7.53999H12.9213L10.5212 10.63V7.53999H9.14125V14.54H10.5212V11.26L13.0212 14.54H14.6113ZM20.2711 12.25C20.2711 13.76 19.1311 14.68 17.5911 14.68C16.0611 14.68 14.9211 13.76 14.9211 12.25V7.53999H16.2911V12.14C16.2911 12.82 16.6511 13.33 17.5911 13.33C18.5311 13.33 18.8911 12.82 18.8911 12.14V7.53999H20.2711V12.25Z" fill="#474F5E"></path></svg>