<svg width="24" height="23" viewBox="0 0 23 23" fill="none" xmlns="http://www.w3.org/2000/svg"><path d="M0 1.84076C0 0.824137 0.765276 0 1.70929 0H16.5231C17.4672 0 18.2324 0.824137 18.2324 1.84076V7.87599C17.8337 8.04673 17.4602 8.29482 17.1348 8.62026L8.41476 17.3402C7.88872 17.8663 7.5932 18.5797 7.5932 19.3236V22.2988C7.5932 22.346 7.59437 22.393 7.59668 22.4398H1.70929C0.765276 22.4398 0 21.6156 0 20.599V1.84076ZM17.6658 11.0644L18.2324 10.4977L18.6224 10.1078C19.1701 9.56011 20.0581 9.56011 20.6058 10.1078L22.5892 12.0912C23.1369 12.6389 23.1369 13.5269 22.5892 14.0746L21.6326 15.0312L18.2324 11.631L17.6658 11.0644ZM16.6741 12.0561L18.2324 13.6144L20.6409 16.0229L18.2324 18.4314L14.224 22.4398L13.8692 22.7946C13.7377 22.9261 13.5593 23 13.3733 23H10.3982C10.0592 23 9.77638 22.7595 9.71112 22.4398C9.70283 22.3992 9.69805 22.3573 9.69711 22.3144C9.697 22.3092 9.69694 22.304 9.69694 22.2988V19.3236C9.69694 19.1377 9.77082 18.9593 9.90233 18.8278L16.6741 12.0561ZM3.50624 6.31118V7.01242C3.50624 7.39971 3.8202 7.71367 4.20749 7.71367H11.22C11.6072 7.71367 11.9212 7.39971 11.9212 7.01242V6.31118C11.9212 5.9239 11.6072 5.60994 11.22 5.60994H4.20749C3.8202 5.60994 3.50624 5.9239 3.50624 6.31118ZM3.50624 11.9211V12.6224C3.50624 13.0096 3.8202 13.3236 4.20749 13.3236H8.41497C8.80226 13.3236 9.11622 13.0096 9.11622 12.6224V11.9211C9.11622 11.5338 8.80226 11.2199 8.41497 11.2199H4.20749C3.8202 11.2199 3.50624 11.5338 3.50624 11.9211Z" fill="#474F5E"></path></svg>