<svg width="24" height="22" viewBox="0 0 26 22" fill="none" xmlns="http://www.w3.org/2000/svg"><circle cx="10.1196" cy="5.51975" r="5.51975" fill="#474F5E"></circle><path d="M15.6161 13.4181C14.8594 12.6714 13.6567 12.6827 12.6919 13.1291C11.8164 13.534 10.832 13.7486 9.79134 13.7486C8.70388 13.7486 7.67785 13.5125 6.77337 13.0712C5.79842 12.5955 4.5651 12.5674 3.79292 13.3293L0.865076 16.2182C-0.982912 18.0417 0.325911 21.1594 2.93936 21.1594H16.3798C18.9932 21.1594 20.302 18.0417 18.4541 16.2182L15.6161 13.4181Z" fill="#474F5E"></path><path fill-rule="evenodd" clip-rule="evenodd" d="M25.9886 4.03041C25.9886 4.47224 25.6304 4.83041 25.1886 4.83041L18.509 4.83041C18.0672 4.83041 17.709 4.47224 17.709 4.03041L17.709 3.33052C17.709 2.88869 18.0672 2.53052 18.509 2.53052L25.1886 2.53052C25.6304 2.53052 25.9886 2.88869 25.9886 3.33052L25.9886 4.03041Z" fill="#474F5E"></path><path fill-rule="evenodd" clip-rule="evenodd" d="M25.9888 8.92622C25.9888 9.36805 25.6306 9.72622 25.1888 9.72622L19.8891 9.72622C19.4473 9.72622 19.0891 9.36805 19.0891 8.92622L19.0891 8.22603C19.0891 7.7842 19.4473 7.42603 19.8891 7.42603L25.1888 7.42603C25.6306 7.42603 25.9888 7.7842 25.9888 8.22603L25.9888 8.92622Z" fill="#474F5E"></path><path fill-rule="evenodd" clip-rule="evenodd" d="M20.4691 13.1358C20.4691 12.694 20.8273 12.3358 21.2691 12.3358L25.1889 12.3358C25.6307 12.3358 25.9889 12.694 25.9889 13.1358L25.9889 13.8357C25.9889 14.2775 25.6307 14.6357 25.1889 14.6357L21.2691 14.6357C20.8273 14.6357 20.4691 14.2775 20.4691 13.8357L20.4691 13.1358Z" fill="#474F5E"></path></svg>