<svg width="24" height="25" viewBox="0 0 25 25" fill="none" xmlns="http://www.w3.org/2000/svg"><path d="M0.794499 11.7C0.69915 12.3675 0.923612 13.0408 1.40036 13.5176L12.2554 24.3726C13.0919 25.2091 14.4482 25.2091 15.2847 24.3726L24.3726 15.2847C25.2091 14.4482 25.2091 13.0919 24.3726 12.2554L13.5176 1.40036C13.0408 0.923612 12.3675 0.69915 11.7 0.794499L2.68782 2.08195C2.37367 2.12683 2.12683 2.37367 2.08195 2.68782L0.794499 11.7ZM6.80929 8.95123C5.62627 8.95123 4.66725 7.99221 4.66725 6.80919C4.66725 5.62617 5.62627 4.66715 6.80929 4.66715C7.99231 4.66715 8.95134 5.62617 8.95134 6.80919C8.95134 7.99221 7.99231 8.95123 6.80929 8.95123Z" fill="#474F5E"></path></svg>