<svg width="24" height="22" viewBox="0 0 22 22" fill="none" xmlns="http://www.w3.org/2000/svg"><path d="M2.0625 0C0.923413 0 0 0.923413 0 2.0625V19.9375C0 21.0766 0.923413 22 2.0625 22H19.9375C21.0766 22 22 21.0766 22 19.9375V2.0625C22 0.923413 21.0766 0 19.9375 0H2.0625ZM17.875 6.53125L4.125 6.53125C3.7453 6.53125 3.4375 6.22344 3.4375 5.84375V5.15625C3.4375 4.77655 3.7453 4.46875 4.125 4.46875H17.875C18.2547 4.46875 18.5625 4.77655 18.5625 5.15625V5.84375C18.5625 6.22345 18.2547 6.53125 17.875 6.53125ZM17.875 12.0312L4.125 12.0312C3.7453 12.0312 3.4375 11.7234 3.4375 11.3437V10.6562C3.4375 10.2766 3.7453 9.96875 4.125 9.96875L17.875 9.96875C18.2547 9.96875 18.5625 10.2766 18.5625 10.6562V11.3438C18.5625 11.7234 18.2547 12.0312 17.875 12.0312ZM12.375 16.8438C12.375 17.2234 12.0672 17.5312 11.6875 17.5312L4.125 17.5312C3.7453 17.5312 3.4375 17.2234 3.4375 16.8437V16.1562C3.4375 15.7766 3.7453 15.4688 4.125 15.4688H11.6875C12.0672 15.4688 12.375 15.7766 12.375 16.1562V16.8438Z" fill="#474F5E"></path></svg>