<svg width="18" height="18" viewBox="0 0 18 18" fill="none" xmlns="http://www.w3.org/2000/svg">
<path fill-rule="evenodd" clip-rule="evenodd" d="M5.75 2C3.67893 2 2 3.67893 2 5.75V12.75C2 14.8211 3.67893 16.5 5.75 16.5H12.75C14.8211 16.5 16.5 14.8211 16.5 12.75V8.16667C16.5 7.75245 16.1642 7.41667 15.75 7.41667C15.3358 7.41667 15 7.75245 15 8.16667V12.75C15 13.9926 13.9926 15 12.75 15H5.75C4.50736 15 3.5 13.9926 3.5 12.75V5.75C3.5 4.50736 4.50736 3.5 5.75 3.5H11.07C11.4842 3.5 11.82 3.16421 11.82 2.75C11.82 2.33579 11.4842 2 11.07 2H5.75ZM8 11.75C8.69036 11.75 9.25 11.1904 9.25 10.5C9.25 9.80964 8.69036 9.25 8 9.25C7.30964 9.25 6.75 9.80964 6.75 10.5C6.75 11.1904 7.30964 11.75 8 11.75ZM16.25 4.5C16.25 5.19036 15.6904 5.75 15 5.75C14.3096 5.75 13.75 5.19036 13.75 4.5C13.75 3.80964 14.3096 3.25 15 3.25C15.6904 3.25 16.25 3.80964 16.25 4.5ZM9.32372 8.17604L12.0498 5.44995C12.1833 5.73253 12.3822 6.01676 12.6399 6.27443C12.8974 6.53194 13.1815 6.73077 13.4639 6.8643L10.7381 9.59012C10.6045 9.3077 10.4057 9.02366 10.1482 8.76614C9.89053 8.50848 9.6063 8.30956 9.32372 8.17604Z" fill="#393D47"/>
</svg>
