<svg width="18" height="18" viewBox="0 0 18 18" fill="none" xmlns="http://www.w3.org/2000/svg">
<path d="M6.61502 15.3001C6.56532 15.3001 6.52502 15.2598 6.52502 15.2101L6.52502 12.6901C6.52502 12.6404 6.56532 12.6001 6.61502 12.6001L7.78502 12.6001C7.83473 12.6001 7.87502 12.6404 7.87502 12.6901L7.87502 15.2101C7.87502 15.2598 7.83473 15.3001 7.78502 15.3001H6.61502Z" fill="#242833"/>
<path d="M4.35489 1.80005C4.10485 1.80005 3.87397 1.92984 3.74992 2.14016L1.89185 6.19016C1.83169 6.29215 1.80005 6.40758 1.80005 6.52505C1.80005 7.41114 2.15254 8.21747 2.72908 8.81963V15.525C2.72908 15.8978 3.04104 16.2 3.42586 16.2H11.7871C13.7112 16.2 15.271 14.689 15.271 12.825V8.81963C15.8476 8.21747 16.2 7.41114 16.2 6.52505C16.2 6.40758 16.1684 6.29215 16.1082 6.19016L14.2502 2.14016C14.1261 1.92984 13.8953 1.80005 13.6452 1.80005H4.35489ZM13.8775 9.70801V12.825C13.8775 13.9434 12.9416 14.85 11.7871 14.85H4.12263V9.70801C4.48586 9.83238 4.87673 9.90005 5.28392 9.90005C5.96657 9.90005 6.6042 9.70933 7.14199 9.38037C7.67977 9.70933 8.3174 9.90005 9.00005 9.90005C9.68269 9.90005 10.3203 9.70933 10.8581 9.38037C11.3959 9.70933 12.0335 9.90005 12.7162 9.90005C13.1234 9.90005 13.5142 9.83238 13.8775 9.70801ZM3.20063 6.69238L4.75924 3.15005H13.2409L14.7995 6.69238C14.7116 7.73248 13.8125 8.55005 12.7162 8.55005C12.1804 8.55005 11.6931 8.35563 11.3228 8.03458C11.0583 7.8052 10.658 7.8052 10.3934 8.03458C10.0231 8.35563 9.53587 8.55005 9.00005 8.55005C8.46423 8.55005 7.97696 8.35563 7.60668 8.03458C7.34213 7.8052 6.94185 7.8052 6.6773 8.03458C6.30702 8.35563 5.81974 8.55005 5.28392 8.55005C4.18763 8.55005 3.28845 7.73248 3.20063 6.69238Z" fill="#242833"/>
</svg>
