<svg width="18" height="18" viewBox="0 0 18 18" fill="none" xmlns="http://www.w3.org/2000/svg">
<circle cx="9.00098" cy="8.99988" r="7.2" stroke="#242833" stroke-width="1.35"/>
<path d="M4.82129 7.88149C4.82129 7.42799 4.91631 6.97772 5.10743 6.53178C5.29855 6.08584 5.57173 5.67121 5.92805 5.29005C6.28437 4.90889 6.75191 4.599 7.33175 4.36145C7.91158 4.1239 8.55404 4.00513 9.25913 4.00513C10.4037 4.00513 11.3431 4.35821 12.0773 5.0633C12.8116 5.76839 13.1787 6.59981 13.1787 7.55756C13.1787 8.78849 12.8677 9.80563 12.2447 10.6079C11.6217 11.4102 10.8172 11.8118 9.83141 11.8118C9.50748 11.8118 9.20298 11.7363 8.919 11.5851C8.63502 11.4339 8.43527 11.2504 8.31973 11.0344L7.88783 12.7404C7.85219 12.8776 7.80468 13.0158 7.74746 13.1561C7.69023 13.2965 7.62652 13.4315 7.5585 13.5611C7.49047 13.6906 7.42137 13.8126 7.35334 13.9282C7.28532 14.0437 7.21621 14.1517 7.14819 14.2521C7.08016 14.3525 7.02077 14.4378 6.97002 14.5059C6.91928 14.5739 6.87285 14.6333 6.82965 14.684L6.76487 14.7704C6.74327 14.7996 6.71412 14.8103 6.67849 14.8028C6.64286 14.7952 6.62126 14.7736 6.6137 14.738C6.6137 14.7304 6.6083 14.6808 6.5975 14.5868C6.58671 14.4929 6.57591 14.3946 6.56511 14.2899C6.55431 14.1852 6.54352 14.0502 6.53272 13.885C6.52192 13.7198 6.51868 13.5589 6.52192 13.4045C6.52516 13.2501 6.53596 13.0784 6.55431 12.8916C6.57267 12.7048 6.59966 12.532 6.6353 12.3733C6.71412 12.0353 6.98082 10.9081 7.43432 8.99365C7.3771 8.87811 7.32959 8.7399 7.29395 8.57794C7.25832 8.41597 7.23997 8.28424 7.23997 8.18382L7.22917 8.02186C7.22917 7.5608 7.34578 7.17748 7.58009 6.87191C7.8144 6.56633 8.09622 6.41301 8.42771 6.41301C8.69441 6.41301 8.90065 6.50155 9.04857 6.67755C9.1965 6.85355 9.26993 7.0749 9.26993 7.34161C9.26993 7.50681 9.23969 7.71089 9.17815 7.95167C9.1166 8.19246 9.03562 8.46996 8.9352 8.78309C8.83478 9.09623 8.76244 9.34997 8.71925 9.54433C8.6469 9.86826 8.71061 10.149 8.90821 10.3865C9.1058 10.6241 9.37035 10.7429 9.70183 10.7429C10.2709 10.7429 10.7406 10.4211 11.1109 9.77648C11.4813 9.13186 11.667 8.35335 11.667 7.43878C11.667 6.74018 11.4403 6.17006 10.9868 5.72735C10.5333 5.28465 9.89943 5.0633 9.08637 5.0633C8.17936 5.0633 7.44296 5.35484 6.87824 5.93791C6.31353 6.52098 6.03063 7.21959 6.03063 8.03266C6.03063 8.51531 6.16776 8.9213 6.44094 9.25279C6.53488 9.36077 6.56295 9.4763 6.52732 9.59832C6.51328 9.63395 6.49169 9.71709 6.46253 9.84666C6.43338 9.97624 6.41179 10.0594 6.39775 10.095C6.38371 10.1738 6.347 10.2267 6.28977 10.2516C6.23254 10.2764 6.16776 10.2753 6.09541 10.2462C5.67107 10.0734 5.35253 9.77648 5.13982 9.35537C4.92711 8.93426 4.82129 8.44297 4.82129 7.88149Z" fill="#242833"/>
</svg>
