<svg width="18" height="18" viewBox="0 0 18 18" fill="none" xmlns="http://www.w3.org/2000/svg">
<path fill-rule="evenodd" clip-rule="evenodd" d="M11.8428 15.7891C11.5266 16.1361 10.989 16.1612 10.642 15.845L4.41379 10.1711C4.07432 9.86181 3.87002 9.4315 3.84494 8.97297L3.7522 7.27691L5.24996 7.19501L5.3427 8.89106C5.34629 8.95657 5.37547 9.01804 5.42397 9.06222L11.1717 14.2984L15.5491 9.49343L9.8014 4.25721C9.7529 4.21303 9.68898 4.18968 9.62343 4.1922L5.09527 4.36632L5.15299 5.42185L3.65523 5.50376L3.59482 4.39896C3.55054 3.58936 4.17812 2.90048 4.98833 2.86933L9.56579 2.69331C10.0247 2.67567 10.4721 2.8391 10.8116 3.14836L17.0398 8.82232C17.3868 9.13847 17.4118 9.67607 17.0957 10.0231L11.8428 15.7891Z" fill="#242833"/>
<path fill-rule="evenodd" clip-rule="evenodd" d="M6.20202 4.84871L7.67224 4.78745C6.43296 7.3668 3.28917 7.74853 1.5077 5.95211C-0.173497 4.25676 0.660466 1.74815 2.24561 0.845261C3.58368 0.0830987 6.20202 0.471837 7.1313 2.41564L5.61771 2.45425C5.079 1.69445 3.4071 1.49703 2.63382 2.27357C2.05657 2.85325 1.91488 3.71668 2.16189 4.50431C2.55689 5.76379 4.99325 6.42404 6.20202 4.84871Z" fill="#242833"/>
<path fill-rule="evenodd" clip-rule="evenodd" d="M7.16458 16.8566L5.25574 10.8685L6.68489 10.4129L8.37668 15.7201L11.0184 14.5931L11.607 15.9727L8.30798 17.3802C7.847 17.5769 7.3168 17.3341 7.16458 16.8566Z" fill="#242833"/>
<path fill-rule="evenodd" clip-rule="evenodd" d="M13.201 9.41594C13.2417 9.45329 13.2444 9.51654 13.207 9.55723L11.067 11.8883C11.0297 11.929 10.9664 11.9317 10.9257 11.8944L10.1141 11.1493C10.0734 11.1119 10.0707 11.0487 10.1081 11.008L12.2481 8.67689C12.2854 8.6362 12.3487 8.6335 12.3894 8.67085L13.201 9.41594Z" fill="#356DFF"/>
</svg>
