<svg width="18" height="18" viewBox="0 0 18 18" fill="none" xmlns="http://www.w3.org/2000/svg">
<g clip-path="url(#clip0_7443_208641)">
<path fill-rule="evenodd" clip-rule="evenodd" d="M4.2085 4.00033C4.2085 3.19491 4.86142 2.54199 5.66683 2.54199H14.0002C14.8056 2.54199 15.4585 3.19491 15.4585 4.00033V14.5003C15.4585 14.9606 15.0854 15.3337 14.6252 15.3337H14.2085V4.00033C14.2085 3.88527 14.1153 3.79199 14.0002 3.79199H5.66683C5.55177 3.79199 5.4585 3.88527 5.4585 4.00033V10.667H4.2085V4.00033Z" fill="#242833"/>
<path d="M12.8336 6.16241C12.8336 6.7147 12.3859 7.16241 11.8336 7.16241C11.2813 7.16241 10.8336 6.7147 10.8336 6.16241C10.8336 5.61013 11.2813 5.16241 11.8336 5.16241C12.3859 5.16241 12.8336 5.61013 12.8336 6.16241Z" fill="#242833"/>
<path fill-rule="evenodd" clip-rule="evenodd" d="M6.41974 9.53335L2.79678 14.0829H13.5291L11.4132 11.4506L9.70741 12.7397C9.35185 13.0084 8.84465 12.9308 8.58573 12.568L6.41974 9.53335ZM5.61398 8.53858C6.04513 7.99717 6.87462 8.019 7.27669 8.58233L9.32953 11.4585L10.8209 10.3314C11.2702 9.99188 11.908 10.0709 12.2608 10.5098L15.1027 14.0452C15.5191 14.5633 15.1503 15.3329 14.4856 15.3329H1.84588C1.18289 15.3329 0.813582 14.5667 1.22659 14.0481L5.61398 8.53858Z" fill="#242833"/>
</g>
<defs>
<clipPath id="clip0_7443_208641">
<rect width="18" height="18" fill="white"/>
</clipPath>
</defs>
</svg>
