<svg width="110" height="110" viewBox="0 0 110 110" fill="none" xmlns="http://www.w3.org/2000/svg"><rect width="110" height="110" rx="6" fill="#F7F8FB"/><path d="M44 48.4a2.2 2.2 0 1 0 4.4 0 2.2 2.2 0 0 0-4.4 0z" fill="#D7DBE7"/><path fill-rule="evenodd" clip-rule="evenodd" d="M37.95 42.9a2.75 2.75 0 0 1 2.75-2.75h28.6a2.75 2.75 0 0 1 2.75 2.75v24.2a2.75 2.75 0 0 1-2.75 2.75H40.7a2.75 2.75 0 0 1-2.75-2.75V42.9zm3.3.55v23.1h27.5v-23.1h-27.5z" fill="#D7DBE7"/><path fill-rule="evenodd" clip-rule="evenodd" d="M61.643 52.84l7.728 7.727 2.333-2.334-8.13-8.13a2.75 2.75 0 0 0-3.96.072l-7.403 7.963-3.016-2.944a2.75 2.75 0 0 0-3.935.095l-6.868 7.387 2.416 2.248 6.485-6.976 3.016 2.945a2.75 2.75 0 0 0 3.935-.095l7.4-7.959z" fill="#D7DBE7"/></svg>