<svg width="1em" height="1em" viewBox="0 0 20 20" fill="none" xmlns="http://www.w3.org/2000/svg" data-icon="SLIconExit"><path d="M17.875 9.225a.1.1 0 0 0-.1-.1H8.427a.1.1 0 0 1-.07-.17l1.478-1.479a.1.1 0 0 0 0-.141l-.92-.92a.1.1 0 0 0-.141 0l-2.93 2.93a.75.75 0 0 0 0 1.06l2.93 2.93a.1.1 0 0 0 .141 0l.92-.92a.1.1 0 0 0 0-.14l-1.479-1.48a.1.1 0 0 1 .071-.17h9.348a.1.1 0 0 0 .1-.1v-1.3Zm-4.25-7.35a.75.75 0 0 0-.75-.75h-10a.75.75 0 0 0-.75.75v16c0 .414.336.75.75.75h10a.75.75 0 0 0 .75-.75v-2.4a.1.1 0 0 0-.1-.1h-1.3a.1.1 0 0 0-.1.1v1.55a.1.1 0 0 1-.1.1h-8.3a.1.1 0 0 1-.1-.1v-14.3a.1.1 0 0 1 .1-.1h8.3a.1.1 0 0 1 .1.1v1.05a.1.1 0 0 0 .1.1h1.3a.1.1 0 0 0 .1-.1v-1.9Z" fill="#474F5E"></path></svg>