<svg width="16" height="16" fill="none" xmlns="http://www.w3.org/2000/svg"><path d="m15.766 14.692-5.073-5.073a5.807 5.807 0 0 0 1.213-3.57 5.825 5.825 0 0 0-1.716-4.143A5.816 5.816 0 0 0 6.047.19a5.824 5.824 0 0 0-4.143 1.716A5.813 5.813 0 0 0 .188 6.05c0 1.565.61 3.037 1.716 4.143a5.813 5.813 0 0 0 4.143 1.716c1.308 0 2.55-.425 3.568-1.21l5.072 5.07a.16.16 0 0 0 .227 0l.852-.85a.16.16 0 0 0 0-.226ZM9.14 9.142a4.351 4.351 0 0 1-3.094 1.282 4.351 4.351 0 0 1-3.094-1.281 4.351 4.351 0 0 1-1.281-3.094c0-1.168.455-2.268 1.281-3.094a4.351 4.351 0 0 1 3.094-1.28 4.34 4.34 0 0 1 3.094 1.28 4.351 4.351 0 0 1 1.28 3.094 4.348 4.348 0 0 1-1.28 3.094Z" fill="#474F5E"></path></svg>