<svg width="16" height="16" viewBox="0 0 16 16" fill="none" xmlns="http://www.w3.org/2000/svg">
<g clip-path="url(#clip0_25538_1918)">
<path d="M0.000488281 8C0.000488281 3.58172 3.58221 0 8.00049 0C12.4188 0 16.0005 3.58172 16.0005 8C16.0005 12.4183 12.4188 16 8.00049 16C3.58221 16 0.000488281 12.4183 0.000488281 8Z" fill="#474F5E"/>
<path d="M8.52118 3.33643H6.93358C6.93358 4.60651 5.73637 5.47926 5.13777 5.75687V7.21435H6.10074V10.7279C6.41305 13.1431 9.38516 13.0092 10.8622 12.2381V10.6649C10.8622 11.1481 8.60593 11.4819 8.52118 10.7279C8.43644 9.97385 8.52118 7.21435 8.52118 7.21435H10.6293V5.57469H8.52118V3.33643Z" fill="white"/>
</g>
<defs>
<clipPath id="clip0_25538_1918">
<rect width="16" height="16" fill="white"/>
</clipPath>
</defs>
</svg>
