<svg width="16" height="16" viewBox="0 0 16 16" fill="none" xmlns="http://www.w3.org/2000/svg">
<g clip-path="url(#clip0_25538_1928)">
<path d="M0.000488281 8C0.000488281 3.58172 3.58221 0 8.00049 0C12.4188 0 16.0005 3.58172 16.0005 8C16.0005 12.4183 12.4188 16 8.00049 16C3.58221 16 0.000488281 12.4183 0.000488281 8Z" fill="#474F5E"/>
<path fill-rule="evenodd" clip-rule="evenodd" d="M12.1766 4.24588C12.1766 4.69772 11.8103 5.06402 11.3585 5.06402C10.9226 5.06402 10.5664 4.72315 10.5417 4.29345L8.71575 3.91751L8.20703 6.38417C9.25121 6.41702 10.1997 6.71546 10.9255 7.18806C10.9697 7.1563 11.0161 7.12632 11.0645 7.09836C11.7199 6.72 12.5057 6.85412 12.8196 7.39792C13.1171 7.91326 12.8842 8.61158 12.3013 9.00528C12.3383 9.16956 12.3575 9.33814 12.3575 9.50995C12.3575 11.2379 10.413 12.6388 8.0143 12.6388C5.61562 12.6388 3.6711 11.2379 3.6711 9.50995C3.6711 9.34389 3.68906 9.18085 3.72365 9.02179C3.1225 8.63136 2.87865 7.92055 3.18039 7.39792C3.49435 6.85412 4.28013 6.72 4.93548 7.09836C4.98888 7.12919 5.03976 7.16247 5.08802 7.19789C5.80828 6.72453 6.75053 6.42349 7.78912 6.38528L8.35642 3.63463C8.37923 3.52403 8.48737 3.45284 8.59798 3.47561L10.6206 3.89204C10.7526 3.61736 11.0334 3.42773 11.3585 3.42773C11.8103 3.42773 12.1766 3.79403 12.1766 4.24588ZM6.19534 9.84672C6.64705 9.84672 7.01323 9.48054 7.01323 9.02883C7.01323 8.57712 6.64705 8.21094 6.19534 8.21094C5.74363 8.21094 5.37745 8.57712 5.37745 9.02883C5.37745 9.48054 5.74363 9.84672 6.19534 9.84672ZM10.589 9.02883C10.589 9.48054 10.2228 9.84672 9.77112 9.84672C9.31941 9.84672 8.95323 9.48054 8.95323 9.02883C8.95323 8.57712 9.31941 8.21094 9.77112 8.21094C10.2228 8.21094 10.589 8.57712 10.589 9.02883ZM6.06625 10.8962C6.49134 11.3033 7.23461 11.4932 7.9532 11.4977C8.67493 11.5023 9.44471 11.3206 9.93302 10.9041L9.66756 10.5928C9.28378 10.9202 8.62729 11.0929 7.95577 11.0887C7.28111 11.0844 6.66415 10.9024 6.34923 10.6007L6.06625 10.8962Z" fill="white"/>
</g>
<defs>
<clipPath id="clip0_25538_1928">
<rect width="16" height="16" fill="white"/>
</clipPath>
</defs>
</svg>
