<svg width="16" height="16" viewBox="0 0 16 16" fill="none" xmlns="http://www.w3.org/2000/svg">
<g clip-path="url(#clip0_25538_1923)">
<path d="M0.000488281 8C0.000488281 3.58172 3.58221 0 8.00049 0C12.4188 0 16.0005 3.58172 16.0005 8C16.0005 12.4183 12.4188 16 8.00049 16C3.58221 16 0.000488281 12.4183 0.000488281 8Z" fill="#474F5E"/>
<path d="M4.70698 5.76366C5.28798 5.76366 5.75898 5.29266 5.75898 4.71166C5.75898 4.13067 5.28798 3.65967 4.70698 3.65967C4.12598 3.65967 3.65498 4.13067 3.65498 4.71166C3.65498 5.29266 4.12598 5.76366 4.70698 5.76366Z" fill="white"/>
<path d="M8.49298 7.34737C8.69656 6.4911 11.1003 5.71172 12.0434 7.34737C12.1469 7.52683 12.3458 8.27459 12.3458 8.79092V12.3401H10.5301V8.92745C10.5301 7.67814 8.54358 7.48857 8.49298 9.24371V7.34737Z" fill="white"/>
<path d="M8.48958 6.53261H6.68214V12.3136H8.48958V6.53261Z" fill="white"/>
<path d="M3.80326 12.3136V6.53261H5.61067V12.3136H3.80326Z" fill="white"/>
</g>
<defs>
<clipPath id="clip0_25538_1923">
<rect width="16" height="16" fill="white"/>
</clipPath>
</defs>
</svg>
