<svg width="16" height="16" viewBox="0 0 16 16" fill="none" xmlns="http://www.w3.org/2000/svg">
<g clip-path="url(#clip0_25565_1933)">
<path d="M15.9999 8C15.9999 9.58225 15.5307 11.129 14.6517 12.4446C13.7726 13.7602 12.5232 14.7855 11.0614 15.391C9.59959 15.9965 7.99106 16.155 6.43921 15.8463C4.88736 15.5376 3.46189 14.7757 2.34307 13.6569C1.22425 12.538 0.462327 11.1126 0.153645 9.56073C-0.155037 8.00888 0.00338993 6.40034 0.608891 4.93853C1.21439 3.47673 2.23977 2.2273 3.55537 1.34824C4.87096 0.469192 6.41768 0 7.99993 0C10.1217 0 12.1565 0.842855 13.6568 2.34315C15.1571 3.84344 15.9999 5.87827 15.9999 8Z" fill="#474F5E"/>
<path fill-rule="evenodd" clip-rule="evenodd" d="M4.76753 10.2847L4.31255 11.7049L5.74326 11.2465L6.1078 11.451C6.69914 11.7827 7.38117 11.9722 8.11036 11.9722C10.3749 11.9722 12.2107 10.1365 12.2107 7.87188C12.2107 5.60732 10.3749 3.77152 8.11036 3.77152C5.84579 3.77152 4.01 5.60732 4.01 7.87188C4.01 8.61844 4.20864 9.31568 4.55531 9.91676L4.76753 10.2847ZM2.82927 13.1882L3.7237 10.3964C3.29517 9.65335 3.05 8.79125 3.05 7.87188C3.05 5.07712 5.3156 2.81152 8.11036 2.81152C10.9051 2.81152 13.1707 5.07712 13.1707 7.87188C13.1707 10.6666 10.9051 12.9322 8.11036 12.9322C7.21246 12.9322 6.36918 12.6984 5.63811 12.2883L2.82927 13.1882Z" fill="white"/>
<path d="M6.36599 7.91343C5.93344 7.22367 5.99946 6.34211 6.366 6.05479C6.60519 5.8673 6.97458 5.80538 7.10046 6.05479L7.54275 6.99141C7.57123 7.05172 7.55931 7.12337 7.51284 7.17121L7.23681 7.45536C7.15743 7.53707 7.14596 7.66336 7.21295 7.75551C7.55759 8.22959 8.17214 8.94476 8.72481 9.07636C8.79696 9.09354 8.87252 9.07835 8.93205 9.03412C9.02802 8.96284 9.1686 8.83074 9.30116 8.61032C9.34573 8.53621 9.43824 8.50305 9.51672 8.53935L10.426 8.95989C10.4872 8.98818 10.5247 9.05237 10.5154 9.11915C10.4022 9.9376 9.87964 10.0328 9.24154 9.99718C8.17988 9.93783 6.89884 8.76311 6.36599 7.91343Z" fill="white"/>
<path fill-rule="evenodd" clip-rule="evenodd" d="M6.78243 6.0111C6.67255 6.01727 6.54334 6.06858 6.44002 6.14957C6.29752 6.26128 6.19416 6.50999 6.18629 6.83643C6.17857 7.15684 6.26461 7.52625 6.46765 7.85002C6.7259 8.26182 7.16956 8.75784 7.67948 9.15758C8.19206 9.5594 8.75391 9.85007 9.24822 9.8777C9.56503 9.89541 9.82534 9.87774 10.0181 9.77329C10.2001 9.67468 10.3436 9.48587 10.3965 9.10304C10.3981 9.09178 10.3919 9.07667 10.3756 9.06914L9.46634 8.6486C9.44881 8.6405 9.42012 8.64568 9.40399 8.6725C9.26291 8.9071 9.11143 9.0507 9.0036 9.1308C8.91528 9.1964 8.80328 9.21875 8.697 9.19344C8.38837 9.11995 8.0773 8.88936 7.80786 8.63138C7.53518 8.37029 7.29071 8.06692 7.11587 7.82641C7.01315 7.6851 7.03236 7.49393 7.15073 7.37208L7.42675 7.08794C7.43837 7.07598 7.44135 7.05807 7.43423 7.04299L6.99269 6.10796C6.95786 6.04015 6.88928 6.00511 6.78243 6.0111ZM6.76899 5.77148C6.93746 5.76203 7.11633 5.82027 7.20758 6.00106L7.209 6.00387L7.20896 6.00389L7.65125 6.94051C7.70109 7.04605 7.68023 7.17145 7.5989 7.25517L7.32288 7.53931C7.28249 7.58089 7.27875 7.6423 7.31 7.68529C7.4798 7.91886 7.71493 8.21012 7.97385 8.45803C8.23602 8.70906 8.50856 8.90186 8.7526 8.95997C8.79062 8.96902 8.82973 8.96098 8.86049 8.93813C8.94459 8.87566 9.07428 8.75507 9.19832 8.54881C9.27131 8.42743 9.42765 8.36628 9.56708 8.43077L10.4764 8.85131C10.5825 8.90038 10.6512 9.01364 10.6343 9.13593C10.574 9.57155 10.3996 9.83959 10.1325 9.98431C9.87615 10.1232 9.55613 10.1353 9.23483 10.1173C8.66749 10.0856 8.05799 9.75925 7.53142 9.34646C7.00219 8.93158 6.53891 8.4154 6.26432 7.97753C6.03481 7.61154 5.93757 7.19528 5.94636 6.83065C5.955 6.47204 6.06792 6.1363 6.29196 5.96069L6.29196 5.96069C6.42782 5.85419 6.6029 5.78079 6.76899 5.77148Z" fill="white"/>
</g>
<defs>
<clipPath id="clip0_25565_1933">
<rect width="16" height="16" fill="white"/>
</clipPath>
</defs>
</svg>
