<svg width="16" height="16" viewBox="0 0 16 16" fill="none" xmlns="http://www.w3.org/2000/svg">
<g clip-path="url(#clip0_25538_1913)">
<path d="M0.000488281 8C0.000488281 3.58172 3.58221 0 8.00049 0C12.4188 0 16.0005 3.58172 16.0005 8C16.0005 12.4183 12.4188 16 8.00049 16C3.58221 16 0.000488281 12.4183 0.000488281 8Z" fill="#474F5E"/>
<path d="M13.0913 5.4568C12.7434 5.61097 12.3696 5.71514 11.9767 5.76222C12.3776 5.52222 12.6851 5.14139 12.8301 4.68805C12.4551 4.91055 12.0396 5.07222 11.5976 5.15889C11.2434 4.78222 10.7392 4.54639 10.1809 4.54639C9.10923 4.54639 8.24006 5.41555 8.24006 6.48805C8.24006 6.63972 8.25756 6.78722 8.29006 6.92972C6.67631 6.84847 5.24673 6.07555 4.28923 4.90139C4.12256 5.18889 4.02673 5.52222 4.02673 5.87722C4.02673 6.55055 4.36964 7.14514 4.89006 7.49305C4.57173 7.48264 4.27256 7.39555 4.01089 7.25014V7.27514C4.01089 8.21555 4.67964 9.00014 5.56798 9.17847C5.40464 9.22264 5.23339 9.24597 5.05673 9.24597C4.93173 9.24597 4.80964 9.2343 4.69131 9.2118C4.93839 9.98264 5.65506 10.5443 6.50464 10.5593C5.84006 11.0801 5.00298 11.3906 4.09381 11.3906C3.93714 11.3906 3.78256 11.3814 3.63048 11.3635C4.48964 11.9147 5.50964 12.2356 6.60548 12.2356C10.1763 12.2356 12.1284 9.27805 12.1284 6.71305C12.1284 6.62972 12.1263 6.54555 12.1226 6.46222C12.5017 6.18805 12.8309 5.8468 13.0905 5.45805L13.0913 5.4568Z" fill="white"/>
</g>
<defs>
<clipPath id="clip0_25538_1913">
<rect width="16" height="16" fill="white"/>
</clipPath>
</defs>
</svg>
