<svg width="16" height="16" viewBox="0 0 16 16" fill="none" xmlns="http://www.w3.org/2000/svg">
<g clip-path="url(#clip0_25538_2513)">
<path d="M16.0001 8C16.0001 12.4183 12.4184 16 8.00008 16C3.5818 16 7.62939e-05 12.4183 7.62939e-05 8C7.62939e-05 3.58172 3.5818 0 8.00008 0C12.4184 0 16.0001 3.58172 16.0001 8Z" fill="white"/>
<path d="M7.62939e-05 8C7.62939e-05 11.4153 2.14074 14.3313 5.15341 15.4787C5.08008 14.854 5.00208 13.824 5.17008 13.1013C5.31474 12.48 6.10408 9.14267 6.10408 9.14267C6.10408 9.14267 5.86608 8.666 5.86608 7.96C5.86608 6.85333 6.50741 6.02667 7.30674 6.02667C7.98674 6.02667 8.31474 6.53667 8.31474 7.148C8.31474 7.83133 7.87941 8.85267 7.65474 9.8C7.46741 10.5927 8.05274 11.2393 8.83408 11.2393C10.2494 11.2393 11.3381 9.74667 11.3381 7.592C11.3381 5.68467 9.96741 4.352 8.01074 4.352C5.74541 4.352 4.41541 6.05133 4.41541 7.808C4.41541 8.49267 4.67874 9.226 5.00808 9.62533C5.03615 9.65549 5.05599 9.69237 5.06568 9.73242C5.07538 9.77247 5.07459 9.81434 5.06341 9.854C5.00274 10.106 4.86808 10.6467 4.84208 10.7573C4.80674 10.9027 4.72674 10.934 4.57541 10.8633C3.58074 10.4007 2.95941 8.94667 2.95941 7.77867C2.95941 5.266 4.78408 2.95933 8.22074 2.95933C10.9834 2.95933 13.1307 4.928 13.1307 7.55867C13.1307 10.3033 11.4007 12.5127 8.99808 12.5127C8.19074 12.5127 7.43274 12.0927 7.17274 11.5973C7.17274 11.5973 6.77341 13.1187 6.67674 13.4907C6.48874 14.2133 5.96741 15.128 5.64408 15.6473C6.38941 15.8767 7.18008 16 8.00008 16C12.4181 16 16.0001 12.418 16.0001 8C16.0001 3.582 12.4181 0 8.00008 0C3.58208 0 7.62939e-05 3.582 7.62939e-05 8Z" fill="#474F5E"/>
</g>
<defs>
<clipPath id="clip0_25538_2513">
<rect width="16" height="16" fill="white"/>
</clipPath>
</defs>
</svg>
