<svg width="16" height="16" viewBox="0 0 16 16" fill="none" xmlns="http://www.w3.org/2000/svg">
<g clip-path="url(#clip0_25538_1908)">
<path d="M15.9999 8C15.9999 9.58225 15.5307 11.129 14.6517 12.4446C13.7726 13.7602 12.5232 14.7855 11.0614 15.391C9.59959 15.9965 7.99106 16.155 6.43921 15.8463C4.88736 15.5376 3.46189 14.7757 2.34307 13.6569C1.22425 12.538 0.462327 11.1126 0.153645 9.56073C-0.155037 8.00888 0.00338993 6.40034 0.608891 4.93853C1.21439 3.47673 2.23977 2.2273 3.55537 1.34824C4.87096 0.469192 6.41768 0 7.99993 0C10.1217 0 12.1565 0.842855 13.6568 2.34315C15.1571 3.84344 15.9999 5.87827 15.9999 8Z" fill="#474F5E"/>
<path d="M7.99411 3.2002C10.9391 3.2002 13.3351 5.1447 13.3351 7.5342V7.5352C13.3351 8.4917 12.9641 9.3517 12.1901 10.2017C11.0696 11.4907 8.56411 13.0617 7.99411 13.3017C7.4393 13.5353 7.5041 13.1692 7.52962 13.025C7.53032 13.0211 7.53099 13.0173 7.53161 13.0137C7.54511 12.9332 7.60761 12.5562 7.60761 12.5562C7.62561 12.4202 7.64411 12.2087 7.59061 12.0737C7.53061 11.9247 7.29411 11.8477 7.12011 11.8102C4.55361 11.4707 2.65361 9.6767 2.65361 7.5342C2.65361 5.1447 5.04911 3.2002 7.99411 3.2002ZM6.5332 6.37969C6.50668 6.37969 6.48124 6.39022 6.46249 6.40898C6.44374 6.42773 6.4332 6.45317 6.4332 6.47969V8.81069C6.4332 8.83721 6.44374 8.86265 6.46249 8.8814C6.48124 8.90015 6.50668 8.91069 6.5332 8.91069H6.9117C6.93822 8.91069 6.96366 8.90015 6.98241 8.8814C7.00116 8.86265 7.0117 8.83721 7.0117 8.81069V6.48119C7.0117 6.45467 7.00116 6.42923 6.98241 6.41048C6.96366 6.39172 6.93822 6.38119 6.9117 6.38119V6.37969H6.5332ZM6.00851 8.91424C6.03503 8.91424 6.06046 8.90371 6.07922 8.88495C6.09797 8.8662 6.10851 8.84076 6.10851 8.81424V8.43574C6.10851 8.40922 6.09797 8.38379 6.07922 8.36503C6.06046 8.34628 6.03503 8.33574 6.00851 8.33574H4.9885V6.48574C4.9885 6.45922 4.97797 6.43379 4.95922 6.41503C4.94046 6.39628 4.91503 6.38574 4.8885 6.38574H4.508C4.48148 6.38574 4.45605 6.39628 4.43729 6.41503C4.41854 6.43379 4.408 6.45922 4.408 6.48574V8.81024C4.408 8.83676 4.41854 8.8622 4.43729 8.88095C4.45605 8.89971 4.48148 8.91024 4.508 8.91024H6.00801L6.00851 8.91424ZM11.629 8.88484C11.6478 8.86608 11.6583 8.84065 11.6583 8.81413V8.43563C11.6583 8.4091 11.6478 8.38367 11.629 8.36492C11.6103 8.34616 11.5848 8.33563 11.5583 8.33563H10.5388V7.94213H11.5583C11.5848 7.94213 11.6103 7.93159 11.629 7.91284C11.6478 7.89408 11.6583 7.86865 11.6583 7.84213V7.46313C11.6583 7.4366 11.6478 7.41117 11.629 7.39241C11.6103 7.37366 11.5848 7.36313 11.5583 7.36313H10.5388V6.96963H11.5583C11.5848 6.96963 11.6103 6.95909 11.629 6.94034C11.6478 6.92158 11.6583 6.89615 11.6583 6.86963V6.49063C11.6583 6.4641 11.6478 6.43867 11.629 6.41991C11.6103 6.40116 11.5848 6.39063 11.5583 6.39063H10.0583C10.0318 6.39063 10.0063 6.40116 9.98759 6.41991C9.96883 6.43867 9.9583 6.4641 9.9583 6.49063V8.81013C9.9583 8.83665 9.96883 8.86208 9.98759 8.88084C10.0063 8.89959 10.0318 8.91013 10.0583 8.91013H11.5583V8.91413C11.5848 8.91413 11.6103 8.90359 11.629 8.88484ZM9.48969 6.37969H9.11119C9.08467 6.37969 9.05923 6.39022 9.04048 6.40898C9.02172 6.42773 9.01119 6.45317 9.01119 6.47969V7.86419L7.94469 6.42419C7.94213 6.42047 7.93929 6.41696 7.93619 6.41369L7.93019 6.40769L7.92469 6.40319H7.92169L7.91669 6.39919H7.91319L7.90769 6.39619H7.48369C7.45717 6.39619 7.43173 6.40672 7.41298 6.42548C7.39422 6.44423 7.38369 6.46967 7.38369 6.49619V8.82719C7.38369 8.85371 7.39422 8.87915 7.41298 8.8979C7.43173 8.91665 7.45717 8.92719 7.48369 8.92719H7.86269C7.88921 8.92719 7.91465 8.91665 7.9334 8.8979C7.95215 8.87915 7.96269 8.85371 7.96269 8.82719V7.42819L9.03019 8.87019C9.03737 8.88025 9.04636 8.8889 9.05669 8.89569L9.06319 8.89969H9.06619L9.07119 8.90219H9.08619C9.09502 8.9044 9.10408 8.90557 9.11319 8.90569H9.48969C9.51621 8.90569 9.54165 8.89515 9.5604 8.8764C9.57915 8.85765 9.58969 8.83221 9.58969 8.80569V6.48119C9.58969 6.45467 9.57915 6.42923 9.5604 6.41048C9.54165 6.39172 9.51621 6.38119 9.48969 6.38119V6.37969Z" fill="white"/>
</g>
<defs>
<clipPath id="clip0_25538_1908">
<rect width="16" height="16" fill="white"/>
</clipPath>
</defs>
</svg>
