<svg width="18" height="18" viewBox="0 0 18 18" fill="none" xmlns="http://www.w3.org/2000/svg">
<g clip-path="url(#clip0_8993_93777)">
<path d="M8.99923 0.999756C13.4172 0.999756 16.9988 4.58127 16.9988 8.9993C16.9988 13.4173 13.4172 16.9988 8.99923 16.9988C4.58121 16.9988 0.999695 13.4173 0.999695 8.9993C0.999695 4.58127 4.58121 0.999756 8.99923 0.999756ZM8.99923 15.6489C12.6717 15.6489 15.6489 12.6718 15.6489 8.9993C15.6489 5.32682 12.6717 2.34968 8.99923 2.34968C5.32675 2.34968 2.34962 5.32682 2.34962 8.9993C2.34962 12.6718 5.32675 15.6489 8.99923 15.6489ZM12.3956 6.43914C12.4572 5.78508 11.7172 6.0544 11.7172 6.0544C11.1707 6.26551 10.6073 6.48003 10.0377 6.69689C8.27155 7.36927 6.44691 8.06392 4.89259 8.74757C4.0498 9.03615 4.54314 9.3247 4.54314 9.3247L5.8793 9.70944C6.49596 9.88257 6.82486 9.69021 6.82486 9.69021L9.70269 7.86268C10.7305 7.20863 10.4838 7.74726 10.2372 7.97811L8.07877 9.90181C7.74987 10.1711 7.91432 10.402 8.05822 10.5174C8.46602 10.8532 9.46923 11.4677 9.90719 11.7359C10.0211 11.8057 10.0968 11.852 10.1138 11.8639C10.2166 11.9409 10.7716 12.2872 11.1417 12.2102C11.5116 12.1333 11.5527 11.6908 11.5527 11.6908L12.0461 8.67064C12.1201 8.14631 12.205 7.64234 12.2728 7.23982C12.3368 6.85963 12.3856 6.56996 12.3956 6.43914Z" fill="#7A8499"/>
</g>
<defs>
<clipPath id="clip0_8993_93777">
<rect width="18" height="18" fill="white"/>
</clipPath>
</defs>
</svg>
