<svg width="18" height="18" viewBox="0 0 18 18" fill="none" xmlns="http://www.w3.org/2000/svg">
<path d="M10.7794 7.50027C11.4087 7.95072 12.1636 8.19207 12.9374 8.19022V6.65424C12.5186 6.65433 12.109 6.53121 11.7597 6.30021C11.5142 6.14197 11.3035 5.9353 11.1405 5.69284C10.9776 5.45038 10.8658 5.17723 10.8121 4.8901C10.7892 4.76147 10.7783 4.63102 10.7794 4.50039H9.2325V10.6418C9.2325 10.9183 9.14515 11.1877 8.98291 11.4116C8.82067 11.6354 8.59184 11.8023 8.3291 11.8884C8.06637 11.9744 7.78315 11.9753 7.51991 11.8908C7.25667 11.8063 7.02686 11.6408 6.8633 11.4178C6.69973 11.1949 6.61079 10.9261 6.60916 10.6496C6.60753 10.3731 6.6933 10.1032 6.85423 9.87839C7.01515 9.65358 7.243 9.48536 7.50522 9.39777C7.76745 9.31017 8.05066 9.30767 8.31439 9.39062V7.81053C7.73805 7.73063 7.15106 7.8286 6.63189 8.09132C6.11273 8.35404 5.68615 8.76899 5.40919 9.2807C5.13223 9.79241 5.01809 10.3765 5.08203 10.9548C5.14598 11.5331 5.38496 12.0782 5.76702 12.517C6.14908 12.9558 6.65601 13.2676 7.22003 13.4105C7.78404 13.5535 8.37826 13.5208 8.92323 13.317C9.46819 13.1131 9.93792 12.7477 10.2696 12.2697C10.6013 11.7916 10.7792 11.2237 10.7794 10.6418V7.50027Z" fill="#242833"/>
<path fill-rule="evenodd" clip-rule="evenodd" d="M17.1 9.00039C17.1 13.4739 13.4735 17.1004 9.00002 17.1004C4.52652 17.1004 0.900024 13.4739 0.900024 9.00039C0.900024 4.52688 4.52652 0.900391 9.00002 0.900391C13.4735 0.900391 17.1 4.52688 17.1 9.00039ZM15.75 9.00039C15.75 5.27247 12.7279 2.25039 9.00002 2.25039C5.2721 2.25039 2.25002 5.27247 2.25002 9.00039C2.25002 12.7283 5.2721 15.7504 9.00002 15.7504C12.7279 15.7504 15.75 12.7283 15.75 9.00039Z" fill="#242833"/>
</svg>
