<svg width="18" height="18" viewBox="0 0 18 18" fill="none" xmlns="http://www.w3.org/2000/svg">
<g clip-path="url(#clip0_8993_93782)">
<path d="M6.59044 5.22213C6.73065 5.22784 6.88582 5.23437 7.0332 5.56059C7.13391 5.78356 7.30336 6.1992 7.43842 6.53048C7.53798 6.77469 7.61886 6.97306 7.63973 7.01463C7.68893 7.11258 7.72172 7.22696 7.65613 7.35778C7.6463 7.37736 7.6372 7.39584 7.62851 7.4135C7.57923 7.5136 7.54302 7.58717 7.45956 7.68441C7.42684 7.72245 7.39301 7.76342 7.35918 7.8044C7.29127 7.88664 7.22335 7.9689 7.16439 8.02747C7.06568 8.12513 6.9632 8.23125 7.07799 8.42717C7.19278 8.62328 7.58768 9.2645 8.17259 9.78367C8.80094 10.3415 9.34682 10.5774 9.62401 10.6972C9.67845 10.7207 9.72253 10.7398 9.75483 10.7559C9.95161 10.8539 10.0664 10.8375 10.1812 10.7066C10.296 10.576 10.6728 10.1349 10.804 9.939C10.9352 9.74287 11.0664 9.77552 11.2468 9.84083C11.4272 9.90613 12.3945 10.3801 12.5913 10.4781C12.6296 10.4972 12.6655 10.5144 12.6988 10.5304C12.8361 10.5964 12.9288 10.6409 12.9684 10.7066C13.0176 10.7886 13.0176 11.1806 12.8536 11.638C12.6896 12.0954 11.8863 12.5365 11.5256 12.5692C11.4909 12.5723 11.4564 12.5763 11.4209 12.5805C11.0875 12.6196 10.6667 12.6688 9.16449 12.0791C7.31621 11.3534 6.09751 9.55513 5.84569 9.18354C5.82503 9.15306 5.81088 9.13218 5.80342 9.12228L5.80127 9.11941C5.6953 8.97843 5 8.05341 5 7.09628C5 6.19418 5.44539 5.72129 5.65031 5.50372C5.66431 5.48885 5.67719 5.47517 5.68873 5.46263C5.86901 5.26661 6.08219 5.21753 6.21338 5.21753C6.22055 5.21753 6.22773 5.21753 6.2349 5.21753C6.35878 5.21751 6.48203 5.2175 6.59044 5.22213Z" fill="#7A8499"/>
<path d="M9.03297 1C11.1638 1.00094 13.1638 1.82663 14.6679 3.32514C16.1718 4.82375 16.9997 6.81577 16.999 8.93434C16.9971 13.3056 13.4232 16.8627 9.03293 16.8627H9.02955C7.69642 16.8622 6.38642 16.5293 5.22291 15.8975L1 17L2.13012 12.8917C1.43308 11.6893 1.06636 10.3253 1.06687 8.92794C1.06864 4.5565 4.64199 1 9.03297 1ZM9.03038 15.5237H9.03297C12.6822 15.5237 15.6524 12.5673 15.6539 8.93385C15.6544 7.17293 14.9665 5.51722 13.7164 4.27171C12.4663 3.0262 10.8041 2.33986 9.03547 2.33914C5.38331 2.33914 2.41327 5.29508 2.41182 8.92847C2.4113 10.1736 2.76122 11.3861 3.42405 12.4354L3.58165 12.6847L2.91259 15.1164L5.41855 14.4622L5.66045 14.605C6.67683 15.2054 7.8421 15.5231 9.03038 15.5237Z" fill="#7A8499"/>
</g>
<defs>
<clipPath id="clip0_8993_93782">
<rect width="18" height="18" fill="white"/>
</clipPath>
</defs>
</svg>
