<?xml version="1.0" standalone="no"?><!DOCTYPE svg PUBLIC "-//W3C//DTD SVG 1.1//EN" "http://www.w3.org/Graphics/SVG/1.1/DTD/svg11.dtd"><svg t="1736774201609" class="icon" viewBox="0 0 1024 1024" version="1.1" xmlns="http://www.w3.org/2000/svg" p-id="6337" xmlns:xlink="http://www.w3.org/1999/xlink" width="32" height="32"><path d="M896 651.636364a34.909091 34.909091 0 0 0 34.909091-34.909091V139.636364a46.545455 46.545455 0 0 0-46.545455-46.545455h-139.636363V46.545455a46.545455 46.545455 0 0 0-46.545455-46.545455H325.818182a46.545455 46.545455 0 0 0-46.545455 46.545455v46.545454H139.636364a46.545455 46.545455 0 0 0-46.545455 46.545455v837.818181a46.545455 46.545455 0 0 0 46.545455 46.545455h744.727272a46.545455 46.545455 0 0 0 46.545455-46.545455v-151.272727a34.909091 34.909091 0 0 0-69.818182 0V954.181818H162.909091V162.909091h116.363636v46.545454a46.545455 46.545455 0 0 0 46.545455 46.545455h372.363636a46.545455 46.545455 0 0 0 46.545455-46.545455V162.909091h116.363636v453.818182a34.909091 34.909091 0 0 0 34.909091 34.909091zM674.909091 186.181818H349.090909V69.818182h325.818182z m11.636364 209.454546h-349.09091a34.909091 34.909091 0 0 0 0 69.818181h349.09091a34.909091 34.909091 0 0 0 0-69.818181z m34.90909 197.818181a34.909091 34.909091 0 0 0-34.90909-34.90909h-349.09091a34.909091 34.909091 0 0 0 0 69.818181h349.09091a34.909091 34.909091 0 0 0 34.90909-34.909091zM384 721.454545a34.909091 34.909091 0 0 0 0 69.818182h256a34.909091 34.909091 0 0 0 0-69.818182z" p-id="6338"></path></svg>