<svg width="138" height="100" fill="none" xmlns="http://www.w3.org/2000/svg"><path fill="#fff" d="M.818 0h136.364v100H.818z"></path><g filter="url(#ResultEmpty_svg__filter0_f_26948_151546)"><circle cx="67.182" cy="48.182" r="23.636" fill="#E9F1FE"></circle></g><g filter="url(#ResultEmpty_svg__filter1_d_26948_151546)"><rect x="41.273" y="29.545" width="51.818" height="40" rx="0.909" fill="#fff"></rect></g><path d="M41.273 30.454a.91.91 0 01.909-.91h50a.91.91 0 01.909.91v3.636H41.273v-3.636z" fill="#7C8AAA"></path><circle cx="44.909" cy="31.818" r="0.909" fill="#4D5677" fill-opacity="0.5"></circle><circle cx="48.091" cy="31.818" r="0.909" fill="#4D5677" fill-opacity="0.5"></circle><circle cx="51.273" cy="31.818" r="0.909" fill="#4D5677" fill-opacity="0.5"></circle><circle cx="85.364" cy="59.546" r="5.909" stroke="#2A62F4" stroke-width="2.727"></circle><path d="M89.682 64.545l4.773 5" stroke="#2A62F4" stroke-width="2.727"></path><path d="M64 47.54c.115-1.15 1.016-3.45 3.692-3.45 2.678 0 3.5 2.3 3.578 3.45.038.727-.254 2.344-1.731 2.988-1.477.643-1.847 2.643-1.847 3.563" stroke="#B8C5DF" stroke-width="2.727"></path><path fill="#B8C5DF" d="M66.273 55.454H69v2.727h-2.727z"></path><defs><filter id="ResultEmpty_svg__filter0_f_26948_151546" x="25.364" y="6.364" width="83.636" height="83.636" filterUnits="userSpaceOnUse" color-interpolation-filters="sRGB"><feFlood flood-opacity="0" result="BackgroundImageFix"></feFlood><feBlend in="SourceGraphic" in2="BackgroundImageFix" result="shape"></feBlend><feGaussianBlur stdDeviation="9.091" result="effect1_foregroundBlur_26948_151546"></feGaussianBlur></filter><filter id="ResultEmpty_svg__filter1_d_26948_151546" x="32.182" y="25" width="70" height="58.182" filterUnits="userSpaceOnUse" color-interpolation-filters="sRGB"><feFlood flood-opacity="0" result="BackgroundImageFix"></feFlood><feColorMatrix in="SourceAlpha" values="0 0 0 0 0 0 0 0 0 0 0 0 0 0 0 0 0 0 127 0" result="hardAlpha"></feColorMatrix><feOffset dy="4.545"></feOffset><feGaussianBlur stdDeviation="4.545"></feGaussianBlur><feColorMatrix values="0 0 0 0 0 0 0 0 0 0 0 0 0 0 0 0 0 0 0.03 0"></feColorMatrix><feBlend in2="BackgroundImageFix" result="effect1_dropShadow_26948_151546"></feBlend><feBlend in="SourceGraphic" in2="effect1_dropShadow_26948_151546" result="shape"></feBlend></filter></defs></svg>