<svg width="300" height="220" viewBox="0 0 300 220" fill="none" xmlns="http://www.w3.org/2000/svg"><rect width="300" height="220" fill="white"></rect><circle cx="146" cy="110" r="90" fill="#E8F2FF"></circle><g filter="url(#filter0_f_51544_172366)"><circle cx="146" cy="110" r="70" fill="#E9F1FE"></circle></g><g filter="url(#filter1_d_51544_172366)"><rect x="66" y="41" width="160" height="132" rx="2" fill="white"></rect></g><path d="M66 43C66 41.8954 66.8954 41 68 41H224C225.105 41 226 41.8954 226 43V58H66V43Z" fill="url(#paint0_linear_51544_172366)"></path><circle cx="74" cy="49" r="2" fill="#4D5677"></circle><circle cx="81" cy="49" r="2" fill="#4D5677"></circle><circle cx="88" cy="49" r="2" fill="#4D5677"></circle><rect x="73.5" y="68.4994" width="145" height="20" rx="1" fill="#EEF1F6"></rect><circle cx="81" cy="78.2495" r="3.3" stroke="#BEC7D6" stroke-width="1.4"></circle><path d="M83.7498 80.9994L85.9998 83.4994" stroke="#BEC7D6" stroke-width="1.4" stroke-linecap="round"></path><rect x="90.5" y="72.4994" width="1.2" height="12" rx="0.6" fill="#BEC7D6"></rect><path d="M99.9148 73.4994V82.4994H98.3621V73.4994H99.9148ZM99.6687 79.101H99.2117C99.2117 78.6595 99.2703 78.2533 99.3875 77.8822C99.5046 77.5111 99.6707 77.1888 99.8855 76.9154C100.1 76.6381 100.356 76.4232 100.653 76.2709C100.954 76.1185 101.286 76.0424 101.649 76.0424C101.962 76.0424 102.245 76.0873 102.499 76.1771C102.757 76.2631 102.977 76.4017 103.161 76.5931C103.344 76.7845 103.485 77.0345 103.583 77.3431C103.684 77.6478 103.735 78.0189 103.735 78.4564V82.4994H102.177V78.4447C102.177 78.1517 102.134 77.9213 102.048 77.7533C101.962 77.5814 101.839 77.4584 101.678 77.3842C101.522 77.3099 101.329 77.2728 101.098 77.2728C100.848 77.2728 100.634 77.3217 100.454 77.4193C100.274 77.5131 100.126 77.6439 100.009 77.8119C99.8953 77.9799 99.8093 78.1732 99.7507 78.392C99.696 78.6107 99.6687 78.847 99.6687 79.101ZM108.22 76.1595V77.2728H104.588V76.1595H108.22ZM105.56 74.601H107.113V80.6713C107.113 80.8588 107.138 81.0033 107.189 81.1049C107.24 81.2064 107.316 81.2748 107.418 81.3099C107.519 81.3451 107.64 81.3627 107.781 81.3627C107.882 81.3627 107.976 81.3568 108.062 81.3451C108.148 81.3334 108.22 81.3217 108.279 81.3099L108.285 82.4701C108.156 82.5131 108.009 82.5482 107.845 82.5756C107.685 82.6029 107.504 82.6166 107.3 82.6166C106.953 82.6166 106.648 82.558 106.386 82.4408C106.125 82.3197 105.922 82.1263 105.777 81.8607C105.632 81.5912 105.56 81.2357 105.56 80.7943V74.601ZM112.372 76.1595V77.2728H108.739V76.1595H112.372ZM109.711 74.601H111.264V80.6713C111.264 80.8588 111.29 81.0033 111.34 81.1049C111.391 81.2064 111.467 81.2748 111.569 81.3099C111.67 81.3451 111.792 81.3627 111.932 81.3627C112.034 81.3627 112.127 81.3568 112.213 81.3451C112.299 81.3334 112.372 81.3217 112.43 81.3099L112.436 82.4701C112.307 82.5131 112.161 82.5482 111.997 82.5756C111.836 82.6029 111.655 82.6166 111.452 82.6166C111.104 82.6166 110.799 82.558 110.538 82.4408C110.276 82.3197 110.073 82.1263 109.928 81.8607C109.784 81.5912 109.711 81.2357 109.711 80.7943V74.601ZM115.07 77.3783V84.9369H113.517V76.1595H114.953L115.07 77.3783ZM119.142 79.265V79.3881C119.142 79.849 119.087 80.2767 118.978 80.6713C118.872 81.0619 118.716 81.4037 118.509 81.6967C118.302 81.9857 118.044 82.2123 117.736 82.3763C117.431 82.5365 117.079 82.6166 116.681 82.6166C116.29 82.6166 115.951 82.5424 115.662 82.3939C115.372 82.2416 115.128 82.0267 114.929 81.7494C114.73 81.472 114.57 81.1498 114.449 80.7826C114.331 80.4115 114.244 80.0072 114.185 79.5697V79.1771C114.244 78.7123 114.331 78.2904 114.449 77.9115C114.57 77.5287 114.73 77.1986 114.929 76.9213C115.128 76.64 115.37 76.4232 115.656 76.2709C115.945 76.1185 116.283 76.0424 116.669 76.0424C117.072 76.0424 117.425 76.1185 117.73 76.2709C118.038 76.4232 118.298 76.642 118.509 76.9271C118.72 77.2123 118.878 77.5521 118.984 77.9467C119.089 78.3412 119.142 78.7806 119.142 79.265ZM117.589 79.3881V79.265C117.589 78.9838 117.564 78.724 117.513 78.4857C117.462 78.2435 117.384 78.0326 117.279 77.8529C117.173 77.6693 117.037 77.5267 116.869 77.4252C116.701 77.3236 116.497 77.2728 116.259 77.2728C116.021 77.2728 115.816 77.3119 115.644 77.39C115.472 77.4681 115.331 77.5795 115.222 77.724C115.113 77.8685 115.027 78.0404 114.964 78.2396C114.906 78.4349 114.867 78.6517 114.847 78.89V79.8627C114.882 80.1517 114.951 80.4115 115.052 80.642C115.154 80.8724 115.302 81.056 115.497 81.1927C115.697 81.3295 115.954 81.3978 116.271 81.3978C116.509 81.3978 116.712 81.3451 116.88 81.2396C117.048 81.1342 117.185 80.9896 117.29 80.806C117.396 80.6185 117.472 80.4037 117.519 80.1615C117.566 79.9193 117.589 79.6615 117.589 79.3881ZM120.428 81.7435C120.428 81.5092 120.508 81.3119 120.668 81.1517C120.828 80.9916 121.045 80.9115 121.319 80.9115C121.592 80.9115 121.809 80.9916 121.969 81.1517C122.129 81.3119 122.209 81.5092 122.209 81.7435C122.209 81.974 122.129 82.1693 121.969 82.3295C121.809 82.4857 121.592 82.5638 121.319 82.5638C121.045 82.5638 120.828 82.4857 120.668 82.3295C120.508 82.1693 120.428 81.974 120.428 81.7435ZM120.434 76.8275C120.434 76.5931 120.514 76.3959 120.674 76.2357C120.834 76.0756 121.051 75.9955 121.324 75.9955C121.598 75.9955 121.815 76.0756 121.975 76.2357C122.135 76.3959 122.215 76.5931 122.215 76.8275C122.215 77.058 122.135 77.2533 121.975 77.4135C121.815 77.5697 121.598 77.6478 121.324 77.6478C121.051 77.6478 120.834 77.5697 120.674 77.4135C120.514 77.2533 120.434 77.058 120.434 76.8275ZM127.45 73.9681L124.228 83.2318H123.05L126.273 73.9681H127.45ZM130.758 73.9681L127.535 83.2318H126.357L129.58 73.9681H130.758ZM131.845 81.7435C131.845 81.5092 131.925 81.3119 132.085 81.1517C132.245 80.9916 132.462 80.9115 132.735 80.9115C133.009 80.9115 133.225 80.9916 133.386 81.1517C133.546 81.3119 133.626 81.5092 133.626 81.7435C133.626 81.974 133.546 82.1693 133.386 82.3295C133.225 82.4857 133.009 82.5638 132.735 82.5638C132.462 82.5638 132.245 82.4857 132.085 82.3295C131.925 82.1693 131.845 81.974 131.845 81.7435ZM137.912 81.3978C138.131 81.3978 138.326 81.3549 138.498 81.2689C138.67 81.183 138.806 81.0619 138.908 80.9056C139.013 80.7494 139.07 80.5677 139.078 80.3607H140.537C140.529 80.7904 140.408 81.1752 140.174 81.515C139.939 81.8549 139.627 82.1244 139.236 82.3236C138.849 82.5189 138.416 82.6166 137.935 82.6166C137.447 82.6166 137.021 82.5345 136.658 82.3705C136.295 82.2064 135.992 81.9779 135.75 81.6849C135.512 81.392 135.332 81.0521 135.211 80.6654C135.094 80.2787 135.035 79.8646 135.035 79.4232V79.2357C135.035 78.7943 135.094 78.3802 135.211 77.9935C135.332 77.6068 135.512 77.267 135.75 76.974C135.992 76.681 136.295 76.4525 136.658 76.2885C137.021 76.1244 137.445 76.0424 137.929 76.0424C138.441 76.0424 138.89 76.142 139.277 76.3412C139.668 76.5404 139.972 76.8217 140.191 77.1849C140.414 77.5482 140.529 77.976 140.537 78.4681H139.078C139.07 78.2416 139.019 78.0385 138.926 77.8588C138.832 77.6791 138.699 77.5345 138.527 77.4252C138.355 77.3158 138.146 77.2611 137.9 77.2611C137.638 77.2611 137.42 77.3158 137.244 77.4252C137.072 77.5345 136.937 77.6849 136.84 77.8763C136.746 78.0638 136.679 78.2748 136.64 78.5092C136.605 78.7396 136.588 78.9818 136.588 79.2357V79.4232C136.588 79.681 136.605 79.9271 136.64 80.1615C136.679 80.3959 136.746 80.6068 136.84 80.7943C136.937 80.9779 137.072 81.1244 137.244 81.2338C137.42 81.3431 137.642 81.3978 137.912 81.3978ZM141.413 79.3939V79.2709C141.413 78.806 141.479 78.3783 141.612 77.9877C141.745 77.5931 141.938 77.2513 142.192 76.9623C142.446 76.6732 142.757 76.4486 143.124 76.2885C143.491 76.1244 143.909 76.0424 144.378 76.0424C144.854 76.0424 145.276 76.1244 145.643 76.2885C146.014 76.4486 146.327 76.6732 146.581 76.9623C146.835 77.2513 147.028 77.5931 147.161 77.9877C147.294 78.3783 147.36 78.806 147.36 79.2709V79.3939C147.36 79.8549 147.294 80.2826 147.161 80.6771C147.028 81.0677 146.835 81.4095 146.581 81.7025C146.327 81.9916 146.016 82.2162 145.649 82.3763C145.282 82.5365 144.862 82.6166 144.389 82.6166C143.921 82.6166 143.501 82.5365 143.13 82.3763C142.758 82.2162 142.446 81.9916 142.192 81.7025C141.938 81.4095 141.745 81.0677 141.612 80.6771C141.479 80.2826 141.413 79.8549 141.413 79.3939ZM142.96 79.2709V79.3939C142.96 79.6713 142.987 79.931 143.042 80.1732C143.096 80.4154 143.18 80.6283 143.294 80.8119C143.407 80.9955 143.553 81.14 143.733 81.2455C143.917 81.347 144.135 81.3978 144.389 81.3978C144.639 81.3978 144.854 81.347 145.034 81.2455C145.214 81.14 145.36 80.9955 145.473 80.8119C145.59 80.6283 145.676 80.4154 145.731 80.1732C145.786 79.931 145.813 79.6713 145.813 79.3939V79.2709C145.813 78.9974 145.786 78.7416 145.731 78.5033C145.676 78.2611 145.59 78.0482 145.473 77.8646C145.36 77.6771 145.212 77.5306 145.028 77.4252C144.848 77.3158 144.632 77.2611 144.378 77.2611C144.128 77.2611 143.913 77.3158 143.733 77.4252C143.553 77.5306 143.407 77.6771 143.294 77.8646C143.18 78.0482 143.096 78.2611 143.042 78.5033C142.987 78.7416 142.96 78.9974 142.96 79.2709ZM150.146 77.4603V82.4994H148.599V76.1595H150.058L150.146 77.4603ZM149.918 79.101H149.443C149.443 78.6595 149.496 78.2533 149.601 77.8822C149.71 77.5111 149.871 77.1888 150.082 76.9154C150.293 76.6381 150.552 76.4232 150.861 76.2709C151.173 76.1185 151.535 76.0424 151.945 76.0424C152.23 76.0424 152.492 76.0853 152.73 76.1713C152.968 76.2533 153.173 76.3842 153.345 76.5638C153.521 76.7396 153.656 76.9701 153.75 77.2552C153.843 77.5365 153.89 77.8744 153.89 78.2689V82.4994H152.343V78.4271C152.343 78.1302 152.3 77.8978 152.214 77.7299C152.132 77.5619 152.013 77.4447 151.857 77.3783C151.701 77.308 151.513 77.2728 151.294 77.2728C151.052 77.2728 150.843 77.3217 150.668 77.4193C150.496 77.5131 150.353 77.6439 150.24 77.8119C150.13 77.9799 150.048 78.1732 149.994 78.392C149.943 78.6107 149.918 78.847 149.918 79.101ZM153.773 78.8138L153.134 78.931C153.138 78.5326 153.193 78.1595 153.298 77.8119C153.404 77.4603 153.558 77.1537 153.761 76.892C153.968 76.6263 154.224 76.4193 154.529 76.2709C154.837 76.1185 155.193 76.0424 155.595 76.0424C155.908 76.0424 156.189 76.0873 156.439 76.1771C156.693 76.2631 156.91 76.4017 157.089 76.5931C157.269 76.7806 157.406 77.0248 157.5 77.3256C157.597 77.6263 157.646 77.9935 157.646 78.4271V82.4994H156.087V78.4213C156.087 78.1127 156.044 77.8763 155.959 77.7123C155.877 77.5482 155.757 77.4349 155.601 77.3724C155.445 77.306 155.261 77.2728 155.05 77.2728C154.835 77.2728 154.648 77.3138 154.488 77.3959C154.332 77.474 154.199 77.5834 154.089 77.724C153.984 77.8646 153.904 78.0287 153.849 78.2162C153.798 78.3998 153.773 78.599 153.773 78.8138ZM162.823 73.9681L159.6 83.2318H158.422L161.645 73.9681H162.823ZM163.892 78.4271L165.146 76.8217L163.306 76.2943L163.64 75.2924L165.456 76.0072L165.357 73.9681H166.435L166.329 76.0424L168.117 75.3392L168.439 76.3529L166.57 76.8861L167.794 78.4564L166.921 79.0775L165.837 77.3666L164.765 79.0248L163.892 78.4271ZM169.403 78.4271L170.656 76.8217L168.817 76.2943L169.151 75.2924L170.967 76.0072L170.867 73.9681H171.945L171.84 76.0424L173.627 75.3392L173.949 76.3529L172.08 76.8861L173.305 78.4564L172.432 79.0775L171.348 77.3666L170.276 79.0248L169.403 78.4271ZM174.913 78.4271L176.167 76.8217L174.327 76.2943L174.661 75.2924L176.478 76.0072L176.378 73.9681H177.456L177.351 76.0424L179.138 75.3392L179.46 76.3529L177.591 76.8861L178.815 78.4564L177.942 79.0775L176.858 77.3666L175.786 79.0248L174.913 78.4271Z" fill="#BEC7D6"></path><g filter="url(#filter2_d_51544_172366)"><rect x="60.2959" y="112.296" width="170" height="40" rx="2" fill="white"></rect></g><rect x="65.2959" y="119.796" width="160" height="25" rx="1.5" fill="#EEF1F6"></rect><rect x="158.296" y="124.296" width="2" height="16" rx="1" fill="#356DFF"></rect><path d="M77.1162 126.421L72.8193 138.772H71.249L75.5459 126.421H77.1162ZM83.1278 135.483C83.1278 135.306 83.0809 135.147 82.9871 135.007C82.8934 134.866 82.7163 134.738 82.4559 134.624C82.2007 134.504 81.8257 134.392 81.3309 134.288C80.8934 134.194 80.4898 134.077 80.12 133.936C79.7502 133.796 79.4325 133.627 79.1668 133.429C78.9012 133.225 78.6929 132.988 78.5418 132.718C78.396 132.442 78.3231 132.124 78.3231 131.765C78.3231 131.416 78.3986 131.087 78.5496 130.78C78.7007 130.468 78.9194 130.194 79.2059 129.96C79.4924 129.72 79.8413 129.533 80.2528 129.397C80.6642 129.257 81.1278 129.186 81.6434 129.186C82.3621 129.186 82.9793 129.304 83.495 129.538C84.0158 129.772 84.4142 130.095 84.6903 130.507C84.9663 130.913 85.1043 131.371 85.1043 131.882H83.0418C83.0418 131.658 82.9898 131.455 82.8856 131.272C82.7866 131.09 82.633 130.944 82.4246 130.835C82.2163 130.72 81.9533 130.663 81.6356 130.663C81.3491 130.663 81.1069 130.71 80.909 130.804C80.7163 130.897 80.5705 131.02 80.4715 131.171C80.3726 131.322 80.3231 131.488 80.3231 131.671C80.3231 131.806 80.3491 131.929 80.4012 132.038C80.4585 132.142 80.5496 132.238 80.6746 132.327C80.7996 132.416 80.9689 132.496 81.1825 132.569C81.4012 132.642 81.6694 132.712 81.9871 132.78C82.6174 132.905 83.1668 133.072 83.6356 133.28C84.1095 133.483 84.4793 133.754 84.745 134.093C85.0106 134.431 85.1434 134.863 85.1434 135.39C85.1434 135.765 85.0627 136.108 84.9012 136.421C84.7398 136.728 84.5054 136.996 84.1981 137.225C83.8908 137.455 83.5236 137.634 83.0965 137.765C82.6694 137.89 82.1877 137.952 81.6512 137.952C80.8752 137.952 80.2189 137.814 79.6825 137.538C79.146 137.257 78.7398 136.903 78.4637 136.475C78.1877 136.043 78.0496 135.595 78.0496 135.132H80.0262C80.0418 135.46 80.1304 135.723 80.2918 135.921C80.4533 136.119 80.6564 136.262 80.9012 136.35C81.1512 136.434 81.4142 136.475 81.6903 136.475C82.0028 136.475 82.2658 136.434 82.4793 136.35C82.6929 136.262 82.8543 136.145 82.9637 135.999C83.0731 135.848 83.1278 135.676 83.1278 135.483ZM91.53 135.999V132.1C91.53 131.814 91.4805 131.567 91.3815 131.358C91.2826 131.15 91.1315 130.988 90.9284 130.874C90.7253 130.759 90.4675 130.702 90.155 130.702C89.8789 130.702 89.6367 130.749 89.4284 130.843C89.2253 130.936 89.069 131.069 88.9596 131.241C88.8503 131.408 88.7956 131.6 88.7956 131.819H86.7253C86.7253 131.47 86.8086 131.14 86.9753 130.827C87.1419 130.509 87.3789 130.228 87.6862 129.983C87.9987 129.733 88.3711 129.538 88.8034 129.397C89.2409 129.257 89.7305 129.186 90.2721 129.186C90.9128 129.186 91.4831 129.296 91.9831 129.515C92.4883 129.728 92.8841 130.051 93.1706 130.483C93.4623 130.916 93.6081 131.46 93.6081 132.116V135.804C93.6081 136.225 93.6341 136.587 93.6862 136.89C93.7435 137.186 93.8268 137.444 93.9362 137.663V137.796H91.8346C91.7357 137.582 91.6602 137.311 91.6081 136.983C91.556 136.65 91.53 136.322 91.53 135.999ZM91.819 132.647L91.8346 133.874H90.53C90.207 133.874 89.9232 133.908 89.6784 133.975C89.4336 134.038 89.2331 134.132 89.0768 134.257C88.9206 134.377 88.8034 134.522 88.7253 134.694C88.6471 134.861 88.6081 135.051 88.6081 135.265C88.6081 135.473 88.655 135.66 88.7487 135.827C88.8477 135.994 88.9883 136.127 89.1706 136.225C89.3581 136.319 89.5768 136.366 89.8268 136.366C90.1914 136.366 90.5091 136.293 90.78 136.147C91.0508 135.996 91.2617 135.814 91.4128 135.6C91.5638 135.387 91.6445 135.184 91.655 134.991L92.2487 135.882C92.1758 136.095 92.0664 136.322 91.9206 136.561C91.7748 136.801 91.5873 137.025 91.3581 137.233C91.1289 137.442 90.8529 137.613 90.53 137.749C90.207 137.884 89.832 137.952 89.405 137.952C88.8581 137.952 88.3685 137.843 87.9362 137.624C87.5039 137.405 87.1628 137.106 86.9128 136.725C86.6628 136.345 86.5378 135.913 86.5378 135.429C86.5378 134.981 86.6211 134.585 86.7878 134.241C86.9544 133.897 87.2018 133.608 87.53 133.374C87.8581 133.134 88.2643 132.955 88.7487 132.835C89.2383 132.71 89.7982 132.647 90.4284 132.647H91.819ZM97.6821 131.077V137.796H95.6196V129.343H97.565L97.6821 131.077ZM97.3775 133.265H96.7446C96.7446 132.676 96.815 132.134 96.9556 131.64C97.1014 131.145 97.315 130.715 97.5962 130.35C97.8775 129.981 98.2238 129.694 98.6353 129.491C99.0519 129.288 99.5337 129.186 100.081 129.186C100.461 129.186 100.81 129.244 101.127 129.358C101.445 129.468 101.719 129.642 101.948 129.882C102.182 130.116 102.362 130.423 102.487 130.804C102.612 131.179 102.674 131.629 102.674 132.155V137.796H100.612V132.366C100.612 131.97 100.555 131.66 100.44 131.436C100.331 131.212 100.172 131.056 99.9634 130.968C99.7551 130.874 99.5051 130.827 99.2134 130.827C98.8905 130.827 98.6118 130.892 98.3775 131.022C98.1483 131.147 97.9582 131.322 97.8071 131.546C97.6613 131.77 97.5519 132.028 97.479 132.319C97.4113 132.611 97.3775 132.926 97.3775 133.265ZM102.518 132.882L101.667 133.038C101.672 132.507 101.745 132.009 101.885 131.546C102.026 131.077 102.232 130.668 102.502 130.319C102.779 129.965 103.12 129.689 103.526 129.491C103.937 129.288 104.411 129.186 104.948 129.186C105.364 129.186 105.739 129.246 106.073 129.366C106.411 129.481 106.7 129.666 106.94 129.921C107.18 130.171 107.362 130.496 107.487 130.897C107.617 131.298 107.682 131.788 107.682 132.366V137.796H105.604V132.358C105.604 131.947 105.547 131.632 105.432 131.413C105.323 131.194 105.164 131.043 104.956 130.96C104.747 130.871 104.502 130.827 104.221 130.827C103.935 130.827 103.685 130.882 103.471 130.991C103.263 131.095 103.086 131.241 102.94 131.429C102.799 131.616 102.693 131.835 102.62 132.085C102.552 132.33 102.518 132.595 102.518 132.882ZM111.756 130.968V141.046H109.686V129.343H111.6L111.756 130.968ZM117.186 133.483V133.647C117.186 134.262 117.113 134.832 116.967 135.358C116.827 135.879 116.618 136.335 116.342 136.725C116.066 137.111 115.722 137.413 115.311 137.632C114.905 137.845 114.436 137.952 113.905 137.952C113.384 137.952 112.931 137.853 112.545 137.655C112.16 137.452 111.834 137.166 111.569 136.796C111.303 136.426 111.09 135.996 110.928 135.507C110.772 135.012 110.655 134.473 110.577 133.89V133.366C110.655 132.746 110.772 132.184 110.928 131.679C111.09 131.168 111.303 130.728 111.569 130.358C111.834 129.983 112.157 129.694 112.537 129.491C112.923 129.288 113.373 129.186 113.889 129.186C114.425 129.186 114.897 129.288 115.303 129.491C115.715 129.694 116.061 129.986 116.342 130.366C116.623 130.746 116.834 131.199 116.975 131.725C117.116 132.252 117.186 132.837 117.186 133.483ZM115.116 133.647V133.483C115.116 133.108 115.082 132.762 115.014 132.444C114.946 132.121 114.842 131.84 114.702 131.6C114.561 131.356 114.379 131.166 114.155 131.03C113.931 130.895 113.66 130.827 113.342 130.827C113.024 130.827 112.751 130.879 112.522 130.983C112.293 131.087 112.105 131.236 111.959 131.429C111.814 131.621 111.699 131.85 111.616 132.116C111.537 132.377 111.485 132.666 111.459 132.983V134.28C111.506 134.666 111.597 135.012 111.733 135.319C111.868 135.627 112.066 135.871 112.327 136.054C112.592 136.236 112.936 136.327 113.358 136.327C113.675 136.327 113.946 136.257 114.17 136.116C114.394 135.975 114.577 135.783 114.717 135.538C114.858 135.288 114.959 135.002 115.022 134.679C115.084 134.356 115.116 134.012 115.116 133.647ZM121.041 125.796V137.796H118.971V125.796H121.041ZM126.967 137.952C126.326 137.952 125.751 137.848 125.24 137.64C124.73 137.431 124.295 137.142 123.936 136.772C123.581 136.397 123.308 135.962 123.115 135.468C122.928 134.968 122.834 134.431 122.834 133.858V133.546C122.834 132.895 122.928 132.304 123.115 131.772C123.303 131.236 123.568 130.775 123.912 130.39C124.256 130.004 124.667 129.707 125.147 129.499C125.626 129.291 126.154 129.186 126.732 129.186C127.331 129.186 127.86 129.288 128.318 129.491C128.777 129.689 129.16 129.97 129.467 130.335C129.774 130.699 130.006 131.137 130.162 131.647C130.318 132.153 130.397 132.712 130.397 133.327V134.194H123.772V132.772H128.365V132.616C128.355 132.288 128.292 131.988 128.178 131.718C128.063 131.442 127.886 131.223 127.647 131.061C127.407 130.895 127.097 130.811 126.717 130.811C126.41 130.811 126.141 130.879 125.912 131.015C125.688 131.145 125.501 131.332 125.35 131.577C125.204 131.817 125.094 132.103 125.022 132.436C124.949 132.77 124.912 133.14 124.912 133.546V133.858C124.912 134.212 124.959 134.541 125.053 134.843C125.152 135.145 125.295 135.408 125.482 135.632C125.675 135.85 125.904 136.022 126.17 136.147C126.441 136.267 126.748 136.327 127.092 136.327C127.524 136.327 127.915 136.244 128.264 136.077C128.618 135.905 128.925 135.653 129.186 135.319L130.225 136.397C130.048 136.658 129.808 136.908 129.506 137.147C129.209 137.387 128.85 137.582 128.428 137.733C128.006 137.879 127.519 137.952 126.967 137.952ZM136.049 132.108V133.741H131.775V132.108H136.049ZM143.006 135.788V129.343H145.084V137.796H143.131L143.006 135.788ZM143.271 134.038L143.912 134.022C143.912 134.59 143.849 135.113 143.724 135.593C143.599 136.072 143.404 136.488 143.138 136.843C142.878 137.192 142.547 137.465 142.146 137.663C141.745 137.856 141.271 137.952 140.724 137.952C140.308 137.952 139.927 137.895 139.584 137.78C139.24 137.66 138.943 137.475 138.693 137.225C138.448 136.97 138.258 136.645 138.123 136.249C137.987 135.848 137.92 135.366 137.92 134.804V129.343H139.982V134.819C139.982 135.1 140.013 135.335 140.076 135.522C140.144 135.71 140.235 135.863 140.349 135.983C140.469 136.098 140.607 136.181 140.763 136.233C140.925 136.28 141.097 136.304 141.279 136.304C141.779 136.304 142.172 136.205 142.459 136.007C142.75 135.804 142.959 135.533 143.084 135.194C143.209 134.85 143.271 134.465 143.271 134.038ZM149.134 131.069V137.796H147.072V129.343H149.025L149.134 131.069ZM151.705 129.288L151.673 131.21C151.559 131.189 151.429 131.173 151.283 131.163C151.142 131.153 151.009 131.147 150.884 131.147C150.567 131.147 150.288 131.192 150.048 131.28C149.809 131.363 149.608 131.486 149.447 131.647C149.291 131.809 149.171 132.007 149.087 132.241C149.004 132.47 148.957 132.731 148.947 133.022L148.502 132.968C148.502 132.431 148.556 131.934 148.666 131.475C148.775 131.017 148.934 130.616 149.142 130.272C149.35 129.929 149.611 129.663 149.923 129.475C150.241 129.283 150.606 129.186 151.017 129.186C151.132 129.186 151.254 129.197 151.384 129.218C151.52 129.233 151.627 129.257 151.705 129.288ZM155.185 125.796V137.796H153.115V125.796H155.185Z" fill="#A9B2C7"></path><circle cx="218.963" cy="51.4994" r="20" fill="#356DFF"></circle><path d="M210.301 42.8373C207.704 45.4343 207.704 49.6449 210.301 52.2418L213.27 55.2117L214.755 53.7268L211.785 50.7569C210.009 48.98 210.009 46.0991 211.785 44.3223C213.562 42.5454 216.443 42.5454 218.22 44.3223L221.19 47.2921L222.675 45.8072L219.705 42.8373C217.108 40.2403 212.898 40.2403 210.301 42.8373Z" fill="white"></path><path d="M219.705 58.6765L217.725 56.6966L216.24 58.1815L218.22 60.1614C220.817 62.7584 225.028 62.7584 227.625 60.1614C230.222 57.5645 230.222 53.3539 227.625 50.7569L225.645 48.777L224.16 50.2619L226.14 52.2418C227.917 54.0187 227.917 56.8996 226.14 58.6765C224.363 60.4534 221.482 60.4534 219.705 58.6765Z" fill="white"></path><path d="M215.251 49.2719L221.685 55.7066L223.17 54.2216L216.736 47.787L215.251 49.2719Z" fill="white"></path><path d="M210.301 42.8373L210.631 43.1673L210.301 42.8373ZM210.301 52.2418L210.631 51.9119L210.301 52.2418ZM213.27 55.2117L212.94 55.5417L213.27 55.8717L213.6 55.5417L213.27 55.2117ZM214.755 53.7268L215.085 54.0568L215.415 53.7268L215.085 53.3968L214.755 53.7268ZM211.785 50.7569L211.455 51.0869L211.785 50.7569ZM218.22 44.3223L218.55 43.9923L218.22 44.3223ZM221.19 47.2921L220.86 47.6221L221.19 47.9521L221.52 47.6221L221.19 47.2921ZM222.675 45.8072L223.005 46.1372L223.335 45.8072L223.005 45.4772L222.675 45.8072ZM219.705 42.8373L219.375 43.1673L219.705 42.8373ZM219.705 58.6765L219.375 59.0065H219.375L219.705 58.6765ZM217.725 56.6966L218.055 56.3666L217.725 56.0367L217.395 56.3666L217.725 56.6966ZM216.24 58.1815L215.91 57.8516L215.58 58.1815L215.91 58.5115L216.24 58.1815ZM218.22 60.1614L217.89 60.4914L218.22 60.1614ZM227.625 60.1614L227.955 60.4914L227.625 60.1614ZM227.625 50.7569L227.955 50.4269L227.625 50.7569ZM225.645 48.777L225.975 48.447L225.645 48.1171L225.315 48.447L225.645 48.777ZM224.16 50.2619L223.83 49.932L223.5 50.2619L223.83 50.5919L224.16 50.2619ZM226.14 52.2418L226.47 51.9119V51.9119L226.14 52.2418ZM226.14 58.6765L226.47 59.0065L226.14 58.6765ZM215.251 49.2719L214.921 48.9419L214.591 49.2719L214.921 49.6019L215.251 49.2719ZM221.685 55.7066L221.355 56.0366L221.685 56.3665L222.015 56.0366L221.685 55.7066ZM223.17 54.2216L223.5 54.5516L223.83 54.2216L223.5 53.8917L223.17 54.2216ZM216.736 47.787L217.066 47.457L216.736 47.127L216.406 47.457L216.736 47.787ZM209.971 42.5073C207.191 45.2866 207.191 49.7926 209.971 52.5718L210.631 51.9119C208.216 49.4971 208.216 45.5821 210.631 43.1673L209.971 42.5073ZM209.971 52.5718L212.94 55.5417L213.6 54.8817L210.631 51.9119L209.971 52.5718ZM213.6 55.5417L215.085 54.0568L214.425 53.3968L212.94 54.8817L213.6 55.5417ZM215.085 53.3968L212.115 50.4269L211.455 51.0869L214.425 54.0568L215.085 53.3968ZM212.115 50.4269C210.521 48.8323 210.521 46.2469 212.115 44.6522L211.455 43.9923C209.496 45.9514 209.496 49.1278 211.455 51.0869L212.115 50.4269ZM212.115 44.6522C213.71 43.0576 216.295 43.0576 217.89 44.6522L218.55 43.9923C216.591 42.0331 213.415 42.0331 211.455 43.9923L212.115 44.6522ZM217.89 44.6522L220.86 47.6221L221.52 46.9621L218.55 43.9923L217.89 44.6522ZM221.52 47.6221L223.005 46.1372L222.345 45.4772L220.86 46.9621L221.52 47.6221ZM223.005 45.4772L220.035 42.5073L219.375 43.1673L222.345 46.1372L223.005 45.4772ZM220.035 42.5073C217.256 39.7281 212.75 39.7281 209.971 42.5073L210.631 43.1673C213.045 40.7526 216.96 40.7526 219.375 43.1673L220.035 42.5073ZM220.035 58.3465L218.055 56.3666L217.395 57.0266L219.375 59.0065L220.035 58.3465ZM217.395 56.3666L215.91 57.8516L216.57 58.5115L218.055 57.0266L217.395 56.3666ZM215.91 58.5115L217.89 60.4914L218.55 59.8315L216.57 57.8516L215.91 58.5115ZM217.89 60.4914C220.669 63.2707 225.175 63.2707 227.955 60.4914L227.295 59.8315C224.88 62.2462 220.965 62.2462 218.55 59.8315L217.89 60.4914ZM227.955 60.4914C230.734 57.7122 230.734 53.2062 227.955 50.4269L227.295 51.0869C229.709 53.5016 229.709 57.4167 227.295 59.8315L227.955 60.4914ZM227.955 50.4269L225.975 48.447L225.315 49.107L227.295 51.0869L227.955 50.4269ZM225.315 48.447L223.83 49.932L224.49 50.5919L225.975 49.107L225.315 48.447ZM223.83 50.5919L225.81 52.5718L226.47 51.9119L224.49 49.932L223.83 50.5919ZM225.81 52.5718C227.404 54.1665 227.404 56.7519 225.81 58.3465L226.47 59.0065C228.429 57.0474 228.429 53.871 226.47 51.9119L225.81 52.5718ZM225.81 58.3465C224.215 59.9412 221.63 59.9412 220.035 58.3465L219.375 59.0065C221.334 60.9656 224.511 60.9656 226.47 59.0065L225.81 58.3465ZM214.921 49.6019L221.355 56.0366L222.015 55.3766L215.581 48.9419L214.921 49.6019ZM222.015 56.0366L223.5 54.5516L222.84 53.8917L221.355 55.3766L222.015 56.0366ZM223.5 53.8917L217.066 47.457L216.406 48.117L222.84 54.5516L223.5 53.8917ZM216.406 47.457L214.921 48.9419L215.581 49.6019L217.066 48.117L216.406 47.457Z" fill="white"></path><path fill-rule="evenodd" clip-rule="evenodd" d="M137.359 106.5L128.378 106.5L144.833 118.79L161.288 106.5L150.889 106.5C152.544 99.4295 156.182 91.6648 168.513 85.5L122.079 85.5C122.229 85.599 122.383 85.6992 122.538 85.8007C127.306 88.9171 134.113 93.3666 137.359 106.5Z" fill="url(#paint1_linear_51544_172366)"></path><defs><filter id="filter0_f_51544_172366" x="36" y="0" width="220" height="220" filterUnits="userSpaceOnUse" color-interpolation-filters="sRGB"><feFlood flood-opacity="0" result="BackgroundImageFix"></feFlood><feBlend mode="normal" in="SourceGraphic" in2="BackgroundImageFix" result="shape"></feBlend><feGaussianBlur stdDeviation="20" result="effect1_foregroundBlur_51544_172366"></feGaussianBlur></filter><filter id="filter1_d_51544_172366" x="26" y="5" width="240" height="212" filterUnits="userSpaceOnUse" color-interpolation-filters="sRGB"><feFlood flood-opacity="0" result="BackgroundImageFix"></feFlood><feColorMatrix in="SourceAlpha" type="matrix" values="0 0 0 0 0 0 0 0 0 0 0 0 0 0 0 0 0 0 127 0" result="hardAlpha"></feColorMatrix><feOffset dy="4"></feOffset><feGaussianBlur stdDeviation="20"></feGaussianBlur><feColorMatrix type="matrix" values="0 0 0 0 0 0 0 0 0 0 0 0 0 0 0 0 0 0 0.12 0"></feColorMatrix><feBlend mode="normal" in2="BackgroundImageFix" result="effect1_dropShadow_51544_172366"></feBlend><feBlend mode="normal" in="SourceGraphic" in2="effect1_dropShadow_51544_172366" result="shape"></feBlend></filter><filter id="filter2_d_51544_172366" x="35.2959" y="91.2958" width="220" height="90" filterUnits="userSpaceOnUse" color-interpolation-filters="sRGB"><feFlood flood-opacity="0" result="BackgroundImageFix"></feFlood><feColorMatrix in="SourceAlpha" type="matrix" values="0 0 0 0 0 0 0 0 0 0 0 0 0 0 0 0 0 0 127 0" result="hardAlpha"></feColorMatrix><feOffset dy="4"></feOffset><feGaussianBlur stdDeviation="12.5"></feGaussianBlur><feComposite in2="hardAlpha" operator="out"></feComposite><feColorMatrix type="matrix" values="0 0 0 0 0 0 0 0 0 0 0 0 0 0 0 0 0 0 0.1 0"></feColorMatrix><feBlend mode="normal" in2="BackgroundImageFix" result="effect1_dropShadow_51544_172366"></feBlend><feBlend mode="normal" in="SourceGraphic" in2="effect1_dropShadow_51544_172366" result="shape"></feBlend></filter><linearGradient id="paint0_linear_51544_172366" x1="66" y1="49.5" x2="226" y2="49.5" gradientUnits="userSpaceOnUse"><stop stop-color="#59647C"></stop><stop offset="1" stop-color="#7A8499"></stop></linearGradient><linearGradient id="paint1_linear_51544_172366" x1="145.296" y1="87.8889" x2="145.296" y2="131.931" gradientUnits="userSpaceOnUse"><stop offset="0.0166812" stop-color="#DBE0E9" stop-opacity="0"></stop><stop offset="0.670587" stop-color="#B8BECC"></stop></linearGradient></defs></svg>