<svg width="32" height="32" viewBox="0 0 32 32" fill="none" xmlns="http://www.w3.org/2000/svg">
<g clip-path="url(#clip0_653_2550)">
<path d="M29.3535 0.00012207H23.5373C22.1305 0.00012207 20.9757 1.15496 20.9757 2.56176V10.0787H12.5559C11.1911 10.0787 10.0782 11.1916 10.0782 12.5774V20.9972H2.49828C1.11248 20.9972 -0.000366211 22.11 -0.000366211 23.4958V29.375C-0.000366211 30.7608 1.11248 31.8737 2.49828 31.9156H20.9967H23.5583H29.3745C30.7813 31.9156 31.9361 30.7608 31.9361 29.354V2.56176C31.9152 1.15496 30.7603 0.00012207 29.3535 0.00012207Z" fill="url(#paint0_linear_653_2550)"/>
<path d="M29.3535 0.00012207H23.5373C22.1305 0.00012207 20.9757 1.15496 20.9757 2.56176V10.0787H12.5559C11.1911 10.0787 10.0782 11.1916 10.0782 12.5774V20.9972H2.49828C1.11248 20.9972 -0.000366211 22.11 -0.000366211 23.4958V29.375C-0.000366211 30.7608 1.11248 31.8737 2.49828 31.9156H20.9967H23.5583H29.3745C30.7813 31.9156 31.9361 30.7608 31.9361 29.354V2.56176C31.9152 1.15496 30.7603 0.00012207 29.3535 0.00012207Z" fill="url(#paint1_linear_653_2550)"/>
<mask id="mask0_653_2550" style="mask-type:luminance" maskUnits="userSpaceOnUse" x="-1" y="0" width="33" height="32">
<path d="M29.3536 0H23.5794C22.1726 0 21.0178 1.15484 21.0178 2.56164V10.0786H12.619C11.2332 10.0786 10.0993 11.2124 10.0993 12.5982V20.9971H2.5194C1.1336 20.9971 -0.000244141 22.1309 -0.000244141 23.5167V29.3959C-0.000244141 30.7817 1.1336 31.9155 2.5194 31.9155H29.3536C30.7604 31.9155 31.9153 30.7607 31.9153 29.3539V2.56164C31.9153 1.15484 30.7604 0 29.3536 0Z" fill="white"/>
</mask>
<g mask="url(#mask0_653_2550)">
<path d="M29.3524 0H23.5782C22.1714 0 21.0166 1.15484 21.0166 2.56164V10.0786V31.9155H23.5782H29.3524C30.7592 31.9155 31.9141 30.7607 31.9141 29.3539V2.56164C31.9141 1.15484 30.7592 0 29.3524 0Z" fill="#F57C00"/>
<g filter="url(#filter0_d_653_2550)">
<path d="M10.0776 12.5983V20.9971H2.51867C1.13286 20.9971 -0.000976562 22.1309 -0.000976562 23.5167V29.3959C-0.000976562 30.7817 1.13286 31.9155 2.51867 31.9155H20.9961V10.0786H12.5973C11.2114 10.0786 10.0776 11.2125 10.0776 12.5983Z" fill="black"/>
</g>
<path d="M10.0776 12.5983V20.9971H2.51867C1.13286 20.9971 -0.000976562 22.1309 -0.000976562 23.5167V29.3959C-0.000976562 30.7817 1.13286 31.9155 2.51867 31.9155H20.9961V10.0786H12.5973C11.2114 10.0786 10.0776 11.2125 10.0776 12.5983Z" fill="#FFC107"/>
</g>
<mask id="mask1_653_2550" style="mask-type:luminance" maskUnits="userSpaceOnUse" x="-1" y="0" width="33" height="32">
<path d="M29.3536 0H23.5794C22.1726 0 21.0178 1.15484 21.0178 2.56164V10.0786H12.619C11.2332 10.0786 10.0993 11.2124 10.0993 12.5982V20.9971H2.5194C1.1336 20.9971 -0.000244141 22.1309 -0.000244141 23.5167V29.3959C-0.000244141 30.7817 1.1336 31.9155 2.5194 31.9155H29.3536C30.7604 31.9155 31.9153 30.7607 31.9153 29.3539V2.56164C31.9153 1.15484 30.7604 0 29.3536 0Z" fill="white"/>
</mask>
<g mask="url(#mask1_653_2550)">
<path d="M20.9956 10.0787V31.9157H23.5572H29.3314C30.7382 31.9157 31.8931 30.7608 31.8931 29.354V20.9972L20.9956 10.0787Z" fill="url(#paint2_linear_653_2550)"/>
</g>
<mask id="mask2_653_2550" style="mask-type:luminance" maskUnits="userSpaceOnUse" x="-1" y="0" width="33" height="32">
<path d="M29.3536 0H23.5794C22.1726 0 21.0178 1.15484 21.0178 2.56164V10.0786H12.619C11.2332 10.0786 10.0993 11.2124 10.0993 12.5982V20.9971H2.5194C1.1336 20.9971 -0.000244141 22.1309 -0.000244141 23.5167V29.3959C-0.000244141 30.7817 1.1336 31.9155 2.5194 31.9155H29.3536C30.7604 31.9155 31.9153 30.7607 31.9153 29.3539V2.56164C31.9153 1.15484 30.7604 0 29.3536 0Z" fill="white"/>
</mask>
<g mask="url(#mask2_653_2550)">
<path opacity="0.2" d="M12.5973 10.2887H20.9961V10.0787H12.5973C11.2115 10.0787 10.0776 11.2126 10.0776 12.5984V12.8084C10.0776 11.4225 11.2115 10.2887 12.5973 10.2887Z" fill="white"/>
</g>
<mask id="mask3_653_2550" style="mask-type:luminance" maskUnits="userSpaceOnUse" x="-1" y="0" width="33" height="32">
<path d="M29.3536 0H23.5794C22.1726 0 21.0178 1.15484 21.0178 2.56164V10.0786H12.619C11.2332 10.0786 10.0993 11.2124 10.0993 12.5982V20.9971H2.5194C1.1336 20.9971 -0.000244141 22.1309 -0.000244141 23.5167V29.3959C-0.000244141 30.7817 1.1336 31.9155 2.5194 31.9155H29.3536C30.7604 31.9155 31.9153 30.7607 31.9153 29.3539V2.56164C31.9153 1.15484 30.7604 0 29.3536 0Z" fill="white"/>
</mask>
<g mask="url(#mask3_653_2550)">
<path opacity="0.2" d="M2.51916 21.2072H10.0781V20.9972H2.51916C1.13335 20.9972 -0.000488281 22.131 -0.000488281 23.5168V23.7268C-0.000488281 22.341 1.13335 21.2072 2.51916 21.2072Z" fill="white"/>
</g>
<mask id="mask4_653_2550" style="mask-type:luminance" maskUnits="userSpaceOnUse" x="-1" y="0" width="33" height="32">
<path d="M29.3536 0H23.5794C22.1726 0 21.0178 1.15484 21.0178 2.56164V10.0786H12.619C11.2332 10.0786 10.0993 11.2124 10.0993 12.5982V20.9971H2.5194C1.1336 20.9971 -0.000244141 22.1309 -0.000244141 23.5167V29.3959C-0.000244141 30.7817 1.1336 31.9155 2.5194 31.9155H29.3536C30.7604 31.9155 31.9153 30.7607 31.9153 29.3539V2.56164C31.9153 1.15484 30.7604 0 29.3536 0Z" fill="white"/>
</mask>
<g mask="url(#mask4_653_2550)">
<path opacity="0.2" d="M29.3529 0.00012207H23.5787C22.1719 0.00012207 21.0171 1.15496 21.0171 2.56176V2.77173C21.0171 1.36493 22.1719 0.210093 23.5787 0.210093H29.3529C30.7597 0.210093 31.9146 1.36493 31.9146 2.77173V2.56176C31.9146 1.15496 30.7597 0.00012207 29.3529 0.00012207Z" fill="white"/>
</g>
<mask id="mask5_653_2550" style="mask-type:luminance" maskUnits="userSpaceOnUse" x="-1" y="0" width="33" height="32">
<path d="M29.3536 0H23.5794C22.1726 0 21.0178 1.15484 21.0178 2.56164V10.0786H12.619C11.2332 10.0786 10.0993 11.2124 10.0993 12.5982V20.9971H2.5194C1.1336 20.9971 -0.000244141 22.1309 -0.000244141 23.5167V29.3959C-0.000244141 30.7817 1.1336 31.9155 2.5194 31.9155H29.3536C30.7604 31.9155 31.9153 30.7607 31.9153 29.3539V2.56164C31.9153 1.15484 30.7604 0 29.3536 0Z" fill="white"/>
</mask>
<g mask="url(#mask5_653_2550)">
<path opacity="0.2" d="M29.3534 31.7058H23.5792H20.9966H2.51916C1.13335 31.7058 -0.000488281 30.572 -0.000488281 29.1862V29.3961C-0.000488281 30.7819 1.13335 31.9158 2.51916 31.9158H20.9966H23.5582H29.3324C30.7392 31.9158 31.894 30.7609 31.894 29.3541L31.8943 29.1442C31.915 30.551 30.7602 31.7058 29.3534 31.7058Z" fill="#BF360C"/>
</g>
<path d="M29.3535 0.00012207H23.5793C22.1725 0.00012207 21.0177 1.15496 21.0177 2.56176V10.0787H12.6189C11.2331 10.0787 10.0992 11.2125 10.0992 12.5984V20.9972H2.51928C1.13347 20.9972 -0.000366211 22.131 -0.000366211 23.5168V29.396C-0.000366211 30.7818 1.13347 31.9156 2.51928 31.9156H29.3535C30.7603 31.9156 31.9152 30.7608 31.9152 29.354V2.56176C31.9152 1.15496 30.7603 0.00012207 29.3535 0.00012207Z" fill="url(#paint3_linear_653_2550)"/>
</g>
<defs>
<filter id="filter0_d_653_2550" x="-19.201" y="-5.92139" width="59.3971" height="60.2369" filterUnits="userSpaceOnUse" color-interpolation-filters="sRGB">
<feFlood flood-opacity="0" result="BackgroundImageFix"/>
<feColorMatrix in="SourceAlpha" type="matrix" values="0 0 0 0 0 0 0 0 0 0 0 0 0 0 0 0 0 0 127 0" result="hardAlpha"/>
<feOffset dy="3.2"/>
<feGaussianBlur stdDeviation="9.6"/>
<feColorMatrix type="matrix" values="0 0 0 0 0 0 0 0 0 0 0 0 0 0 0 0 0 0 0.2 0"/>
<feBlend mode="normal" in2="BackgroundImageFix" result="effect1_dropShadow_653_2550"/>
<feBlend mode="normal" in="SourceGraphic" in2="effect1_dropShadow_653_2550" result="shape"/>
</filter>
<linearGradient id="paint0_linear_653_2550" x1="-0.000366211" y1="1595.78" x2="3191.55" y2="1595.78" gradientUnits="userSpaceOnUse">
<stop stop-color="white" stop-opacity="0.1"/>
<stop offset="1" stop-color="white" stop-opacity="0"/>
</linearGradient>
<linearGradient id="paint1_linear_653_2550" x1="-0.000366211" y1="1595.78" x2="3191.55" y2="1595.78" gradientUnits="userSpaceOnUse">
<stop stop-color="white" stop-opacity="0.1"/>
<stop offset="1" stop-color="white" stop-opacity="0"/>
</linearGradient>
<linearGradient id="paint2_linear_653_2550" x1="-519.678" y1="561.251" x2="1310.44" y2="1017.02" gradientUnits="userSpaceOnUse">
<stop stop-color="#BF360C" stop-opacity="0.2"/>
<stop offset="1" stop-color="#BF360C" stop-opacity="0.02"/>
</linearGradient>
<linearGradient id="paint3_linear_653_2550" x1="1070.12" y1="1071.58" x2="3134.67" y2="3136.14" gradientUnits="userSpaceOnUse">
<stop stop-color="white" stop-opacity="0.1"/>
<stop offset="1" stop-color="white" stop-opacity="0"/>
</linearGradient>
<clipPath id="clip0_653_2550">
<rect width="32" height="32" fill="white"/>
</clipPath>
</defs>
</svg>
