<svg width="32" height="32" viewBox="0 0 32 32" fill="none" xmlns="http://www.w3.org/2000/svg">
<path fill-rule="evenodd" clip-rule="evenodd" d="M3.90322 1C2.29982 1 1 2.29981 1 3.90322V21.3225C1 22.9259 2.29981 24.2258 3.90322 24.2258H28.0967C29.7001 24.2258 30.9999 22.9259 30.9999 21.3225V3.90322C30.9999 2.29982 29.7001 1 28.0967 1H3.90322ZM8.22738 16.9908C7.95928 17.9253 7.53799 18.3083 6.78731 18.3083C5.89876 18.3083 5.3549 17.8027 5.3549 16.9678C5.3549 16.7303 5.4315 16.3856 5.55406 16.0486L8.281 8.55717C8.68698 7.43116 9.36872 6.91794 10.4641 6.91794C11.6207 6.91794 12.2948 7.40818 12.7161 8.55717L15.466 16.0486C15.5963 16.4086 15.6499 16.6691 15.6499 16.9601C15.6499 17.7491 15.0601 18.3083 14.2404 18.3083C13.4285 18.3083 13.0072 17.9406 12.7621 17.0367L12.3867 15.8111H8.60272L8.22738 16.9908ZM10.4181 9.43041L9.1619 13.6893H11.7739L10.4794 9.43041H10.4181ZM21.9783 18.1398H18.899C18.0104 18.1398 17.4896 17.6036 17.4896 16.6691V8.55717C17.4896 7.62266 18.0104 7.08646 18.899 7.08646H21.9783C25.318 7.08646 27.279 9.02443 27.279 12.548C27.279 16.0792 25.3104 18.1398 21.9783 18.1398ZM20.3008 9.35381V15.8724H21.6106C23.4413 15.8724 24.4218 14.7617 24.4218 12.5557C24.4218 10.4798 23.3877 9.35381 21.6106 9.35381H20.3008Z" fill="#3A7DFF"/>
<path fill-rule="evenodd" clip-rule="evenodd" d="M1.00006 27.6135C1.00006 27.3463 1.2167 27.1296 1.48393 27.1296L30.5161 27.1296C30.7834 27.1296 31 27.3463 31 27.6135L31 30.5167C31 30.784 30.7834 31.0006 30.5161 31.0006L1.48393 31.0006C1.2167 31.0006 1.00006 30.784 1.00006 30.5167L1.00006 27.6135Z" fill="#3A7DFF"/>
</svg>
