<svg width="32" height="32" viewBox="0 0 32 32" fill="none" xmlns="http://www.w3.org/2000/svg">
<g clip-path="url(#clip0_653_2598)">
<mask id="mask0_653_2598" style="mask-type:luminance" maskUnits="userSpaceOnUse" x="-1" y="0" width="33" height="32">
<path d="M31.359 14.455L17.5448 0.640788C16.6905 -0.213515 15.309 -0.213515 14.4547 0.640788L0.640483 14.455C-0.21382 15.3093 -0.21382 16.6908 0.640483 17.5451L14.4547 31.3593C15.309 32.2136 16.6905 32.2136 17.5448 31.3593L31.359 17.5451C32.2133 16.6908 32.2133 15.3093 31.359 14.455ZM15.9998 19.6354L12.3644 16.0001L15.9998 12.3647L19.6351 16.0001L15.9998 19.6354Z" fill="white"/>
</mask>
<g mask="url(#mask0_653_2598)">
<path d="M31.322 14.4727L26.2487 9.39939L22.6249 5.77557L16.0114 12.389L19.6352 16.0129L16.0114 19.6367L9.39795 26.2501L14.4713 31.3235C15.3229 32.1751 16.6999 32.1751 17.5515 31.3235L22.6249 26.2501L26.2487 22.6263L31.322 17.553C32.1736 16.7014 32.1736 15.3243 31.322 14.4727Z" fill="#4285F4"/>
<path d="M22.6248 5.77564L17.5515 0.702296C16.6999 -0.149301 15.3228 -0.149301 14.4712 0.702296L9.39787 5.77564L5.77405 9.39946L0.700709 14.4728C-0.150887 15.3244 -0.150887 16.7014 0.700709 17.553L5.77405 22.6264L9.39787 26.2502L16.0113 19.6367L12.3875 16.0129L16.0113 12.3891L22.6248 5.77564Z" fill="#4FC3F7"/>
<mask id="mask1_653_2598" style="mask-type:luminance" maskUnits="userSpaceOnUse" x="0" y="0" width="32" height="32">
<path d="M31.322 14.4728L17.5515 0.702296C16.6999 -0.149301 15.3228 -0.149301 14.4712 0.702296L0.700709 14.4728C-0.150887 15.3244 -0.150887 16.7014 0.700709 17.553L14.4712 31.3235C15.3228 32.1751 16.6999 32.1751 17.5515 31.3235L31.322 17.553C32.1736 16.7014 32.1736 15.3244 31.322 14.4728ZM16.0113 19.6367L12.3875 16.0129L16.0113 12.3891L19.6351 16.0129L16.0113 19.6367Z" fill="white"/>
</mask>
<g mask="url(#mask1_653_2598)">
<path opacity="0.2" d="M14.4717 0.883548C15.3233 0.0319513 16.7004 0.0319513 17.552 0.883548L31.3225 14.6541C31.7211 15.0527 31.9385 15.5781 31.9566 16.1036C31.9748 15.5238 31.7754 14.9258 31.3225 14.4729L17.552 0.702357C16.7004 -0.14924 15.3233 -0.14924 14.4717 0.702357L0.701216 14.4729C0.248239 14.9258 0.0489287 15.5238 0.0670478 16.1036C0.0851669 15.5781 0.302596 15.0527 0.701216 14.6541L14.4717 0.883548Z" fill="white"/>
</g>
<mask id="mask2_653_2598" style="mask-type:luminance" maskUnits="userSpaceOnUse" x="0" y="0" width="32" height="32">
<path d="M31.322 14.4728L17.5515 0.702296C16.6999 -0.149301 15.3228 -0.149301 14.4712 0.702296L0.700709 14.4728C-0.150887 15.3244 -0.150887 16.7014 0.700709 17.553L14.4712 31.3235C15.3228 32.1751 16.6999 32.1751 17.5515 31.3235L31.322 17.553C32.1736 16.7014 32.1736 15.3244 31.322 14.4728ZM16.0113 19.6367L12.3875 16.0129L16.0113 12.3891L19.6351 16.0129L16.0113 19.6367Z" fill="white"/>
</mask>
<g mask="url(#mask2_653_2598)">
<path opacity="0.2" d="M31.3225 17.3721L17.552 31.1426C16.7004 31.9942 15.3233 31.9942 14.4717 31.1426L0.701216 17.3721C0.302596 16.9735 0.0851669 16.448 0.0670478 15.9225C0.0489287 16.5024 0.248239 17.1003 0.701216 17.5533L14.4717 31.3238C15.3233 32.1754 16.7004 32.1754 17.552 31.3238L31.3225 17.5533C31.7754 17.1003 31.9748 16.5205 31.9566 15.9225C31.9385 16.448 31.7211 16.9735 31.3225 17.3721Z" fill="#1A237E"/>
</g>
<mask id="mask3_653_2598" style="mask-type:luminance" maskUnits="userSpaceOnUse" x="0" y="0" width="32" height="32">
<path d="M31.322 14.4728L17.5515 0.702296C16.6999 -0.149301 15.3228 -0.149301 14.4712 0.702296L0.700709 14.4728C-0.150887 15.3244 -0.150887 16.7014 0.700709 17.553L14.4712 31.3235C15.3228 32.1751 16.6999 32.1751 17.5515 31.3235L31.322 17.553C32.1736 16.7014 32.1736 15.3244 31.322 14.4728ZM16.0113 19.6367L12.3875 16.0129L16.0113 12.3891L19.6351 16.0129L16.0113 19.6367Z" fill="white"/>
</mask>
<g mask="url(#mask3_653_2598)">
<path d="M16.0114 19.6369L9.39795 26.2504L14.4713 31.3237C15.3229 32.1753 16.6999 32.1753 17.5515 31.3237L22.6249 26.2504L16.0114 19.6369Z" fill="url(#paint0_linear_653_2598)"/>
</g>
<mask id="mask4_653_2598" style="mask-type:luminance" maskUnits="userSpaceOnUse" x="0" y="0" width="32" height="32">
<path d="M31.322 14.4728L17.5515 0.702296C16.6999 -0.149301 15.3228 -0.149301 14.4712 0.702296L0.700709 14.4728C-0.150887 15.3244 -0.150887 16.7014 0.700709 17.553L14.4712 31.3235C15.3228 32.1751 16.6999 32.1751 17.5515 31.3235L31.322 17.553C32.1736 16.7014 32.1736 15.3244 31.322 14.4728ZM16.0113 19.6367L12.3875 16.0129L16.0113 12.3891L19.6351 16.0129L16.0113 19.6367Z" fill="white"/>
</mask>
<g mask="url(#mask4_653_2598)">
<path d="M31.322 14.4728L17.5515 0.702296C16.6999 -0.149301 15.3228 -0.149301 14.4712 0.702296L0.700709 14.4728C-0.150887 15.3244 -0.150887 16.7014 0.700709 17.553L14.4712 31.3235C15.3228 32.1751 16.6999 32.1751 17.5515 31.3235L31.322 17.553C32.1736 16.7014 32.1736 15.3244 31.322 14.4728ZM16.0113 19.6367L12.3875 16.0129L16.0113 12.3891L19.6351 16.0129L16.0113 19.6367Z" fill="url(#paint1_linear_653_2598)"/>
</g>
<mask id="mask5_653_2598" style="mask-type:luminance" maskUnits="userSpaceOnUse" x="0" y="0" width="32" height="32">
<path d="M31.322 14.4728L17.5515 0.702296C16.6999 -0.149301 15.3228 -0.149301 14.4712 0.702296L0.700709 14.4728C-0.150887 15.3244 -0.150887 16.7014 0.700709 17.553L14.4712 31.3235C15.3228 32.1751 16.6999 32.1751 17.5515 31.3235L31.322 17.553C32.1736 16.7014 32.1736 15.3244 31.322 14.4728ZM16.0113 19.6367L12.3875 16.0129L16.0113 12.3891L19.6351 16.0129L16.0113 19.6367Z" fill="white"/>
</mask>
<g mask="url(#mask5_653_2598)">
<path d="M16.0726 19.6667L18.8546 22.4447L11.9969 28.8166L9.46045 26.28L16.0726 19.6667Z" fill="url(#paint2_linear_653_2598)" fill-opacity="0.8"/>
</g>
<mask id="mask6_653_2598" style="mask-type:luminance" maskUnits="userSpaceOnUse" x="0" y="0" width="32" height="32">
<path d="M31.322 14.4728L17.5515 0.702296C16.6999 -0.149301 15.3228 -0.149301 14.4712 0.702296L0.700709 14.4728C-0.150887 15.3244 -0.150887 16.7014 0.700709 17.553L14.4712 31.3235C15.3228 32.1751 16.6999 32.1751 17.5515 31.3235L31.322 17.553C32.1736 16.7014 32.1736 15.3244 31.322 14.4728ZM16.0113 19.6367L12.3875 16.0129L16.0113 12.3891L19.6351 16.0129L16.0113 19.6367Z" fill="white"/>
</mask>
<g mask="url(#mask6_653_2598)">
<path d="M22.6233 5.80829L25.4054 8.58629L18.5477 14.9582L16.0112 12.4216L22.6233 5.80829Z" fill="url(#paint3_linear_653_2598)" fill-opacity="0.8"/>
</g>
</g>
</g>
<defs>
<linearGradient id="paint0_linear_653_2598" x1="845.466" y1="853.423" x2="2412.76" y2="2658.35" gradientUnits="userSpaceOnUse">
<stop stop-color="#1A237E" stop-opacity="0.2"/>
<stop offset="1" stop-color="#1A237E" stop-opacity="0.02"/>
</linearGradient>
<linearGradient id="paint1_linear_653_2598" x1="1972.58" y1="1972.58" x2="6220.44" y2="6220.43" gradientUnits="userSpaceOnUse">
<stop stop-color="white" stop-opacity="0.1"/>
<stop offset="1" stop-color="white" stop-opacity="0"/>
</linearGradient>
<linearGradient id="paint2_linear_653_2598" x1="999.611" y1="745.087" x2="1404.4" y2="1146.73" gradientUnits="userSpaceOnUse">
<stop stop-opacity="0.2"/>
<stop offset="1" stop-color="#D8D8D8" stop-opacity="0"/>
</linearGradient>
<linearGradient id="paint3_linear_653_2598" x1="1006.16" y1="731.228" x2="1521.38" y2="1241.66" gradientUnits="userSpaceOnUse">
<stop stop-opacity="0.2"/>
<stop offset="1" stop-color="#D8D8D8" stop-opacity="0"/>
</linearGradient>
<clipPath id="clip0_653_2598">
<rect width="32" height="32" fill="white"/>
</clipPath>
</defs>
</svg>
