<svg width="32" height="32" viewBox="0 0 32 32" fill="none" xmlns="http://www.w3.org/2000/svg">
<g clip-path="url(#clip0_1087_8455)">
<path d="M2.18996 13.0742C2.45889 11.2302 2.59335 10.3082 3.38994 9.61939C4.18653 8.93055 5.25248 8.93055 7.38438 8.93055C9.44774 8.93055 12.2687 8.93055 15.8606 8.93055C24.4042 8.93055 28.586 4.68872 28.586 4.68872V26.3692C28.586 26.3692 24.4031 22.1273 15.8606 22.1273C12.2469 22.1273 9.41343 22.1273 7.34666 22.1273C5.22835 22.1273 4.16919 22.1273 3.37237 21.4377C2.57555 20.748 2.44399 19.8404 2.18089 18.0251C1.93685 16.3415 1.93961 14.7908 2.18996 13.0742Z" fill="#3A7DFF" stroke="#3A7DFF" stroke-width="2.82788" stroke-linejoin="round"/>
<path fill-rule="evenodd" clip-rule="evenodd" d="M6.93029 15.8429C6.93029 15.5826 7.1413 15.3716 7.4016 15.3716L13.5287 15.3716C13.789 15.3716 14 15.5826 14 15.8429L14 17.7282C14 17.9885 13.789 18.1995 13.5287 18.1995L7.4016 18.1995C7.1413 18.1995 6.93029 17.9885 6.93029 17.7282L6.93029 15.8429Z" fill="white"/>
<path d="M7.84814 22.1272H15.8605V31.0822H12.2445C11.8653 31.0822 11.523 30.8549 11.3758 30.5053L7.84814 22.1272Z" fill="#3A7DFF" stroke="#3A7DFF" stroke-width="2.82788" stroke-linejoin="round"/>
<path fill-rule="evenodd" clip-rule="evenodd" d="M28.1147 30.1394C27.5941 30.1394 27.1721 29.7174 27.1721 29.1968L27.1721 1.8606C27.1721 1.34 27.5941 0.917969 28.1147 0.917969L29.0574 0.917969C29.578 0.917969 30 1.34 30 1.8606L30 29.1968C30 29.7174 29.578 30.1394 29.0574 30.1394L28.1147 30.1394Z" fill="#3A7DFF"/>
</g>
<defs>
<clipPath id="clip0_1087_8455">
<rect width="32" height="32" fill="white"/>
</clipPath>
</defs>
</svg>
