<svg width="36" height="36" fill="none" xmlns="http://www.w3.org/2000/svg" class="icon___S-2V m-r-12"><rect x="0.409" y="0.409" width="35.182" height="35.182" rx="2.864" fill="#F7F8FB"></rect><rect x="0.409" y="0.409" width="35.182" height="35.182" rx="2.864" stroke="#EEF1F7" stroke-width="0.818"></rect><path d="M19 24.8a.3.3 0 00-.3-.3h-6.2v-13H21a2.5 2.5 0 012.5 2.5v2.7a.3.3 0 00.3.3h.9a.3.3 0 00.3-.3V14a4 4 0 00-4-4h-9.5a.5.5 0 00-.5.5v15a.5.5 0 00.5.5h7.2a.3.3 0 00.3-.3v-.9z" fill="#7A8499"></path><path d="M14.1 14a.1.1 0 00-.1.1v1.3a.1.1 0 00.1.1h5.8a.1.1 0 00.1-.1v-1.3a.1.1 0 00-.1-.1h-5.8zm0 3a.1.1 0 00-.1.1v1.3a.1.1 0 00.1.1h2.8a.1.1 0 00.1-.1v-1.3a.1.1 0 00-.1-.1h-2.8zM22.444 19.949a1.342 1.342 0 100 2.684 1.342 1.342 0 000-2.684zM19.5 21.29a2.946 2.946 0 013.783-2.822A2.943 2.943 0 0124.91 22.9l-2.202 2.937a.295.295 0 01-.528 0L19.974 22.9a2.97 2.97 0 01-.474-1.609z" fill="#7A8499"></path></svg>