<svg t="1737190574467" class="icon" viewBox="0 0 1024 1024" version="1.1" xmlns="http://www.w3.org/2000/svg" p-id="11651" width="30" height="30"><path d="M326.144 179.712c18.432 0 30.72-12.288 30.72-30.72v-28.672c0-34.816 24.576-61.44 61.44-61.44h181.76c30.72 0 61.44 24.576 61.44 61.44v30.72c0 18.432 12.288 30.72 30.72 30.72s30.72-12.288 30.72-30.72v-30.72C721.92 53.248 669.184 0 601.6 0H420.352C352.768 0 300.032 53.248 300.032 120.32v30.72c-4.096 16.384 8.192 28.672 26.112 28.672z" fill="#356dff" p-id="11652"></path><path d="M840.192 120.32h-30.72c-18.432 0-30.72 12.288-30.72 30.72s12.288 30.72 30.72 30.72h30.72c34.816 0 61.44 24.576 61.44 61.44v665.088c0 34.816-24.576 61.44-61.44 61.44H175.616c-34.816 0-61.44-24.576-61.44-61.44V207.872c0-18.432 12.288-30.72 30.72-30.72h61.44c18.432 0 30.72-12.288 30.72-30.72s-10.24-30.72-30.72-30.72h-30.72c-67.072 0-120.32 53.248-120.32 120.32V901.12c0 67.072 53.248 120.32 120.32 120.32h665.088c67.072 0 120.32-53.248 120.32-120.32V236.544c-0.512-62.976-53.248-116.224-120.832-116.224z" p-id="11653"></path><path d="M259.072 854.528c12.288 0 24.576-12.288 30.72-24.576 12.288-101.888 101.888-181.76 211.968-181.76 53.248 0 108.032 18.432 144.896 53.248 34.816 30.72 61.44 79.36 67.072 126.464 0 12.288 12.288 24.576 30.72 24.576s30.72-12.288 30.72-30.72c-6.144-67.072-40.96-126.464-91.648-167.424-18.432-18.432-40.96-30.72-73.216-40.96 47.104-30.72 79.36-85.504 79.36-144.896 0-97.792-85.504-175.616-181.76-175.616S326.144 373.248 326.144 468.992c0 61.44 30.72 114.176 79.36 144.896-85.504 34.816-151.04 114.176-161.28 211.968-15.872 18.432-3.584 28.672 14.848 28.672z m120.32-379.392c0-67.072 53.248-114.176 120.32-114.176s120.32 47.104 120.32 114.176-53.248 114.176-120.32 114.176-120.32-54.784-120.32-114.176z" p-id="11654"></path></svg>