<svg class="placeholder" version="1.1" id="图层_1" xmlns="http://www.w3.org/2000/svg" xmlns:xlink="http://www.w3.org/1999/xlink" x="0px" y="0px" viewBox="0 0 381 381" style="enable-background:new 0 0 381 381" xml:space="preserve"><style type="text/css">.st0{fill:#ccc}</style><path class="st0" d="M303,237.9c-2.5-15.3-11.8-31.2-21.6-44.8c-7-9.7-14.5-18.3-20-24.7l0,0c-2-2.4-3.8-4.4-5.2-6.1v-6.2l17.9-54.2	c0.2-0.5,0.1-1-0.2-1.3c-0.3-0.4-0.7-0.6-1.2-0.6c-0.6,0-1.2,0-1.8,0L267,84.2c-0.2-0.7-0.8-1.2-1.5-1.2h-5c-0.4,0-0.8,0.2-1.1,0.5	c-0.3,0.3-0.4,0.7-0.4,1.1l1.4,16.7c-5.5,1.3-9.6,3.4-13,5.9c-4.1,3-6.9,6.6-9.1,9.4c-0.3,0.3-0.5,0.7-0.8,1c-0.3-0.3-0.5-0.7-0.8-1	c-2.2-2.8-5-6.4-9.1-9.4c-3.3-2.5-7.5-4.6-13-5.9l1.4-16.7c0-0.4-0.1-0.8-0.4-1.1c-0.3-0.3-0.7-0.5-1.1-0.5h-5	c-0.7,0-1.3,0.5-1.5,1.2l-3.7,15.8c-0.6,0-1.2,0-1.8,0c-0.5,0-0.9,0.2-1.2,0.6c-0.3,0.4-0.4,0.9-0.2,1.3l17.9,54.2v0.7	c1,0.4,2,0.9,3,1.3v-0.8h30.9v4h-23.7c2.8,1.3,5,2.3,6.3,3h18.2c1.4,1.8,3.2,3.8,5.3,6.2v0c5.5,6.4,12.8,14.8,19.8,24.4	c9.4,12.9,18.1,27.7,20.8,41.8h-62.1h-37.3v-36.4c0-0.2,0.1-0.3,0.2-0.4c0.1-0.1,0.2-0.1,0.5-0.1l10.8,3.7c1.5,0.5,3.1,0,4-1.3	l22.5-31.9c0.6-0.9,0.8-1.9,0.5-2.9c-0.3-1-1-1.8-1.9-2.3l-42-18.9c-0.5-0.2-0.9-0.3-1.4-0.3h-14.9c-1.8,0-3.4,1.5-3.6,3.4	c-1.2,14-15.2,14.2-15.8,14.2c-5.1,0-15.1-3-16.1-14.2c-0.2-1.9-1.7-3.4-3.6-3.4h-15.2c-0.5,0-1,0.1-1.4,0.3l-42.8,18.9	c-1,0.4-1.7,1.3-2,2.3c-0.3,1-0.1,2.1,0.5,3l22.9,31.9c0.9,1.2,2.5,1.8,3.9,1.3l11.1-3.7c0.2-0.1,0.4,0,0.4,0.1s0.2,0.2,0.2,0.4	v38.1v11.8v15.6c0,1.9,1.6,3.5,3.5,3.5h38.4h37.6c1.9,0,3.5-1.6,3.5-3.5v-15.6v-10.5h37.3h63.9c0.4,0,0.9-0.2,1.1-0.5	C302.9,238.8,303,238.4,303,237.9z M262.2,86h2.2l3.3,14.2c-1.5,0.1-2.9,0.3-4.3,0.5L262.2,86z M210.9,86h2.2l-1.2,14.7	c-1.4-0.2-2.8-0.4-4.3-0.5L210.9,86z M253.5,154.4h-31.8l-17-51.4c10.1,0.3,16.6,3.2,21.2,6.6c3.7,2.8,6.2,5.9,8.3,8.6	c0.7,0.9,1.5,1.8,2.2,2.7c0,0,0.1,0.1,0.1,0.1c0.3,0.3,0.7,0.4,1.1,0.4c0.4,0,0.8-0.1,1.1-0.4c0,0,0.1-0.1,0.1-0.1	c0.7-0.8,1.4-1.7,2.2-2.7c2.2-2.8,4.6-5.9,8.3-8.6c4.6-3.4,11.1-6.2,21.2-6.6L253.5,154.4z M235.7,167.8c0.2,0.1,0.3,0.2,0.3,0.3	c0,0.1,0,0.3-0.1,0.4l-22.5,31.9c-0.1,0.2-0.4,0.3-0.6,0.2L202,197c-0.1,0-0.3-0.1-0.4-0.1c-5.7-5.8-13.6-22-7.2-47.7L235.7,167.8zM104.6,200.7c-0.2,0.1-0.4,0-0.6-0.2l-22.9-31.9c-0.1-0.2-0.1-0.3-0.1-0.4s0.1-0.2,0.3-0.3l42.3-18.7c6.4,25.7-1.4,41.9-7.1,47.7	c-0.3,0-0.5,0.1-0.7,0.2L104.6,200.7z M119.5,198c6-7,13.3-23.8,7.2-49.1h12.9c0.3,0,0.6,0.3,0.6,0.6c1.1,13.4,13,16.9,19.1,16.9	c6,0,17.6-3.5,18.8-16.9c0-0.3,0.3-0.6,0.6-0.6h12.8c-6.1,25.3,1,42,7.1,49c-0.6,0.6-1,1.5-1,2.4v38.1h-77v-38.1	C120.3,199.5,120,198.6,119.5,198z M197.4,241.4v5.8h-77v-5.8H197.4z M197.4,265.8c0,0.3-0.2,0.5-0.5,0.5h-37.6h-38.4	c-0.3,0-0.5-0.2-0.5-0.5v-15.6h77V265.8z"></path></svg>