<svg width="32" height="30" viewBox="0 0 32 30" fill="none" xmlns="http://www.w3.org/2000/svg">
<g id="Group">
<path id="Vector" d="M0.660156 21.6833L11.3004 3.25256L20.5204 8.57596L9.88144 27.0067L0.660156 21.6833Z" fill="#FBBC04"/>
<path id="Vector_2" d="M31.2501 21.6191L20.6033 3.18175C19.2289 0.582282 16.0084 -0.410859 13.409 0.963554C10.8095 2.33797 9.81765 5.55847 11.1908 8.15794C11.251 8.27192 11.3152 8.38329 11.3834 8.49335L22.0302 26.9307C23.4661 29.4961 26.7102 30.4119 29.2756 28.9759C31.841 27.5399 32.7569 24.2958 31.3209 21.7304C31.2973 21.6885 31.2737 21.6479 31.2501 21.6073V21.6191Z" fill="#4285F4"/>
<path id="Vector_3" d="M5.3234 29.6271C8.26343 29.6271 10.6468 27.2438 10.6468 24.3037C10.6468 21.3637 8.26343 18.9803 5.3234 18.9803C2.38337 18.9803 0 21.3637 0 24.3037C0 27.2438 2.38337 29.6271 5.3234 29.6271Z" fill="#34A853"/>
</g>
</svg>
