<svg width="200" height="178" viewBox="0 0 200 178" fill="none" xmlns="http://www.w3.org/2000/svg">
<g clip-path="url(#clip0_61801_235927)">
<rect width="200" height="178" fill="white"/>
<g clip-path="url(#clip1_61801_235927)">
<g filter="url(#filter0_f_61801_235927)">
<ellipse cx="100" cy="89" rx="90" ry="64.5882" fill="#E9F1FE"/>
</g>
<path d="M10.0001 83.534C10.0002 54.406 29.6632 35.76 40.727 30.7042C62.4593 20.773 83.8124 25.6784 98.4354 43.3201C125.466 75.9305 175.335 58.8367 186.879 84.7488C202.494 119.796 157.54 152.363 96.172 152.363C36.8591 152.363 10.0001 119.047 10.0001 83.534Z" fill="#E8F2FF"/>
</g>
<g filter="url(#filter1_d_61801_235927)">
<path d="M36.2095 51.6523C36.2095 46.2033 40.6267 41.7861 46.0756 41.7861H155.269C160.718 41.7861 165.135 46.2033 165.135 51.6522V145.52C165.135 146.61 164.252 147.493 163.162 147.493H38.1827C37.0929 147.493 36.2095 146.61 36.2095 145.52V51.6523Z" fill="white"/>
</g>
<path d="M36.2095 43.7594C36.2095 42.6696 37.0929 41.7861 38.1827 41.7861H163.162C164.252 41.7861 165.135 42.6696 165.135 43.7594V59.3791H36.2095V43.7594Z" fill="#7883AC"/>
<ellipse cx="46.4908" cy="50.5826" rx="3.09683" ry="3.093" fill="url(#paint0_linear_61801_235927)"/>
<ellipse cx="56.8853" cy="50.5826" rx="3.09683" ry="3.093" fill="url(#paint1_linear_61801_235927)"/>
<ellipse cx="67.2797" cy="50.5826" rx="3.09683" ry="3.093" fill="url(#paint2_linear_61801_235927)"/>
<rect opacity="0.3" x="98.389" y="119.597" width="17.8317" height="54.9672" rx="1" transform="rotate(90 98.389 119.597)" fill="#C0CFED"/>
<path opacity="0.3" d="M156.697 119.597C157.25 119.597 157.697 120.045 157.697 120.597V136.429C157.697 136.981 157.25 137.429 156.697 137.429H103.73C103.178 137.429 102.73 136.981 102.73 136.429V120.597C102.73 120.045 103.178 119.597 103.73 119.597L156.697 119.597Z" fill="#C0CFED"/>
<rect x="66.1343" y="101.64" width="15.0343" height="4.5" rx="2.25" fill="#7883AC"/>
<rect x="84.0566" y="101.64" width="54.5466" height="4.5" rx="2.25" fill="#7883AC"/>
<rect x="66.1343" y="85.3168" width="82.186" height="4.5" rx="2.25" fill="#C0CFED"/>
<rect x="66.1343" y="68.6354" width="91.5624" height="4.5" rx="2.25" fill="#C0CFED"/>
<rect x="43.422" y="67.5681" width="17.224" height="48.1191" rx="1" fill="#C0CFED"/>
<g filter="url(#filter2_d_61801_235927)">
<rect x="122.897" y="94.9719" width="58.8292" height="37.8986" rx="3" fill="white"/>
</g>
<rect opacity="0.3" x="128.191" y="100.26" width="49.1177" height="27.295" rx="2" fill="url(#paint3_linear_61801_235927)"/>
<path d="M175.051 105.695C175.112 105.834 175.162 105.995 175.201 106.181C175.239 106.366 175.258 106.558 175.258 106.759C175.258 106.959 175.22 107.16 175.143 107.36C175.066 107.561 174.944 107.754 174.775 107.939C174.59 108.124 174.425 108.286 174.28 108.425C174.134 108.563 174.007 108.687 173.9 108.795C173.777 108.918 173.662 109.026 173.554 109.119L169.248 104.792C169.432 104.623 169.651 104.418 169.904 104.179C170.158 103.94 170.369 103.751 170.538 103.613C170.752 103.443 170.975 103.323 171.205 103.254C171.436 103.185 171.662 103.154 171.885 103.161C172.107 103.169 172.322 103.204 172.529 103.266C172.737 103.327 172.917 103.397 173.071 103.474C173.393 103.643 173.75 103.94 174.141 104.364C174.533 104.789 174.836 105.232 175.051 105.695ZM157.112 116.984C157.204 116.892 157.419 116.672 157.757 116.325C158.095 115.978 158.517 115.55 159.023 115.041L160.705 113.352L162.57 111.478L167.521 106.504L171.827 110.854L166.876 115.828L165.034 117.701C164.42 118.303 163.867 118.854 163.376 119.356C162.885 119.857 162.478 120.269 162.155 120.593C161.833 120.917 161.641 121.102 161.58 121.148C161.426 121.287 161.25 121.434 161.05 121.588C160.85 121.742 160.643 121.866 160.428 121.958C160.213 122.066 159.899 122.197 159.484 122.351C159.07 122.506 158.636 122.656 158.183 122.803C157.73 122.949 157.3 123.076 156.893 123.184C156.487 123.292 156.183 123.362 155.984 123.393C155.569 123.439 155.293 123.377 155.155 123.207C155.017 123.038 154.978 122.752 155.04 122.351C155.07 122.136 155.143 121.823 155.258 121.415C155.373 121.006 155.496 120.582 155.627 120.142C155.757 119.703 155.884 119.298 156.007 118.928C156.13 118.557 156.229 118.303 156.306 118.164C156.398 117.948 156.502 117.752 156.617 117.574C156.732 117.397 156.897 117.2 157.112 116.984Z" fill="#FFA337"/>
</g>
<defs>
<filter id="filter0_f_61801_235927" x="-50" y="-35.5883" width="300" height="249.176" filterUnits="userSpaceOnUse" color-interpolation-filters="sRGB">
<feFlood flood-opacity="0" result="BackgroundImageFix"/>
<feBlend mode="normal" in="SourceGraphic" in2="BackgroundImageFix" result="shape"/>
<feGaussianBlur stdDeviation="30" result="effect1_foregroundBlur_61801_235927"/>
</filter>
<filter id="filter1_d_61801_235927" x="14.1094" y="19.686" width="173.126" height="149.907" filterUnits="userSpaceOnUse" color-interpolation-filters="sRGB">
<feFlood flood-opacity="0" result="BackgroundImageFix"/>
<feColorMatrix in="SourceAlpha" type="matrix" values="0 0 0 0 0 0 0 0 0 0 0 0 0 0 0 0 0 0 127 0" result="hardAlpha"/>
<feOffset/>
<feGaussianBlur stdDeviation="11.05"/>
<feColorMatrix type="matrix" values="0 0 0 0 0.423529 0 0 0 0 0.505882 0 0 0 0 0.67451 0 0 0 0.3 0"/>
<feBlend mode="normal" in2="BackgroundImageFix" result="effect1_dropShadow_61801_235927"/>
<feBlend mode="normal" in="SourceGraphic" in2="effect1_dropShadow_61801_235927" result="shape"/>
</filter>
<filter id="filter2_d_61801_235927" x="110.897" y="86.9719" width="82.8292" height="61.8986" filterUnits="userSpaceOnUse" color-interpolation-filters="sRGB">
<feFlood flood-opacity="0" result="BackgroundImageFix"/>
<feColorMatrix in="SourceAlpha" type="matrix" values="0 0 0 0 0 0 0 0 0 0 0 0 0 0 0 0 0 0 127 0" result="hardAlpha"/>
<feOffset dy="4"/>
<feGaussianBlur stdDeviation="6"/>
<feComposite in2="hardAlpha" operator="out"/>
<feColorMatrix type="matrix" values="0 0 0 0 0.462745 0 0 0 0 0.505882 0 0 0 0 0.662745 0 0 0 0.25 0"/>
<feBlend mode="normal" in2="BackgroundImageFix" result="effect1_dropShadow_61801_235927"/>
<feBlend mode="normal" in="SourceGraphic" in2="effect1_dropShadow_61801_235927" result="shape"/>
</filter>
<linearGradient id="paint0_linear_61801_235927" x1="46.4908" y1="47.4896" x2="46.4908" y2="53.6756" gradientUnits="userSpaceOnUse">
<stop stop-color="#4D5678"/>
<stop offset="1" stop-color="#4D5677"/>
</linearGradient>
<linearGradient id="paint1_linear_61801_235927" x1="56.8853" y1="47.4896" x2="56.8853" y2="53.6756" gradientUnits="userSpaceOnUse">
<stop stop-color="#4D5678"/>
<stop offset="1" stop-color="#4D5677"/>
</linearGradient>
<linearGradient id="paint2_linear_61801_235927" x1="67.2797" y1="47.4896" x2="67.2797" y2="53.6756" gradientUnits="userSpaceOnUse">
<stop stop-color="#4D5678"/>
<stop offset="1" stop-color="#4D5677"/>
</linearGradient>
<linearGradient id="paint3_linear_61801_235927" x1="152.75" y1="100.26" x2="152.75" y2="127.555" gradientUnits="userSpaceOnUse">
<stop stop-color="#FFA337" stop-opacity="0"/>
<stop offset="1" stop-color="#FFA337"/>
</linearGradient>
<clipPath id="clip0_61801_235927">
<rect width="200" height="178" fill="white"/>
</clipPath>
<clipPath id="clip1_61801_235927">
<rect width="200" height="178" fill="white"/>
</clipPath>
</defs>
</svg>
