<svg width="200" height="178" viewBox="0 0 200 178" fill="none" xmlns="http://www.w3.org/2000/svg">
<g clip-path="url(#clip0_61801_235992)">
<rect width="200" height="178" fill="white"/>
<g filter="url(#filter0_d_61801_235992)">
<path d="M36.2095 51.6523C36.2095 46.2033 40.6267 41.7861 46.0756 41.7861H155.269C160.718 41.7861 165.135 46.2033 165.135 51.6522V145.52C165.135 146.61 164.252 147.493 163.162 147.493H38.1827C37.0929 147.493 36.2095 146.61 36.2095 145.52V51.6523Z" fill="white"/>
</g>
<path d="M36.2095 43.7594C36.2095 42.6696 37.0929 41.7861 38.1827 41.7861H163.162C164.252 41.7861 165.135 42.6696 165.135 43.7594V59.3791H36.2095V43.7594Z" fill="#7883AC"/>
<ellipse cx="46.4908" cy="50.5826" rx="3.09683" ry="3.093" fill="url(#paint0_linear_61801_235992)"/>
<ellipse cx="56.8853" cy="50.5826" rx="3.09683" ry="3.093" fill="url(#paint1_linear_61801_235992)"/>
<ellipse cx="67.2797" cy="50.5826" rx="3.09683" ry="3.093" fill="url(#paint2_linear_61801_235992)"/>
<rect opacity="0.3" x="98.389" y="119.597" width="17.8317" height="54.9672" rx="1" transform="rotate(90 98.389 119.597)" fill="#C0CFED"/>
<path opacity="0.3" d="M156.697 119.597C157.25 119.597 157.697 120.045 157.697 120.597V136.429C157.697 136.981 157.25 137.429 156.697 137.429H103.73C103.178 137.429 102.73 136.981 102.73 136.429V120.597C102.73 120.045 103.178 119.597 103.73 119.597L156.697 119.597Z" fill="#C0CFED"/>
<rect x="66.1343" y="101.64" width="15.0343" height="4.5" rx="2.25" fill="#7883AC"/>
<rect x="84.0566" y="101.64" width="54.5466" height="4.5" rx="2.25" fill="#7883AC"/>
<rect x="66.1343" y="85.3168" width="82.186" height="4.5" rx="2.25" fill="#C0CFED"/>
<rect x="66.1343" y="68.6354" width="91.5624" height="4.5" rx="2.25" fill="#C0CFED"/>
<rect x="43.422" y="67.5681" width="17.224" height="48.1191" rx="1" fill="#C0CFED"/>
<g filter="url(#filter1_d_61801_235992)">
<rect x="122.897" y="94.9719" width="58.8292" height="37.8986" rx="3" fill="white"/>
</g>
<rect opacity="0.3" x="128.191" y="100.26" width="49.1177" height="27.295" rx="2" fill="url(#paint3_linear_61801_235992)"/>
<path d="M175.051 105.695C175.112 105.834 175.162 105.995 175.201 106.181C175.239 106.366 175.258 106.558 175.258 106.759C175.258 106.959 175.22 107.16 175.143 107.36C175.066 107.561 174.944 107.754 174.775 107.939C174.59 108.124 174.425 108.286 174.28 108.425C174.134 108.563 174.007 108.687 173.9 108.795C173.777 108.918 173.662 109.026 173.554 109.119L169.248 104.792C169.432 104.623 169.651 104.418 169.904 104.179C170.158 103.94 170.369 103.751 170.538 103.613C170.752 103.443 170.975 103.323 171.205 103.254C171.436 103.185 171.662 103.154 171.885 103.161C172.107 103.169 172.322 103.204 172.529 103.266C172.737 103.327 172.917 103.397 173.071 103.474C173.393 103.643 173.75 103.94 174.141 104.364C174.533 104.789 174.836 105.232 175.051 105.695ZM157.112 116.984C157.204 116.892 157.419 116.672 157.757 116.325C158.095 115.978 158.517 115.55 159.023 115.041L160.705 113.352L162.57 111.478L167.521 106.504L171.827 110.854L166.876 115.828L165.034 117.701C164.42 118.303 163.867 118.854 163.376 119.356C162.885 119.857 162.478 120.269 162.155 120.593C161.833 120.917 161.641 121.102 161.58 121.148C161.426 121.287 161.25 121.434 161.05 121.588C160.85 121.742 160.643 121.866 160.428 121.958C160.213 122.066 159.899 122.197 159.484 122.351C159.07 122.506 158.636 122.656 158.183 122.803C157.73 122.949 157.3 123.076 156.893 123.184C156.487 123.292 156.183 123.362 155.984 123.393C155.569 123.439 155.293 123.377 155.155 123.207C155.017 123.038 154.978 122.752 155.04 122.351C155.07 122.136 155.143 121.823 155.258 121.415C155.373 121.006 155.496 120.582 155.627 120.142C155.757 119.703 155.884 119.298 156.007 118.928C156.13 118.557 156.229 118.303 156.306 118.164C156.398 117.948 156.502 117.752 156.617 117.574C156.732 117.397 156.897 117.2 157.112 116.984Z" fill="#FFA337"/>
<rect width="200" height="178" fill="white"/>
<g filter="url(#filter2_f_61801_235992)">
<ellipse cx="100" cy="89" rx="90" ry="64.5882" fill="#E9F1FE"/>
</g>
<path d="M10.0001 83.534C10.0002 54.406 29.6632 35.76 40.727 30.7042C62.4593 20.773 83.8124 25.6784 98.4354 43.3201C125.466 75.9305 175.335 58.8367 186.879 84.7488C202.494 119.796 157.54 152.363 96.172 152.363C36.8591 152.363 10.0001 119.047 10.0001 83.534Z" fill="#E8F2FF"/>
<g filter="url(#filter3_d_61801_235992)">
<path d="M36.0754 51.2307C36.0754 45.7787 40.4952 41.359 45.9472 41.359H154.536C159.988 41.359 164.408 45.7787 164.408 51.2307V140.219C164.408 141.309 163.524 142.193 162.434 142.193H38.0498C36.9594 142.193 36.0754 141.309 36.0754 140.219V51.2307Z" fill="white"/>
</g>
<g filter="url(#filter4_d_61801_235992)">
<path d="M36.0112 52.1612C36.0112 46.7091 40.431 42.2894 45.883 42.2894H154.472C159.924 42.2894 164.344 46.7092 164.344 52.1612V141.149C164.344 142.239 163.46 143.123 162.369 143.123H37.9856C36.8952 143.123 36.0112 142.239 36.0112 141.149V52.1612Z" fill="white"/>
</g>
<path d="M36.0754 43.3334C36.0754 42.243 36.9594 41.359 38.0498 41.359H162.434C163.524 41.359 164.408 42.243 164.408 43.3334V58.141H36.0754V43.3334Z" fill="#7883AC"/>
<circle cx="45.7068" cy="49.75" r="2.94873" fill="url(#paint4_linear_61801_235992)"/>
<circle cx="55.6042" cy="49.75" r="2.94873" fill="url(#paint5_linear_61801_235992)"/>
<circle cx="65.5017" cy="49.75" r="2.94873" fill="url(#paint6_linear_61801_235992)"/>
<rect x="59.8101" y="65.8955" width="58.6221" height="4.5" rx="2.25" fill="#C0CFED"/>
<rect x="48.0537" y="64.3289" width="7.63334" height="7.63334" rx="0.966825" fill="#FF3737"/>
<path d="M52.4348 66.3289V70.3289H51.5891V67.1316H51.5657L50.6497 67.7058V66.9558L51.6399 66.3289H52.4348Z" fill="white"/>
<rect x="48.0537" y="85.3782" width="7.63334" height="7.63334" rx="0.966825" fill="#FFA337"/>
<path d="M50.4771 91.3782V90.7689L51.9009 89.4505C52.022 89.3333 52.1235 89.2278 52.2056 89.1341C52.2889 89.0403 52.3521 88.9485 52.395 88.8587C52.438 88.7676 52.4595 88.6693 52.4595 88.5638C52.4595 88.4466 52.4328 88.3457 52.3794 88.261C52.326 88.1751 52.2531 88.1094 52.1606 88.0638C52.0682 88.0169 51.9634 87.9935 51.8462 87.9935C51.7238 87.9935 51.617 88.0182 51.5259 88.0677C51.4347 88.1172 51.3644 88.1881 51.3149 88.2806C51.2655 88.373 51.2407 88.4831 51.2407 88.6107H50.438C50.438 88.3489 50.4972 88.1217 50.6157 87.929C50.7342 87.7363 50.9002 87.5872 51.1138 87.4818C51.3273 87.3763 51.5734 87.3235 51.8521 87.3235C52.1385 87.3235 52.3879 87.3743 52.6001 87.4759C52.8136 87.5762 52.9797 87.7155 53.0981 87.8939C53.2166 88.0722 53.2759 88.2767 53.2759 88.5071C53.2759 88.6582 53.2459 88.8073 53.186 88.9544C53.1274 89.1015 53.0226 89.265 52.8716 89.4446C52.7205 89.623 52.5076 89.8372 52.2329 90.0872L51.6489 90.6595V90.6868H53.3286V91.3782H50.4771Z" fill="white"/>
<rect x="59.8101" y="86.9449" width="92.2993" height="4.5" rx="2.25" fill="#C0CFED"/>
<rect x="58.3997" y="129.834" width="68.2554" height="4.5" rx="2.25" fill="#C0CFED"/>
<path d="M50.0916 133.567V132.841L51.9133 129.971H52.5398V130.977H52.169L51.0206 132.794V132.828H53.6094V133.567H50.0916ZM52.1861 134.334V133.346L52.2031 133.024V129.971H53.0682V134.334H52.1861Z" fill="#C0CFED"/>
<rect x="48.0537" y="106.493" width="7.6333" height="7.6333" rx="0.892885" fill="#FFD337"/>
<rect x="59.8102" y="108.06" width="50.4292" height="4.5" rx="2.25" fill="#C0CFED"/>
<path d="M51.6731 112.548C51.3814 112.548 51.1217 112.498 50.8938 112.397C50.6672 112.296 50.4882 112.157 50.3567 111.979C50.2265 111.801 50.1594 111.595 50.1555 111.362H51.0071C51.0123 111.46 51.0442 111.546 51.1028 111.62C51.1627 111.693 51.2421 111.75 51.3411 111.79C51.44 111.83 51.5514 111.851 51.675 111.851C51.804 111.851 51.9179 111.828 52.0168 111.782C52.1158 111.737 52.1933 111.674 52.2493 111.593C52.3053 111.512 52.3333 111.419 52.3333 111.313C52.3333 111.207 52.3033 111.112 52.2434 111.03C52.1848 110.947 52.1002 110.882 51.9895 110.835C51.8801 110.788 51.7499 110.765 51.5989 110.765H51.2258V110.144H51.5989C51.7265 110.144 51.8391 110.121 51.9368 110.077C52.0357 110.033 52.1125 109.972 52.1672 109.894C52.2219 109.814 52.2493 109.722 52.2493 109.616C52.2493 109.516 52.2252 109.428 52.177 109.353C52.1301 109.276 52.0637 109.216 51.9778 109.173C51.8931 109.13 51.7942 109.108 51.6809 109.108C51.5663 109.108 51.4615 109.129 51.3665 109.171C51.2714 109.211 51.1952 109.269 51.1379 109.345C51.0806 109.42 51.05 109.509 51.0461 109.61H50.2356C50.2395 109.38 50.3053 109.177 50.4329 109.001C50.5605 108.825 50.7323 108.688 50.9485 108.589C51.1659 108.489 51.4114 108.438 51.6848 108.438C51.9609 108.438 52.2024 108.489 52.4094 108.589C52.6165 108.689 52.7773 108.825 52.8918 108.995C53.0077 109.164 53.065 109.354 53.0637 109.565C53.065 109.789 52.9954 109.976 52.8547 110.126C52.7154 110.276 52.5338 110.371 52.3098 110.411V110.442C52.6041 110.48 52.828 110.582 52.9817 110.749C53.1366 110.914 53.2135 111.121 53.2122 111.37C53.2135 111.598 53.1477 111.8 53.0149 111.978C52.8834 112.155 52.7017 112.294 52.47 112.396C52.2382 112.497 51.9726 112.548 51.6731 112.548Z" fill="white"/>
<g filter="url(#filter5_d_61801_235992)">
<rect x="122.445" y="94.9719" width="58.7563" height="37.8986" rx="3" fill="white"/>
<path opacity="0.3" d="M153.485 118.57L148.712 113.973L135.744 122.054L129.261 126.095L174.936 126.126L174.958 102.675L153.485 118.57Z" fill="url(#paint7_linear_61801_235992)"/>
<path d="M129.551 126.095L148.126 114.317C148.266 114.229 148.447 114.244 148.569 114.355L153.08 118.464C153.207 118.58 153.398 118.592 153.539 118.491L174.948 103.191" stroke="url(#paint8_linear_61801_235992)" stroke-width="1.46373" stroke-linecap="round" stroke-linejoin="round"/>
<path opacity="0.5" d="M174.929 109.956L129.626 109.956" stroke="#35C08E" stroke-width="0.6" stroke-linecap="round" stroke-dasharray="2.2 2.2"/>
<path opacity="0.5" d="M165.065 126.126L165.065 101.716" stroke="#35C08E" stroke-width="0.6" stroke-linecap="round" stroke-dasharray="2.2 2.2"/>
<g filter="url(#filter6_d_61801_235992)">
<ellipse cx="2.09752" cy="2.04789" rx="2.09752" ry="2.04789" transform="matrix(1 0.00066981 -0.000947225 1 162.969 107.906)" fill="#35C08E"/>
<path d="M165.062 112.735C166.608 112.736 167.893 111.509 167.894 109.957C167.896 108.406 166.613 107.177 165.067 107.176C163.521 107.175 162.237 108.402 162.235 109.954C162.234 111.505 163.516 112.734 165.062 112.735Z" stroke="white" stroke-width="1.46373"/>
</g>
</g>
</g>
<defs>
<filter id="filter0_d_61801_235992" x="14.1094" y="19.686" width="173.126" height="149.907" filterUnits="userSpaceOnUse" color-interpolation-filters="sRGB">
<feFlood flood-opacity="0" result="BackgroundImageFix"/>
<feColorMatrix in="SourceAlpha" type="matrix" values="0 0 0 0 0 0 0 0 0 0 0 0 0 0 0 0 0 0 127 0" result="hardAlpha"/>
<feOffset/>
<feGaussianBlur stdDeviation="11.05"/>
<feColorMatrix type="matrix" values="0 0 0 0 0.423529 0 0 0 0 0.505882 0 0 0 0 0.67451 0 0 0 0.3 0"/>
<feBlend mode="normal" in2="BackgroundImageFix" result="effect1_dropShadow_61801_235992"/>
<feBlend mode="normal" in="SourceGraphic" in2="effect1_dropShadow_61801_235992" result="shape"/>
</filter>
<filter id="filter1_d_61801_235992" x="110.897" y="86.9719" width="82.8291" height="61.8986" filterUnits="userSpaceOnUse" color-interpolation-filters="sRGB">
<feFlood flood-opacity="0" result="BackgroundImageFix"/>
<feColorMatrix in="SourceAlpha" type="matrix" values="0 0 0 0 0 0 0 0 0 0 0 0 0 0 0 0 0 0 127 0" result="hardAlpha"/>
<feOffset dy="4"/>
<feGaussianBlur stdDeviation="6"/>
<feComposite in2="hardAlpha" operator="out"/>
<feColorMatrix type="matrix" values="0 0 0 0 0.462745 0 0 0 0 0.505882 0 0 0 0 0.662745 0 0 0 0.25 0"/>
<feBlend mode="normal" in2="BackgroundImageFix" result="effect1_dropShadow_61801_235992"/>
<feBlend mode="normal" in="SourceGraphic" in2="effect1_dropShadow_61801_235992" result="shape"/>
</filter>
<filter id="filter2_f_61801_235992" x="-50" y="-35.5883" width="300" height="249.176" filterUnits="userSpaceOnUse" color-interpolation-filters="sRGB">
<feFlood flood-opacity="0" result="BackgroundImageFix"/>
<feBlend mode="normal" in="SourceGraphic" in2="BackgroundImageFix" result="shape"/>
<feGaussianBlur stdDeviation="30" result="effect1_foregroundBlur_61801_235992"/>
</filter>
<filter id="filter3_d_61801_235992" x="13.9627" y="19.2463" width="172.558" height="145.059" filterUnits="userSpaceOnUse" color-interpolation-filters="sRGB">
<feFlood flood-opacity="0" result="BackgroundImageFix"/>
<feColorMatrix in="SourceAlpha" type="matrix" values="0 0 0 0 0 0 0 0 0 0 0 0 0 0 0 0 0 0 127 0" result="hardAlpha"/>
<feOffset/>
<feGaussianBlur stdDeviation="11.0563"/>
<feColorMatrix type="matrix" values="0 0 0 0 0.423529 0 0 0 0 0.505882 0 0 0 0 0.67451 0 0 0 0.3 0"/>
<feBlend mode="normal" in2="BackgroundImageFix" result="effect1_dropShadow_61801_235992"/>
<feBlend mode="normal" in="SourceGraphic" in2="effect1_dropShadow_61801_235992" result="shape"/>
</filter>
<filter id="filter4_d_61801_235992" x="13.8985" y="20.1767" width="172.558" height="145.059" filterUnits="userSpaceOnUse" color-interpolation-filters="sRGB">
<feFlood flood-opacity="0" result="BackgroundImageFix"/>
<feColorMatrix in="SourceAlpha" type="matrix" values="0 0 0 0 0 0 0 0 0 0 0 0 0 0 0 0 0 0 127 0" result="hardAlpha"/>
<feOffset/>
<feGaussianBlur stdDeviation="11.0563"/>
<feColorMatrix type="matrix" values="0 0 0 0 0.423529 0 0 0 0 0.505882 0 0 0 0 0.67451 0 0 0 0.3 0"/>
<feBlend mode="normal" in2="BackgroundImageFix" result="effect1_dropShadow_61801_235992"/>
<feBlend mode="normal" in="SourceGraphic" in2="effect1_dropShadow_61801_235992" result="shape"/>
</filter>
<filter id="filter5_d_61801_235992" x="110.445" y="86.9719" width="82.7563" height="61.8986" filterUnits="userSpaceOnUse" color-interpolation-filters="sRGB">
<feFlood flood-opacity="0" result="BackgroundImageFix"/>
<feColorMatrix in="SourceAlpha" type="matrix" values="0 0 0 0 0 0 0 0 0 0 0 0 0 0 0 0 0 0 127 0" result="hardAlpha"/>
<feOffset dy="4"/>
<feGaussianBlur stdDeviation="6"/>
<feComposite in2="hardAlpha" operator="out"/>
<feColorMatrix type="matrix" values="0 0 0 0 0.462745 0 0 0 0 0.505882 0 0 0 0 0.662745 0 0 0 0.25 0"/>
<feBlend mode="normal" in2="BackgroundImageFix" result="effect1_dropShadow_61801_235992"/>
<feBlend mode="normal" in="SourceGraphic" in2="effect1_dropShadow_61801_235992" result="shape"/>
</filter>
<filter id="filter6_d_61801_235992" x="160.04" y="106.444" width="10.0498" height="9.95072" filterUnits="userSpaceOnUse" color-interpolation-filters="sRGB">
<feFlood flood-opacity="0" result="BackgroundImageFix"/>
<feColorMatrix in="SourceAlpha" type="matrix" values="0 0 0 0 0 0 0 0 0 0 0 0 0 0 0 0 0 0 127 0" result="hardAlpha"/>
<feOffset dy="1.46373"/>
<feGaussianBlur stdDeviation="0.731867"/>
<feComposite in2="hardAlpha" operator="out"/>
<feColorMatrix type="matrix" values="0 0 0 0 1 0 0 0 0 0.180392 0 0 0 0 0.819686 0 0 0 0.1 0"/>
<feBlend mode="normal" in2="BackgroundImageFix" result="effect1_dropShadow_61801_235992"/>
<feBlend mode="normal" in="SourceGraphic" in2="effect1_dropShadow_61801_235992" result="shape"/>
</filter>
<linearGradient id="paint0_linear_61801_235992" x1="46.4908" y1="47.4896" x2="46.4908" y2="53.6756" gradientUnits="userSpaceOnUse">
<stop stop-color="#4D5678"/>
<stop offset="1" stop-color="#4D5677"/>
</linearGradient>
<linearGradient id="paint1_linear_61801_235992" x1="56.8853" y1="47.4896" x2="56.8853" y2="53.6756" gradientUnits="userSpaceOnUse">
<stop stop-color="#4D5678"/>
<stop offset="1" stop-color="#4D5677"/>
</linearGradient>
<linearGradient id="paint2_linear_61801_235992" x1="67.2797" y1="47.4896" x2="67.2797" y2="53.6756" gradientUnits="userSpaceOnUse">
<stop stop-color="#4D5678"/>
<stop offset="1" stop-color="#4D5677"/>
</linearGradient>
<linearGradient id="paint3_linear_61801_235992" x1="152.75" y1="100.26" x2="152.75" y2="127.555" gradientUnits="userSpaceOnUse">
<stop stop-color="#FFA337" stop-opacity="0"/>
<stop offset="1" stop-color="#FFA337"/>
</linearGradient>
<linearGradient id="paint4_linear_61801_235992" x1="45.7068" y1="46.8013" x2="45.7068" y2="52.6987" gradientUnits="userSpaceOnUse">
<stop stop-color="#4D5678"/>
<stop offset="1" stop-color="#4D5677"/>
</linearGradient>
<linearGradient id="paint5_linear_61801_235992" x1="55.6042" y1="46.8013" x2="55.6042" y2="52.6987" gradientUnits="userSpaceOnUse">
<stop stop-color="#4D5678"/>
<stop offset="1" stop-color="#4D5677"/>
</linearGradient>
<linearGradient id="paint6_linear_61801_235992" x1="65.5017" y1="46.8013" x2="65.5017" y2="52.6987" gradientUnits="userSpaceOnUse">
<stop stop-color="#4D5678"/>
<stop offset="1" stop-color="#4D5677"/>
</linearGradient>
<linearGradient id="paint7_linear_61801_235992" x1="146.703" y1="126.453" x2="146.714" y2="114.385" gradientUnits="userSpaceOnUse">
<stop stop-color="white"/>
<stop offset="1" stop-color="#35C08E"/>
</linearGradient>
<linearGradient id="paint8_linear_61801_235992" x1="174.948" y1="103.191" x2="135.448" y2="134.345" gradientUnits="userSpaceOnUse">
<stop stop-color="#35C08E"/>
<stop offset="0.422169" stop-color="#35C08E"/>
<stop offset="1" stop-color="white"/>
</linearGradient>
<clipPath id="clip0_61801_235992">
<rect width="200" height="178" fill="white"/>
</clipPath>
</defs>
</svg>
