<svg width="36" height="36" viewBox="0 0 36 36" fill="none" xmlns="http://www.w3.org/2000/svg">
<path d="M8.9466 3.00004L17.925 3L26.9034 3.00004C29.5139 3.00005 31.6458 5.0863 31.7023 7.69617L32.1439 28.0961C32.2021 30.7871 30.0366 33 27.345 33H8.50503C5.81341 33 3.64791 30.7871 3.70616 28.0961L4.14774 7.69616C4.20424 5.0863 6.33612 3.00005 8.9466 3.00004Z" fill="url(#paint0_linear_287_22653)"/>
<path d="M12.45 7.0501V7.0501C12.45 8.87264 13.9275 10.3501 15.75 10.3501L19.95 10.3501C21.7725 10.3501 23.25 8.87264 23.25 7.0501V7.0501" stroke="white" stroke-width="1.8"/>
<path d="M7.25859 25.3501V18.6001H11.5894V20.0955H9.01542V21.3832H11.2217V22.8786H9.01542V25.3501H7.25859Z" fill="white"/>
<path d="M12.7347 25.3501V18.6001H17.0246V20.0955H14.4915V21.1547H16.6569V22.6501H14.4915V23.8547H17.1268V25.3501H12.7347Z" fill="white"/>
<path d="M18.4103 25.3501V18.6001H22.7003V20.0955H20.1672V21.1547H22.3326V22.6501H20.1672V23.8547H22.8024V25.3501H18.4103Z" fill="white"/>
<path d="M24.086 25.3501V18.6001H26.0471C26.7212 18.6001 27.3136 18.7143 27.8243 18.9428C28.3418 19.1643 28.7436 19.5209 29.0296 20.0124C29.3156 20.5039 29.4586 21.1478 29.4586 21.9439C29.4586 22.7401 29.3156 23.3909 29.0296 23.8963C28.7436 24.3947 28.3521 24.7616 27.855 24.997C27.3579 25.2324 26.7893 25.3501 26.1492 25.3501H24.086ZM25.8428 23.917H25.9449C26.265 23.917 26.5544 23.8616 26.8131 23.7509C27.0719 23.6401 27.2762 23.4428 27.426 23.1589C27.5826 22.8751 27.6609 22.4701 27.6609 21.9439C27.6609 21.4178 27.5826 21.0197 27.426 20.7497C27.2762 20.4728 27.0719 20.2859 26.8131 20.1889C26.5544 20.0851 26.265 20.0332 25.9449 20.0332H25.8428V23.917Z" fill="white"/>
<defs>
<linearGradient id="paint0_linear_287_22653" x1="17.925" y1="3" x2="17.925" y2="33" gradientUnits="userSpaceOnUse">
<stop stop-color="#3A7DFF"/>
<stop offset="1" stop-color="#5DDBF7"/>
</linearGradient>
</defs>
</svg>
