<svg width="36" height="36" viewBox="0 0 36 36" fill="none" xmlns="http://www.w3.org/2000/svg">
<path d="M28.5673 25.1361C28.515 25.2134 28.4053 25.2231 28.3392 25.1571L24.4975 21.3154C24.4536 21.2715 24.3778 21.2968 24.3676 21.358C24.3624 21.3897 24.357 21.4213 24.3515 21.453C24.3449 21.4921 24.3382 21.5311 24.3318 21.5702C24.2001 22.2688 23.9549 22.8974 23.6173 23.4505C23.5805 23.5107 23.5887 23.5884 23.6386 23.6383L28.3942 28.3943C28.5114 28.5116 28.5114 28.7015 28.3942 28.8186L27.2276 29.9853C27.1104 30.1025 26.9205 30.1025 26.8034 29.9853L25.2838 28.466C23.2191 29.9057 20.7081 30.75 18 30.75C10.9584 30.75 5.25 25.0416 5.25 18C5.25 15.2918 6.09431 12.7809 7.53405 10.7161L6.01439 9.19641C5.89722 9.07925 5.89722 8.8893 6.01439 8.77214L7.1811 7.60542C7.29826 7.48826 7.48821 7.48826 7.60538 7.60542L12.5185 12.5182C12.5879 12.5876 12.7041 12.5728 12.7568 12.49C13.093 11.9614 13.5207 11.4858 14.0241 11.0844C14.0954 11.0276 14.1031 10.9209 14.0385 10.8564L10.8427 7.66059C10.7767 7.59456 10.7864 7.48485 10.8637 7.43252C12.9001 6.05468 15.3559 5.24997 17.9998 5.24997C25.0414 5.24997 30.7498 10.9583 30.7498 18C30.7498 20.6438 29.9452 23.0996 28.5673 25.1361ZM18.0267 10.3929C17.4016 10.3929 16.8948 10.8997 16.8948 11.5249V12.122C14.9035 12.6307 13.6317 14.5487 14.3785 16.5321C14.7727 17.5791 15.5746 18.1686 16.3429 18.5346C16.9113 18.8053 17.5741 19.0004 18.1158 19.1598L18.127 19.1631C18.2678 19.2045 18.4003 19.2435 18.5206 19.2807C19.2063 19.4933 19.5748 19.667 19.7671 19.8582C19.8595 19.9502 20.0107 20.1249 19.8958 20.7336C19.8073 21.2033 19.4038 21.6162 18.5004 21.7227C17.6005 21.8288 16.4818 21.5577 15.6186 20.8997C15.1213 20.5208 14.4111 20.6165 14.0321 21.1137C13.6531 21.6108 13.7489 22.3212 14.2461 22.7001C15.0379 23.3039 15.963 23.7011 16.8948 23.8869V24.4751C16.8948 25.1003 17.4016 25.607 18.0267 25.607C18.6519 25.607 19.1587 25.1003 19.1587 24.4751V23.9087C20.5077 23.6385 21.8125 22.7865 22.1206 21.1532C22.3441 19.968 22.0944 18.9801 21.3637 18.2532C20.7328 17.6258 19.8559 17.3244 19.1907 17.1183C18.9966 17.0582 18.8138 17.0041 18.641 16.9531C18.1324 16.8027 17.7079 16.6771 17.3164 16.4907C16.8397 16.2638 16.6083 16.0293 16.4971 15.7344C16.2975 15.2039 16.6102 14.3194 17.8417 14.2579C18.4666 14.2268 19.0132 14.4403 19.4304 14.6927C19.6359 14.8171 19.7973 14.9437 19.9042 15.036C19.9572 15.0819 19.9953 15.1181 20.0175 15.1398L20.0265 15.1488L20.0382 15.1607C20.4613 15.6156 21.1735 15.645 21.6324 15.2244C22.0932 14.802 22.1242 14.0859 21.7018 13.6251L21.6993 13.6223L21.6961 13.6191L21.6886 13.611L21.6678 13.5892C21.6514 13.5721 21.6298 13.5502 21.6034 13.5242C21.5505 13.4723 21.4773 13.4034 21.385 13.3237C21.2016 13.165 20.9374 12.9586 20.6026 12.7559C20.2227 12.526 19.7346 12.2908 19.1587 12.143V11.5249C19.1587 10.8997 18.6519 10.3929 18.0267 10.3929Z" fill="url(#paint0_linear_26814_1293)"/>
<defs>
<linearGradient id="paint0_linear_26814_1293" x1="5.25" y1="2.81692" x2="21.3797" y2="24.5891" gradientUnits="userSpaceOnUse">
<stop stop-color="#CEE0FF"/>
<stop offset="0.94373" stop-color="#5E99FF"/>
</linearGradient>
</defs>
</svg>
