<svg width="40" height="41" viewBox="0 0 40 41" fill="none" xmlns="http://www.w3.org/2000/svg">
<rect y="0.5" width="40" height="40" rx="3.2" fill="white"/>
<path d="M27.5956 33.4458C26.7274 33.4458 25.9057 33.2805 25.1305 32.9496C24.3553 32.6189 23.6782 32.1642 23.0994 31.5853C22.5207 31.0065 22.066 30.3295 21.7351 29.5544C21.4044 28.7791 21.239 27.9576 21.239 27.0892C21.239 26.221 21.4044 25.3993 21.7351 24.6241C22.0659 23.8489 22.5208 23.177 23.0994 22.6087C23.6782 22.0401 24.3552 21.5905 25.1305 21.2598C25.9057 20.9289 26.7273 20.7635 27.5956 20.7635C28.4638 20.7635 29.2855 20.9289 30.0607 21.2598C30.8359 21.5905 31.5077 22.0401 32.0762 22.6087C32.6447 23.177 33.0943 23.849 33.4251 24.6241C33.7558 25.3993 33.9213 26.221 33.9213 27.0892C33.9213 27.9575 33.7558 28.7791 33.4251 29.5544C33.0944 30.3296 32.6447 31.0065 32.0762 31.5853C31.5077 32.1642 30.8359 32.6189 30.0607 32.9496C29.2855 33.2805 28.4639 33.4458 27.5956 33.4458ZM30.7274 26.066H28.4328V23.9265C28.4328 23.637 28.3399 23.389 28.1538 23.1822C27.9677 22.9755 27.73 22.8721 27.4405 22.8721C27.1512 22.8721 26.9238 22.9755 26.7585 23.1822C26.5931 23.389 26.5104 23.637 26.5104 23.9265V26.066H24.4948C24.2055 26.066 23.9575 26.1692 23.7507 26.3761C23.544 26.5827 23.4406 26.8309 23.4406 27.1202C23.4406 27.4096 23.544 27.6267 23.7507 27.7715C23.9575 27.9162 24.2055 27.9884 24.4948 27.9884H26.5104V30.19C26.5104 30.4795 26.5931 30.7275 26.7585 30.9342C26.9238 31.141 27.1512 31.2442 27.4405 31.2442C27.73 31.2442 27.9677 31.141 28.1538 30.9342C28.3399 30.7275 28.4328 30.4795 28.4328 30.19V27.9884H30.7274V28.0505C31.0168 28.0505 31.2649 27.9678 31.4716 27.8025C31.6784 27.6371 31.7816 27.4096 31.7816 27.1203C31.7816 26.831 31.6784 26.5828 31.4716 26.3761C31.2649 26.1692 31.0168 26.066 30.7274 26.066ZM23.0686 18.3451C22.9859 18.6758 22.9031 18.9755 22.8204 19.2443C22.7377 19.4717 22.6343 19.7043 22.5104 19.9419C22.3863 20.1796 22.252 20.3606 22.1073 20.4846C21.9212 20.6293 21.7921 20.7844 21.7197 20.9497C21.6473 21.115 21.5852 21.2855 21.5336 21.4613C21.482 21.637 21.4251 21.8178 21.3632 22.0039C21.301 22.19 21.1977 22.376 21.0531 22.562C20.5775 23.1821 20.2209 23.7817 19.9832 24.3605C19.7455 24.9393 19.5802 25.4974 19.4871 26.035C19.3941 26.5724 19.3682 27.1048 19.4095 27.6318C19.4509 28.159 19.5335 28.6706 19.6576 29.1667C19.7403 29.5387 19.8643 29.9263 20.0296 30.3295C20.1951 30.7325 20.438 31.146 20.7583 31.5698C21.0787 31.9936 21.487 32.4069 21.9832 32.8101C22.4793 33.2132 23.0994 33.6007 23.8437 33.9729C23.3475 34.0762 22.7687 34.1693 22.1072 34.252C21.549 34.3141 20.8617 34.3708 20.0453 34.4224C19.2287 34.4743 18.2932 34.5 17.239 34.5C16.7015 34.5 16.0762 34.4794 15.3631 34.438C14.6498 34.3967 13.9161 34.345 13.1615 34.283C12.4071 34.2209 11.6627 34.1486 10.9289 34.0659C10.1952 33.9832 9.52323 33.8954 8.91339 33.8023C8.30363 33.7094 7.78674 33.6111 7.36298 33.5077C6.93933 33.4044 6.67571 33.3113 6.57231 33.2287C6.38626 33.0632 6.24166 32.6033 6.13827 31.8488C6.03487 31.0944 6.0659 30.1072 6.23124 28.8876C6.33461 28.2054 6.60851 27.6835 7.05293 27.3216C7.4974 26.9599 8.01933 26.6757 8.61891 26.4689C9.21829 26.2622 9.84367 26.071 10.4948 25.8952C11.146 25.7196 11.7197 25.4767 12.2159 25.1667C12.6086 24.9186 12.9084 24.686 13.115 24.469C13.3217 24.2519 13.4664 24.0297 13.5491 23.8022C13.6318 23.575 13.6731 23.3371 13.6731 23.0891C13.6731 22.8411 13.6628 22.5723 13.6421 22.2828C13.6007 21.8487 13.451 21.5076 13.1925 21.2597C12.9341 21.0115 12.6602 20.7634 12.3709 20.5155C12.2053 20.3913 12.0608 20.2055 11.9366 19.9573C11.8126 19.7093 11.7094 19.4716 11.6266 19.2442C11.5233 18.9754 11.4406 18.6757 11.3785 18.345C11.2338 18.3036 11.0995 18.2416 10.9755 18.1589C10.8721 18.0763 10.7584 17.9521 10.6344 17.7867C10.5104 17.6214 10.3967 17.3734 10.2932 17.0425C10.1898 16.7325 10.1537 16.4431 10.1847 16.1744C10.2157 15.9056 10.2727 15.6783 10.3553 15.4922C10.438 15.2648 10.5517 15.0684 10.6963 14.9031C10.6963 14.2002 10.7378 13.4974 10.8205 12.7944C10.9032 12.195 11.0323 11.5541 11.2081 10.8721C11.3838 10.1898 11.6681 9.57997 12.0609 9.04264C12.4329 8.52574 12.8309 8.10193 13.2545 7.77131C13.6783 7.44049 14.1177 7.18218 14.5724 6.9961C15.0271 6.80999 15.482 6.68088 15.9368 6.60848C16.3915 6.5362 16.8257 6.5 17.2391 6.5C17.7766 6.5 18.2933 6.56211 18.7895 6.68611C19.2856 6.81008 19.7455 6.97544 20.1693 7.18226C20.5932 7.38892 20.9704 7.62151 21.3011 7.87993C21.6319 8.13824 21.9007 8.4018 22.1074 8.67054C22.5828 9.26998 22.929 9.93158 23.1462 10.655C23.3632 11.3786 23.5233 12.0607 23.6267 12.7015C23.7301 13.4457 23.7715 14.1898 23.7508 14.9342C23.8748 15.0375 23.9782 15.1615 24.0608 15.3062C24.1435 15.4302 24.2056 15.5957 24.2469 15.8024C24.2883 16.009 24.2883 16.2675 24.2469 16.5776C24.2056 16.9703 24.1229 17.2804 23.999 17.5078C23.8748 17.7353 23.7405 17.9108 23.5958 18.035C23.4303 18.1796 23.2545 18.283 23.0686 18.3451Z" fill="url(#paint0_linear_24348_79939)"/>
<defs>
<linearGradient id="paint0_linear_24348_79939" x1="6.07861" y1="3.82842" x2="28.3005" y2="30.614" gradientUnits="userSpaceOnUse">
<stop stop-color="#CEE0FF"/>
<stop offset="0.94373" stop-color="#5E99FF"/>
</linearGradient>
</defs>
</svg>
