<svg width="36" height="36" viewBox="0 0 36 36" fill="none" xmlns="http://www.w3.org/2000/svg">
<path d="M9.75 6C8.50736 6 7.5 7.00736 7.5 8.25V28.859C7.5 29.809 8.66109 30.2706 9.31336 29.58L11.75 27L14.2215 29.6099C14.5765 29.9848 15.1735 29.9848 15.5285 29.6099L18 27L20.4715 29.6099C20.8265 29.9848 21.4235 29.9848 21.7785 29.6099L24.25 27L26.6866 29.58C27.3389 30.2706 28.5 29.809 28.5 28.859V8.25C28.5 7.00736 27.4926 6 26.25 6H9.75ZM14.625 15C13.5895 15 12.75 14.1605 12.75 13.125C12.75 12.0895 13.5895 11.25 14.625 11.25C15.6605 11.25 16.5 12.0895 16.5 13.125C16.5 14.1605 15.6605 15 14.625 15ZM13.2349 19.6742L21.1743 11.7348C21.4672 11.4419 21.942 11.4419 22.2349 11.7348L22.7652 12.2652C23.0581 12.5581 23.0581 13.0329 22.7653 13.3258L14.8259 21.2652C14.533 21.5581 14.0581 21.5581 13.7653 21.2652L13.2349 20.7348C12.942 20.4419 12.942 19.9671 13.2349 19.6742ZM23.25 19.875C23.25 20.9105 22.4105 21.75 21.375 21.75C20.3395 21.75 19.5 20.9105 19.5 19.875C19.5 18.8395 20.3395 18 21.375 18C22.4105 18 23.25 18.8395 23.25 19.875Z" fill="url(#paint0_linear_26814_1281)"/>
<defs>
<linearGradient id="paint0_linear_26814_1281" x1="7.5" y1="3.71855" x2="25.8297" y2="22.7571" gradientUnits="userSpaceOnUse">
<stop stop-color="#CEE0FF"/>
<stop offset="0.94373" stop-color="#5E99FF"/>
</linearGradient>
</defs>
</svg>
