<svg width="40" height="40" viewBox="0 0 40 40" fill="none" xmlns="http://www.w3.org/2000/svg">
<rect width="40" height="40" rx="3.2" fill="white"/>
<path d="M12.4921 12.8941C13.2874 11.5167 15.0487 11.0447 16.4262 11.84C17.8037 12.6353 18.2757 14.3966 17.4804 15.7741L10.9616 27.065C10.1663 28.4425 8.40489 28.9145 7.02741 28.1192C5.64993 27.3239 5.17797 25.5625 5.97326 24.185L12.4921 12.8941Z" fill="#4622CE"/>
<path d="M12.6648 16.0878C11.8696 14.7103 12.3415 12.9489 13.719 12.1536C15.0965 11.3583 16.8578 11.8303 17.6531 13.2078L20.4595 18.0685C21.2548 19.446 20.7828 21.2073 19.4053 22.0026C18.0279 22.7979 16.2665 22.326 15.4712 20.9485L12.6648 16.0878Z" fill="#4622CE"/>
<rect x="20.86" y="13.2908" width="5.76" height="18.728" rx="2.88" transform="rotate(-30 20.86 13.2908)" fill="#D75CEE"/>
<circle cx="21.8308" cy="25.7708" r="2.88" fill="#D75CEE"/>
</svg>
