<svg width="60" height="60" viewBox="0 0 60 60" fill="none" xmlns="http://www.w3.org/2000/svg"><rect width="60" height="60" rx="4" fill="#F7F8FB"></rect><path d="M38 19.3333H44.4C45.2837 19.3333 46 20.0496 46 20.9333V44.3999C46 45.2836 45.2837 45.9999 44.4 45.9999H38V19.3333Z" fill="#356DFF"></path><path d="M14 15.6C14 14.7163 14.7163 14 15.6 14H36.4C37.2837 14 38 14.7163 38 15.6V22H14V15.6Z" fill="#CDDBFD"></path><path d="M14 22H38V30H14V22Z" fill="#A7C0FD"></path><path d="M14 30H38V38H14V30Z" fill="#81A3FE"></path><path d="M14 38H38V46H15.6C14.7163 46 14 45.2837 14 44.4V38Z" fill="#497BFF"></path><path d="M14 15.6C14 14.7163 14.7163 14 15.6 14H22V22H14V15.6Z" fill="#BED0FD"></path><path d="M14 22H22V30H14V22Z" fill="#9CB8FD"></path><path d="M14 30H22V38H14V30Z" fill="#799EFE"></path><path d="M14 38H22V46H15.6C14.7163 46 14 45.2837 14 44.4V38Z" fill="#477AFF"></path></svg>